<?xml version="1.0" encoding="UTF-8"?><svg id="Layer_1" xmlns="http://www.w3.org/2000/svg" viewBox="0 0 1492 458"><defs><style>.cls-1{fill:#fff;}.cls-2{fill:#1d1d1b;}.cls-3{fill:#1a1a1a;}</style></defs><rect class="cls-3" x="68.73" y="83.5" width="452.55" height="127.75"/><rect class="cls-3" x="787" y="88.64" width="620.55" height="127.75"/><rect class="cls-3" x="197.87" y="284.63" width="1167.08" height="65.71"/><rect class="cls-3" x="416.9" y="350.34" width="730.82" height="65.71"/><path class="cls-1" d="m134.39,117.42h20.35c8.5,0,14.8,2.71,18.9,8.14,4.1,5.43,6.15,13.23,6.15,23.42s-2.05,18-6.15,23.42c-4.1,5.43-10.4,8.14-18.9,8.14h-20.35v-63.12Zm19.44,52.45c4.04,0,6.99-1.3,8.86-3.89,1.87-2.59,2.8-6.36,2.8-11.3v-11.49c0-4.88-.94-8.62-2.8-11.21-1.87-2.59-4.82-3.89-8.86-3.89h-6.06v41.78h6.06Z"/><path class="cls-1" d="m212.79,181.63c-7.84,0-13.78-2.17-17.82-6.51-4.04-4.34-6.06-10.25-6.06-17.73,0-3.8.53-7.22,1.58-10.26,1.05-3.04,2.56-5.64,4.52-7.78,1.96-2.14,4.34-3.77,7.14-4.88,2.8-1.11,5.95-1.67,9.45-1.67s6.63.56,9.41,1.67c2.77,1.12,5.12,2.7,7.05,4.75,1.93,2.05,3.42,4.54,4.48,7.46,1.05,2.92,1.58,6.19,1.58,9.81v3.98h-31.92v.81c0,3.02.93,5.44,2.8,7.28,1.87,1.84,4.61,2.76,8.23,2.76,2.77,0,5.15-.53,7.14-1.58,1.99-1.05,3.71-2.46,5.15-4.21l7.23,7.87c-1.81,2.23-4.34,4.16-7.6,5.79-3.26,1.63-7.39,2.44-12.39,2.44Zm-1.08-39.25c-2.89,0-5.2.89-6.92,2.67-1.72,1.78-2.58,4.18-2.58,7.19v.72h18.81v-.72c0-3.07-.83-5.49-2.49-7.23-1.66-1.75-3.93-2.62-6.83-2.62Z"/><path class="cls-1" d="m266.78,181.63c-5.19,0-9.69-.78-13.52-2.35-3.83-1.57-6.71-3.71-8.64-6.42l7.51-6.96c1.81,1.99,3.93,3.54,6.38,4.66,2.44,1.12,5.23,1.67,8.37,1.67,2.65,0,4.73-.41,6.24-1.22,1.51-.81,2.26-2.06,2.26-3.75,0-1.33-.51-2.25-1.54-2.76-1.03-.51-2.44-.92-4.25-1.22l-7.51-1.18c-2.11-.3-4.07-.77-5.88-1.4-1.81-.63-3.38-1.49-4.7-2.58-1.33-1.09-2.38-2.41-3.17-3.98-.78-1.57-1.18-3.47-1.18-5.7,0-4.88,1.87-8.71,5.61-11.48,3.74-2.77,8.98-4.16,15.74-4.16,4.58,0,8.49.62,11.71,1.85,3.22,1.24,5.8,3,7.73,5.29l-6.69,7.6c-1.39-1.51-3.17-2.77-5.34-3.8-2.17-1.02-4.79-1.54-7.87-1.54-5.19,0-7.78,1.57-7.78,4.7,0,1.39.51,2.34,1.54,2.85,1.02.51,2.44.92,4.25,1.22l7.42,1.18c2.11.3,4.07.77,5.88,1.4,1.81.63,3.39,1.49,4.75,2.58,1.36,1.09,2.43,2.41,3.21,3.98.78,1.57,1.18,3.47,1.18,5.7,0,4.88-1.88,8.74-5.65,11.58-3.77,2.83-9.12,4.25-16.05,4.25Z"/><path class="cls-1" d="m304.49,170.06h14.83v-25.68h-14.83v-10.49h28.22v36.17h13.75v10.49h-41.96v-10.49Zm21.52-42.14c-3.02,0-5.11-.62-6.29-1.85-1.18-1.23-1.76-2.73-1.76-4.48v-2.62c0-1.81.59-3.31,1.76-4.52,1.18-1.21,3.27-1.81,6.29-1.81s5.11.6,6.29,1.81c1.18,1.21,1.76,2.71,1.76,4.52v2.62c0,1.75-.59,3.24-1.76,4.48-1.18,1.24-3.27,1.85-6.29,1.85Z"/><path class="cls-1" d="m404.51,185.25c0,4.94-2.08,8.59-6.24,10.94-4.16,2.35-10.7,3.53-19.62,3.53-4.46,0-8.14-.26-11.03-.77-2.89-.51-5.2-1.25-6.92-2.22-1.72-.97-2.92-2.11-3.62-3.44-.69-1.33-1.04-2.77-1.04-4.34,0-2.65.78-4.66,2.35-6.01,1.57-1.36,3.77-2.4,6.6-3.12v-.54c-1.99-.6-3.57-1.46-4.75-2.58-1.18-1.12-1.76-2.7-1.76-4.75,0-2.29.77-3.98,2.31-5.06,1.54-1.08,3.57-1.93,6.1-2.53v-.54c-2.77-1.33-4.93-3.19-6.47-5.61-1.54-2.41-2.31-5.34-2.31-8.77,0-2.71.48-5.11,1.45-7.19.96-2.08,2.34-3.81,4.11-5.2,1.78-1.39,3.9-2.44,6.38-3.17,2.47-.72,5.25-1.08,8.32-1.08s5.7.33,8.23.99v-2.53c0-1.81.63-3.31,1.9-4.52,1.27-1.21,3.01-1.81,5.25-1.81h8.23v9.77h-11.21v.81c2.53,1.33,4.51,3.15,5.92,5.47,1.42,2.32,2.12,5.14,2.12,8.46,0,2.71-.48,5.1-1.45,7.14-.97,2.05-2.35,3.78-4.16,5.2-1.81,1.42-3.96,2.49-6.47,3.21-2.5.72-5.29,1.08-8.37,1.08-1.39,0-2.71-.07-3.98-.23-1.27-.15-2.47-.38-3.62-.68-.66.36-1.22.81-1.67,1.36-.45.54-.68,1.24-.68,2.08,0,.72.18,1.3.54,1.72.36.42.86.74,1.49.95.63.21,1.37.35,2.22.41.84.06,1.72.09,2.62.09h10.67c3.31,0,6.15.33,8.5.99,2.35.66,4.28,1.6,5.79,2.8,1.51,1.21,2.59,2.62,3.26,4.25.66,1.63,1,3.44,1,5.43Zm-12.66.99c0-1.21-.48-2.16-1.45-2.85-.97-.69-2.8-1.04-5.52-1.04h-16.01c-1.21,1.02-1.81,2.29-1.81,3.8s.62,2.64,1.85,3.57c1.24.93,3.33,1.4,6.29,1.4h7.87c3.07,0,5.3-.42,6.69-1.27,1.39-.85,2.08-2.05,2.08-3.62Zm-13.47-28.67c2.71,0,4.69-.66,5.92-1.99,1.23-1.33,1.85-3.01,1.85-5.06v-2.17c0-2.05-.62-3.74-1.85-5.06-1.24-1.33-3.21-1.99-5.92-1.99s-4.58.66-5.79,1.99c-1.21,1.33-1.81,3.02-1.81,5.06v2.17c0,2.05.6,3.74,1.81,5.06,1.21,1.33,3.13,1.99,5.79,1.99Z"/><path class="cls-1" d="m413.46,180.55v-46.66h13.38v8.5h.54c.54-1.33,1.21-2.56,1.99-3.71.78-1.14,1.73-2.16,2.85-3.03,1.11-.87,2.41-1.57,3.89-2.08,1.48-.51,3.15-.77,5.02-.77,2.23,0,4.28.38,6.15,1.13,1.87.75,3.47,1.89,4.79,3.39,1.33,1.51,2.37,3.35,3.12,5.52.75,2.17,1.13,4.67,1.13,7.51v30.21h-13.38v-28.4c0-6.03-2.62-9.04-7.87-9.04-1.03,0-2.03.14-3.03.41-.99.27-1.88.69-2.67,1.27-.78.57-1.4,1.28-1.85,2.13-.45.84-.68,1.84-.68,2.98v30.66h-13.38Z"/><path class="cls-1" d="m234.12,326.05l13.74-7.26v-.37l-13.74-7.26v-6.38l19.89,10.64v6.38l-19.89,10.64v-6.38Z"/><path class="cls-1" d="m262.66,326.05l13.74-7.26v-.37l-13.74-7.26v-6.38l19.89,10.64v6.38l-19.89,10.64v-6.38Z"/><path class="cls-1" d="m338.33,332.71c-1.42,0-2.56-.36-3.42-1.09-.86-.72-1.37-1.76-1.53-3.12h-.23c-.43,1.57-1.29,2.76-2.57,3.56-1.28.8-2.84,1.2-4.69,1.2-2.31,0-4.17-.62-5.57-1.87-1.4-1.25-2.1-3-2.1-5.25,0-2.5.91-4.35,2.73-5.55,1.82-1.2,4.49-1.8,8-1.8h3.84v-1.2c0-1.42-.33-2.49-.99-3.21-.66-.72-1.78-1.09-3.35-1.09-1.45,0-2.62.28-3.52.83-.9.56-1.67,1.28-2.31,2.17l-3.75-3.33c.8-1.36,2.06-2.47,3.77-3.35s3.91-1.32,6.59-1.32c3.27,0,5.82.75,7.66,2.24,1.83,1.5,2.75,3.75,2.75,6.78v10.45h2.64v4.95h-3.93Zm-9.85-3.93c1.2,0,2.22-.29,3.05-.88.83-.58,1.25-1.43,1.25-2.54v-2.87h-3.65c-2.81,0-4.21.94-4.21,2.82v.92c0,.83.32,1.46.97,1.9s1.51.65,2.59.65Z"/><path class="cls-1" d="m357.94,333.26c-2.65,0-4.96-.4-6.92-1.2-1.96-.8-3.43-1.9-4.42-3.28l3.84-3.56c.93,1.02,2.01,1.81,3.26,2.38,1.25.57,2.67.86,4.28.86,1.36,0,2.42-.21,3.19-.62.77-.42,1.16-1.06,1.16-1.92,0-.68-.26-1.15-.79-1.41-.52-.26-1.25-.47-2.17-.62l-3.84-.6c-1.08-.15-2.08-.39-3.01-.72-.93-.32-1.73-.76-2.41-1.32-.68-.56-1.22-1.23-1.62-2.04-.4-.8-.6-1.77-.6-2.91,0-2.5.96-4.46,2.87-5.87,1.91-1.42,4.59-2.13,8.05-2.13,2.34,0,4.34.32,5.99.95,1.65.63,2.97,1.53,3.95,2.71l-3.42,3.89c-.71-.77-1.62-1.42-2.73-1.94-1.11-.52-2.45-.79-4.02-.79-2.65,0-3.98.8-3.98,2.41,0,.71.26,1.2.79,1.46.52.26,1.25.47,2.17.62l3.79.6c1.08.15,2.08.39,3.01.72.92.32,1.73.76,2.43,1.32s1.24,1.23,1.64,2.04c.4.8.6,1.77.6,2.91,0,2.5-.96,4.47-2.89,5.92-1.93,1.45-4.66,2.17-8.21,2.17Z"/><path class="cls-1" d="m419.6,328.32h-.32c-.62,1.46-1.47,2.65-2.57,3.57-1.09.92-2.6,1.38-4.51,1.38-1.33,0-2.54-.25-3.63-.74-1.1-.49-2.04-1.25-2.82-2.27-.79-1.02-1.4-2.31-1.85-3.89-.45-1.57-.67-3.44-.67-5.6s.22-4.02.67-5.6c.45-1.57,1.06-2.87,1.85-3.89.79-1.02,1.73-1.77,2.82-2.27,1.09-.49,2.3-.74,3.63-.74.96,0,1.8.12,2.54.37s1.4.59,1.97,1.03c.57.44,1.06.96,1.48,1.56.42.61.78,1.27,1.09,1.98h.32v-14.75h6.85v34.23h-6.85v-4.39Zm-4.44-.42c1.2,0,2.24-.29,3.12-.87.88-.58,1.32-1.5,1.32-2.76v-6.99c0-1.26-.44-2.17-1.32-2.76-.88-.58-1.92-.87-3.12-.87-1.54,0-2.73.47-3.56,1.4-.83.93-1.25,2.23-1.25,3.88v3.68c0,1.66.42,2.95,1.25,3.88.83.93,2.02,1.4,3.56,1.4Z"/><path class="cls-1" d="m444.49,333.26c-4.01,0-7.05-1.11-9.11-3.33-2.07-2.22-3.1-5.24-3.1-9.07,0-1.94.27-3.69.81-5.25.54-1.56,1.31-2.88,2.31-3.98,1-1.09,2.22-1.93,3.65-2.5,1.43-.57,3.04-.86,4.83-.86s3.39.29,4.81.86c1.42.57,2.62,1.38,3.61,2.43.99,1.05,1.75,2.32,2.29,3.82.54,1.5.81,3.17.81,5.02v2.04h-16.33v.42c0,1.54.48,2.78,1.43,3.72.96.94,2.36,1.41,4.21,1.41,1.42,0,2.64-.27,3.65-.81,1.02-.54,1.9-1.26,2.64-2.15l3.7,4.02c-.92,1.14-2.22,2.13-3.89,2.96-1.67.83-3.78,1.25-6.34,1.25Zm-.56-20.07c-1.48,0-2.66.46-3.54,1.36-.88.91-1.32,2.14-1.32,3.68v.37h9.62v-.37c0-1.57-.42-2.81-1.27-3.7-.85-.89-2.01-1.34-3.49-1.34Z"/><path class="cls-1" d="m461.78,327.34h7.03v-13.14h-7.49v-5.37h7.49v-3.47c0-2.04.59-3.69,1.78-4.97,1.19-1.28,3.03-1.92,5.53-1.92h8.09v5.37h-8.56v5h8.56v5.37h-8.56v13.14h7.49v5.37h-21.37v-5.37Z"/><path class="cls-1" d="m491.39,327.34h7.59v-13.14h-7.59v-5.37h14.43v18.5h7.03v5.37h-21.46v-5.37Zm11.01-21.55c-1.54,0-2.61-.32-3.21-.95-.6-.63-.9-1.4-.9-2.29v-1.34c0-.92.3-1.7.9-2.31.6-.62,1.67-.93,3.21-.93s2.61.31,3.21.93c.6.62.9,1.39.9,2.31v1.34c0,.89-.3,1.66-.9,2.29-.6.63-1.67.95-3.21.95Z"/><path class="cls-1" d="m518.58,332.71v-23.87h6.85v4.35h.28c.28-.68.62-1.31,1.02-1.9.4-.58.89-1.1,1.46-1.55.57-.45,1.23-.8,1.99-1.06.76-.26,1.61-.39,2.57-.39,1.14,0,2.19.19,3.15.58.96.39,1.77.96,2.45,1.73.68.77,1.21,1.71,1.6,2.82.39,1.11.58,2.39.58,3.84v15.45h-6.85v-14.52c0-3.08-1.34-4.63-4.02-4.63-.52,0-1.04.07-1.55.21-.51.14-.96.35-1.36.65-.4.29-.72.66-.95,1.09-.23.43-.35.94-.35,1.53v15.68h-6.85Z"/><path class="cls-1" d="m558.64,333.26c-4.01,0-7.05-1.11-9.11-3.33-2.07-2.22-3.1-5.24-3.1-9.07,0-1.94.27-3.69.81-5.25.54-1.56,1.31-2.88,2.31-3.98,1-1.09,2.22-1.93,3.65-2.5,1.43-.57,3.04-.86,4.83-.86s3.39.29,4.81.86c1.42.57,2.62,1.38,3.61,2.43.99,1.05,1.75,2.32,2.29,3.82.54,1.5.81,3.17.81,5.02v2.04h-16.33v.42c0,1.54.48,2.78,1.43,3.72.96.94,2.36,1.41,4.21,1.41,1.42,0,2.64-.27,3.65-.81,1.02-.54,1.9-1.26,2.64-2.15l3.7,4.02c-.92,1.14-2.22,2.13-3.89,2.96-1.67.83-3.78,1.25-6.34,1.25Zm-.56-20.07c-1.48,0-2.66.46-3.54,1.36-.88.91-1.32,2.14-1.32,3.68v.37h9.62v-.37c0-1.57-.42-2.81-1.27-3.7-.85-.89-2.01-1.34-3.49-1.34Z"/><path class="cls-1" d="m590.83,328.32h-.32c-.62,1.46-1.47,2.65-2.57,3.57-1.09.92-2.6,1.38-4.51,1.38-1.33,0-2.54-.25-3.63-.74-1.1-.49-2.04-1.25-2.82-2.27-.79-1.02-1.4-2.31-1.85-3.89-.45-1.57-.67-3.44-.67-5.6s.22-4.02.67-5.6c.45-1.57,1.06-2.87,1.85-3.89.79-1.02,1.73-1.77,2.82-2.27,1.09-.49,2.3-.74,3.63-.74.96,0,1.8.12,2.54.37s1.4.59,1.97,1.03c.57.44,1.06.96,1.48,1.56.42.61.78,1.27,1.09,1.98h.32v-14.75h6.85v34.23h-6.85v-4.39Zm-4.44-.42c1.2,0,2.24-.29,3.12-.87.88-.58,1.32-1.5,1.32-2.76v-6.99c0-1.26-.44-2.17-1.32-2.76-.88-.58-1.92-.87-3.12-.87-1.54,0-2.73.47-3.56,1.4-.83.93-1.25,2.23-1.25,3.88v3.68c0,1.66.42,2.95,1.25,3.88.83.93,2.02,1.4,3.56,1.4Z"/><path class="cls-1" d="m634.08,327.34h7.59v-13.14h-7.59v-5.37h14.43v18.5h7.03v5.37h-21.46v-5.37Zm11.01-21.55c-1.54,0-2.61-.32-3.21-.95-.6-.63-.9-1.4-.9-2.29v-1.34c0-.92.3-1.7.9-2.31.6-.62,1.67-.93,3.21-.93s2.61.31,3.21.93c.6.62.9,1.39.9,2.31v1.34c0,.89-.3,1.66-.9,2.29-.6.63-1.67.95-3.21.95Z"/><path class="cls-1" d="m661.28,332.71v-23.87h6.85v4.35h.28c.28-.68.62-1.31,1.02-1.9.4-.58.89-1.1,1.46-1.55.57-.45,1.23-.8,1.99-1.06.76-.26,1.61-.39,2.57-.39,1.14,0,2.19.19,3.15.58.96.39,1.77.96,2.45,1.73.68.77,1.21,1.71,1.6,2.82.39,1.11.58,2.39.58,3.84v15.45h-6.85v-14.52c0-3.08-1.34-4.63-4.02-4.63-.52,0-1.04.07-1.55.21-.51.14-.96.35-1.36.65-.4.29-.72.66-.95,1.09-.23.43-.35.94-.35,1.53v15.68h-6.85Z"/><path class="cls-1" d="m728.72,333.26c-2.71,0-5.07-.44-7.08-1.33-2-.89-3.62-2.09-4.86-3.62l4.02-4.44c1.17,1.3,2.46,2.25,3.86,2.87,1.4.62,2.83.92,4.28.92,1.67,0,2.93-.37,3.79-1.12.86-.75,1.3-1.82,1.3-3.22,0-1.15-.33-2.02-.99-2.61-.66-.59-1.78-1.01-3.35-1.26l-3.38-.56c-2.9-.49-5-1.56-6.29-3.21-1.3-1.65-1.94-3.66-1.94-6.03,0-3.11,1.02-5.52,3.05-7.23,2.04-1.71,4.89-2.56,8.56-2.56,2.5,0,4.67.38,6.52,1.15s3.35,1.8,4.49,3.12l-3.93,4.38c-.86-.96-1.88-1.7-3.05-2.24-1.17-.54-2.5-.81-3.98-.81-3.12,0-4.67,1.29-4.67,3.87,0,1.12.35,1.96,1.04,2.52.69.56,1.83.98,3.4,1.26l3.38.6c2.62.46,4.64,1.45,6.06,2.96,1.42,1.51,2.13,3.54,2.13,6.1,0,1.51-.26,2.9-.79,4.18-.52,1.28-1.31,2.39-2.36,3.33-1.05.94-2.34,1.67-3.86,2.19s-3.31.79-5.34.79Z"/><path class="cls-1" d="m758.73,333.26c-1.88,0-3.57-.29-5.06-.86-1.5-.57-2.76-1.39-3.79-2.47-1.03-1.08-1.83-2.39-2.38-3.93-.56-1.54-.83-3.28-.83-5.23s.28-3.68.83-5.23c.56-1.54,1.35-2.85,2.38-3.93,1.03-1.08,2.3-1.9,3.79-2.47,1.5-.57,3.17-.86,5.02-.86,2.62,0,4.73.53,6.31,1.6,1.59,1.06,2.8,2.47,3.63,4.23l-5.27,2.87c-.43-.92-.99-1.7-1.69-2.31-.69-.62-1.69-.93-2.98-.93-1.57,0-2.78.46-3.63,1.36-.85.91-1.27,2.15-1.27,3.72v3.89c0,1.57.42,2.81,1.27,3.72.85.91,2.09,1.36,3.72,1.36,1.33,0,2.37-.31,3.12-.92.76-.62,1.4-1.42,1.92-2.41l5.18,2.96c-.86,1.76-2.12,3.17-3.77,4.23-1.65,1.06-3.82,1.6-6.5,1.6Z"/><path class="cls-1" d="m776.77,327.34h7.59v-13.14h-7.59v-5.37h14.43v18.5h7.03v5.37h-21.46v-5.37Zm11.01-21.55c-1.54,0-2.61-.32-3.21-.95-.6-.63-.9-1.4-.9-2.29v-1.34c0-.92.3-1.7.9-2.31.6-.62,1.67-.93,3.21-.93s2.61.31,3.21.93c.6.62.9,1.39.9,2.31v1.34c0,.89-.3,1.66-.9,2.29-.6.63-1.67.95-3.21.95Z"/><path class="cls-1" d="m815.49,333.26c-4.01,0-7.05-1.11-9.11-3.33-2.07-2.22-3.1-5.24-3.1-9.07,0-1.94.27-3.69.81-5.25.54-1.56,1.31-2.88,2.31-3.98,1-1.09,2.22-1.93,3.65-2.5,1.43-.57,3.04-.86,4.83-.86s3.39.29,4.81.86c1.42.57,2.62,1.38,3.61,2.43.99,1.05,1.75,2.32,2.29,3.82.54,1.5.81,3.17.81,5.02v2.04h-16.33v.42c0,1.54.48,2.78,1.43,3.72.96.94,2.36,1.41,4.21,1.41,1.42,0,2.64-.27,3.65-.81,1.02-.54,1.9-1.26,2.64-2.15l3.7,4.02c-.92,1.14-2.22,2.13-3.89,2.96-1.67.83-3.78,1.25-6.34,1.25Zm-.56-20.07c-1.48,0-2.66.46-3.54,1.36-.88.91-1.32,2.14-1.32,3.68v.37h9.62v-.37c0-1.57-.42-2.81-1.27-3.7-.85-.89-2.01-1.34-3.49-1.34Z"/><path class="cls-1" d="m832.51,332.71v-23.87h6.85v4.35h.28c.28-.68.62-1.31,1.02-1.9.4-.58.89-1.1,1.46-1.55.57-.45,1.23-.8,1.99-1.06.76-.26,1.61-.39,2.57-.39,1.14,0,2.19.19,3.15.58.96.39,1.77.96,2.45,1.73.68.77,1.21,1.71,1.6,2.82.39,1.11.58,2.39.58,3.84v15.45h-6.85v-14.52c0-3.08-1.34-4.63-4.02-4.63-.52,0-1.04.07-1.55.21-.51.14-.96.35-1.36.65-.4.29-.72.66-.95,1.09-.23.43-.35.94-.35,1.53v15.68h-6.85Z"/><path class="cls-1" d="m873.77,332.71c-2.47,0-4.3-.65-5.5-1.94s-1.8-2.94-1.8-4.94v-11.63h-6.48v-5.37h4.21c1.02,0,1.74-.2,2.17-.6.43-.4.65-1.14.65-2.22v-5.6h6.29v8.42h9.3v5.37h-9.3v13.14h9.3v5.37h-8.83Z"/><path class="cls-1" d="m890.93,327.34h7.59v-13.14h-7.59v-5.37h14.43v18.5h7.03v5.37h-21.46v-5.37Zm11.01-21.55c-1.54,0-2.61-.32-3.21-.95-.6-.63-.9-1.4-.9-2.29v-1.34c0-.92.3-1.7.9-2.31.6-.62,1.67-.93,3.21-.93s2.61.31,3.21.93c.6.62.9,1.39.9,2.31v1.34c0,.89-.3,1.66-.9,2.29-.6.63-1.67.95-3.21.95Z"/><path class="cls-1" d="m918.4,327.34h7.03v-13.14h-7.49v-5.37h7.49v-3.47c0-2.04.59-3.69,1.78-4.97,1.19-1.28,3.03-1.92,5.53-1.92h8.09v5.37h-8.56v5h8.56v5.37h-8.56v13.14h7.49v5.37h-21.37v-5.37Z"/><path class="cls-1" d="m948,327.34h7.59v-13.14h-7.59v-5.37h14.43v18.5h7.03v5.37h-21.46v-5.37Zm11.01-21.55c-1.54,0-2.61-.32-3.21-.95-.6-.63-.9-1.4-.9-2.29v-1.34c0-.92.3-1.7.9-2.31.6-.62,1.67-.93,3.21-.93s2.61.31,3.21.93c.6.62.9,1.39.9,2.31v1.34c0,.89-.3,1.66-.9,2.29-.6.63-1.67.95-3.21.95Z"/><path class="cls-1" d="m987.04,333.26c-1.88,0-3.57-.29-5.06-.86-1.5-.57-2.76-1.39-3.79-2.47-1.03-1.08-1.83-2.39-2.38-3.93-.56-1.54-.83-3.28-.83-5.23s.28-3.68.83-5.23c.56-1.54,1.35-2.85,2.38-3.93,1.03-1.08,2.3-1.9,3.79-2.47,1.5-.57,3.17-.86,5.02-.86,2.62,0,4.73.53,6.31,1.6,1.59,1.06,2.8,2.47,3.63,4.23l-5.27,2.87c-.43-.92-.99-1.7-1.69-2.31-.69-.62-1.69-.93-2.98-.93-1.57,0-2.78.46-3.63,1.36-.85.91-1.27,2.15-1.27,3.72v3.89c0,1.57.42,2.81,1.27,3.72.85.91,2.09,1.36,3.72,1.36,1.33,0,2.37-.31,3.12-.92.76-.62,1.4-1.42,1.92-2.41l5.18,2.96c-.86,1.76-2.12,3.17-3.77,4.23-1.65,1.06-3.82,1.6-6.5,1.6Z"/><path class="cls-1" d="m1038.85,333.26c-1.45,0-2.73-.25-3.84-.76-1.11-.51-2.04-1.19-2.8-2.04-.76-.85-1.33-1.83-1.71-2.96-.39-1.12-.58-2.32-.58-3.58,0-1.94.46-3.64,1.39-5.09.93-1.45,2.28-2.7,4.07-3.75-.99-1.39-1.73-2.62-2.24-3.7-.51-1.08-.76-2.2-.76-3.38s.22-2.21.67-3.21c.45-1,1.08-1.87,1.9-2.59.82-.72,1.77-1.29,2.87-1.71,1.09-.42,2.29-.62,3.58-.62,1.14,0,2.2.16,3.19.49.99.32,1.86.75,2.61,1.27.75.52,1.39,1.13,1.9,1.83s.89,1.41,1.13,2.15l-4.72,2.54c-.34-.99-.86-1.77-1.57-2.34-.71-.57-1.53-.86-2.45-.86s-1.67.28-2.24.83c-.57.55-.86,1.28-.86,2.17v.23c0,.43.06.84.19,1.23.12.39.34.82.65,1.29.31.48.7,1.03,1.18,1.67.48.63,1.09,1.41,1.83,2.34l2.64,3.33,2.22,3.42h.28c.09-.52.17-1.1.23-1.73.06-.63.12-1.28.16-1.94.05-.66.08-1.31.09-1.94.02-.63.02-1.21.02-1.73h8.23v5.09h-3.24c-.15.99-.39,2-.69,3.03-.31,1.03-.71,2.09-1.2,3.17l6.01,7.31h-7.31l-3.7-4.49h-.32c-.22,1.57-.92,2.81-2.13,3.7-1.2.89-2.76,1.34-4.67,1.34Zm1.71-5.23c.71,0,1.37-.13,1.99-.39.62-.26,1.14-.75,1.57-1.46l-5.97-7.59c-.8.77-1.33,1.55-1.57,2.34-.25.79-.37,1.63-.37,2.52v.09c0,1.48.39,2.6,1.18,3.35s1.84,1.13,3.17,1.13Z"/><path class="cls-1" d="m1096.71,332.71h-6.85v-32.29h12.49c1.57,0,2.98.24,4.21.72,1.23.48,2.27,1.16,3.12,2.06.85.89,1.49,1.97,1.92,3.24.43,1.26.65,2.68.65,4.26,0,2.28-.49,4.24-1.48,5.87-.99,1.63-2.39,2.71-4.21,3.24l6.34,12.9h-7.59l-5.41-11.98h-3.19v11.98Zm3.98-17.35c1.63,0,2.77-.31,3.4-.93.63-.62.95-1.63.95-3.05v-1.39c0-1.42-.32-2.44-.95-3.05-.63-.62-1.77-.93-3.4-.93h-3.98v9.34h3.98Z"/><path class="cls-1" d="m1129.41,333.26c-4.01,0-7.05-1.11-9.11-3.33-2.07-2.22-3.1-5.24-3.1-9.07,0-1.94.27-3.69.81-5.25.54-1.56,1.31-2.88,2.31-3.98,1-1.09,2.22-1.93,3.65-2.5,1.43-.57,3.04-.86,4.83-.86s3.39.29,4.81.86c1.42.57,2.62,1.38,3.61,2.43.99,1.05,1.75,2.32,2.29,3.82.54,1.5.81,3.17.81,5.02v2.04h-16.33v.42c0,1.54.48,2.78,1.43,3.72.96.94,2.36,1.41,4.21,1.41,1.42,0,2.64-.27,3.65-.81,1.02-.54,1.9-1.26,2.64-2.15l3.7,4.02c-.92,1.14-2.22,2.13-3.89,2.96-1.67.83-3.78,1.25-6.34,1.25Zm-.55-20.07c-1.48,0-2.66.46-3.54,1.36-.88.91-1.32,2.14-1.32,3.68v.37h9.62v-.37c0-1.57-.42-2.81-1.27-3.7-.85-.89-2.01-1.34-3.49-1.34Z"/><path class="cls-1" d="m1157.02,333.26c-2.65,0-4.96-.4-6.92-1.2s-3.43-1.9-4.42-3.28l3.84-3.56c.92,1.02,2.01,1.81,3.26,2.38,1.25.57,2.67.86,4.28.86,1.36,0,2.42-.21,3.19-.62.77-.42,1.16-1.06,1.16-1.92,0-.68-.26-1.15-.79-1.41-.53-.26-1.25-.47-2.17-.62l-3.84-.6c-1.08-.15-2.08-.39-3.01-.72-.93-.32-1.73-.76-2.41-1.32-.68-.56-1.22-1.23-1.62-2.04-.4-.8-.6-1.77-.6-2.91,0-2.5.96-4.46,2.87-5.87,1.91-1.42,4.59-2.13,8.05-2.13,2.34,0,4.34.32,5.99.95,1.65.63,2.97,1.53,3.95,2.71l-3.42,3.89c-.71-.77-1.62-1.42-2.73-1.94-1.11-.52-2.45-.79-4.02-.79-2.65,0-3.98.8-3.98,2.41,0,.71.26,1.2.79,1.46.52.26,1.25.47,2.17.62l3.79.6c1.08.15,2.08.39,3.01.72s1.73.76,2.43,1.32c.69.56,1.24,1.23,1.64,2.04.4.8.6,1.77.6,2.91,0,2.5-.96,4.47-2.89,5.92-1.93,1.45-4.66,2.17-8.21,2.17Z"/><path class="cls-1" d="m1186.49,333.26c-4.01,0-7.05-1.11-9.11-3.33-2.07-2.22-3.1-5.24-3.1-9.07,0-1.94.27-3.69.81-5.25.54-1.56,1.31-2.88,2.31-3.98,1-1.09,2.22-1.93,3.65-2.5,1.43-.57,3.04-.86,4.83-.86s3.39.29,4.81.86c1.42.57,2.62,1.38,3.61,2.43.99,1.05,1.75,2.32,2.29,3.82.54,1.5.81,3.17.81,5.02v2.04h-16.33v.42c0,1.54.48,2.78,1.43,3.72.96.94,2.36,1.41,4.21,1.41,1.42,0,2.64-.27,3.65-.81,1.02-.54,1.9-1.26,2.64-2.15l3.7,4.02c-.92,1.14-2.22,2.13-3.89,2.96-1.67.83-3.78,1.25-6.34,1.25Zm-.55-20.07c-1.48,0-2.66.46-3.54,1.36-.88.91-1.32,2.14-1.32,3.68v.37h9.62v-.37c0-1.57-.42-2.81-1.27-3.7-.85-.89-2.01-1.34-3.49-1.34Z"/><path class="cls-1" d="m1223.03,332.71c-1.42,0-2.56-.36-3.42-1.09-.86-.72-1.37-1.76-1.53-3.12h-.23c-.43,1.57-1.29,2.76-2.57,3.56-1.28.8-2.84,1.2-4.7,1.2-2.31,0-4.17-.62-5.57-1.87s-2.1-3-2.1-5.25c0-2.5.91-4.35,2.73-5.55s4.49-1.8,8-1.8h3.84v-1.2c0-1.42-.33-2.49-1-3.21-.66-.72-1.78-1.09-3.35-1.09-1.45,0-2.62.28-3.52.83-.89.56-1.67,1.28-2.31,2.17l-3.75-3.33c.8-1.36,2.06-2.47,3.77-3.35,1.71-.88,3.91-1.32,6.59-1.32,3.27,0,5.82.75,7.66,2.24,1.83,1.5,2.75,3.75,2.75,6.78v10.45h2.64v4.95h-3.93Zm-9.85-3.93c1.2,0,2.22-.29,3.05-.88.83-.58,1.25-1.43,1.25-2.54v-2.87h-3.65c-2.81,0-4.21.94-4.21,2.82v.92c0,.83.32,1.46.97,1.9.65.43,1.51.65,2.59.65Z"/><path class="cls-1" d="m1232.47,327.34h5.5v-13.14h-5.5v-5.37h12.35v6.75h.32c.21-.86.52-1.7.9-2.52.39-.82.88-1.54,1.48-2.17.6-.63,1.33-1.13,2.2-1.5.86-.37,1.88-.56,3.05-.56h2.27v6.29h-5.09c-1.7,0-2.98.5-3.84,1.5-.86,1-1.3,2.22-1.3,3.66v7.05h7.86v5.37h-20.21v-5.37Z"/><path class="cls-1" d="m1272.43,333.26c-1.88,0-3.57-.29-5.06-.86-1.5-.57-2.76-1.39-3.79-2.47-1.03-1.08-1.83-2.39-2.38-3.93-.55-1.54-.83-3.28-.83-5.23s.28-3.68.83-5.23c.56-1.54,1.35-2.85,2.38-3.93,1.03-1.08,2.3-1.9,3.79-2.47,1.5-.57,3.17-.86,5.02-.86,2.62,0,4.72.53,6.31,1.6,1.59,1.06,2.8,2.47,3.63,4.23l-5.27,2.87c-.43-.92-.99-1.7-1.69-2.31-.69-.62-1.69-.93-2.98-.93-1.57,0-2.78.46-3.63,1.36-.85.91-1.27,2.15-1.27,3.72v3.89c0,1.57.42,2.81,1.27,3.72.85.91,2.09,1.36,3.72,1.36,1.33,0,2.37-.31,3.12-.92.76-.62,1.4-1.42,1.92-2.41l5.18,2.96c-.86,1.76-2.12,3.17-3.77,4.23-1.65,1.06-3.82,1.6-6.5,1.6Z"/><path class="cls-1" d="m1289.13,298.48h6.85v14.71h.28c.28-.68.62-1.31,1.02-1.9.4-.58.89-1.1,1.46-1.55.57-.45,1.23-.8,1.99-1.06.75-.26,1.61-.39,2.57-.39,1.14,0,2.19.19,3.15.58.96.39,1.77.96,2.45,1.73.68.77,1.21,1.71,1.6,2.82.39,1.11.58,2.39.58,3.84v15.45h-6.85v-14.52c0-3.08-1.34-4.63-4.02-4.63-.52,0-1.04.07-1.55.21-.51.14-.96.35-1.36.65-.4.29-.72.66-.95,1.09-.23.43-.35.94-.35,1.53v15.68h-6.85v-34.23Z"/><path class="cls-1" d="m465.95,398.31c-1.85,0-3.52-.29-5-.86s-2.74-1.39-3.77-2.47c-1.03-1.08-1.83-2.39-2.38-3.93-.56-1.54-.83-3.28-.83-5.23s.28-3.68.83-5.23,1.35-2.85,2.38-3.93c1.03-1.08,2.29-1.9,3.77-2.47,1.48-.57,3.15-.86,5-.86s3.52.29,5,.86c1.48.57,2.74,1.4,3.77,2.47,1.03,1.08,1.83,2.39,2.38,3.93.56,1.54.83,3.28.83,5.23s-.28,3.69-.83,5.23c-.55,1.54-1.35,2.85-2.38,3.93-1.03,1.08-2.29,1.9-3.77,2.47-1.48.57-3.15.86-5,.86Zm0-5.09c1.54,0,2.74-.48,3.61-1.43.86-.96,1.29-2.31,1.29-4.07v-3.79c0-1.76-.43-3.11-1.29-4.07-.86-.96-2.07-1.43-3.61-1.43s-2.75.48-3.61,1.43c-.86.96-1.3,2.31-1.3,4.07v3.79c0,1.76.43,3.12,1.3,4.07.86.96,2.07,1.43,3.61,1.43Z"/><path class="cls-1" d="m483.34,373.88h6.85v4.39h.32c.59-1.43,1.43-2.61,2.54-3.55,1.11-.93,2.62-1.4,4.53-1.4,1.33,0,2.54.25,3.63.74,1.09.49,2.04,1.25,2.82,2.27.79,1.02,1.4,2.31,1.85,3.89.45,1.57.67,3.44.67,5.6s-.22,4.02-.67,5.6c-.45,1.57-1.06,2.87-1.85,3.89-.79,1.02-1.73,1.77-2.82,2.27-1.1.49-2.31.74-3.63.74-1.91,0-3.42-.46-4.53-1.38-1.11-.92-1.96-2.11-2.54-3.57h-.32v13.64h-6.85v-33.12Zm11.29,19.06c1.54,0,2.73-.47,3.56-1.4s1.25-2.23,1.25-3.88v-3.68c0-1.65-.42-2.95-1.25-3.88s-2.02-1.4-3.56-1.4c-1.2,0-2.24.29-3.12.87-.88.58-1.32,1.5-1.32,2.76v6.99c0,1.26.44,2.17,1.32,2.76.88.58,1.92.87,3.12.87Z"/><path class="cls-1" d="m523.68,398.31c-4.01,0-7.05-1.11-9.11-3.33-2.07-2.22-3.1-5.24-3.1-9.07,0-1.94.27-3.69.81-5.25.54-1.56,1.31-2.88,2.31-3.98,1-1.09,2.22-1.93,3.65-2.5,1.43-.57,3.04-.86,4.83-.86s3.39.29,4.81.86c1.42.57,2.62,1.38,3.61,2.43.99,1.05,1.75,2.32,2.29,3.82.54,1.5.81,3.17.81,5.02v2.04h-16.33v.42c0,1.54.48,2.78,1.43,3.72.96.94,2.36,1.41,4.21,1.41,1.42,0,2.64-.27,3.65-.81,1.02-.54,1.9-1.26,2.64-2.15l3.7,4.02c-.92,1.14-2.22,2.13-3.89,2.96-1.67.83-3.78,1.25-6.34,1.25Zm-.56-20.07c-1.48,0-2.66.46-3.54,1.37-.88.91-1.32,2.14-1.32,3.68v.37h9.62v-.37c0-1.57-.42-2.81-1.27-3.7-.85-.89-2.01-1.34-3.49-1.34Z"/><path class="cls-1" d="m540.7,397.75v-23.87h6.85v4.35h.28c.28-.68.62-1.31,1.02-1.9.4-.58.89-1.1,1.46-1.55.57-.45,1.23-.8,1.99-1.06.76-.26,1.61-.39,2.57-.39,1.14,0,2.19.19,3.15.58.96.39,1.77.96,2.45,1.73.68.77,1.21,1.71,1.6,2.82.39,1.11.58,2.39.58,3.84v15.45h-6.85v-14.52c0-3.08-1.34-4.63-4.02-4.63-.52,0-1.04.07-1.55.21-.51.14-.96.36-1.36.65-.4.29-.72.66-.95,1.09-.23.43-.35.94-.35,1.53v15.68h-6.85Z"/><path class="cls-1" d="m572.71,386.93v-6.57h14.8v6.57h-14.8Z"/><path class="cls-1" d="m608.37,398.31c-2.65,0-4.96-.4-6.92-1.2-1.96-.8-3.43-1.9-4.42-3.28l3.84-3.56c.93,1.02,2.01,1.81,3.26,2.38,1.25.57,2.67.86,4.28.86,1.36,0,2.42-.21,3.19-.62.77-.42,1.16-1.06,1.16-1.92,0-.68-.26-1.15-.79-1.41-.52-.26-1.25-.47-2.17-.62l-3.84-.6c-1.08-.15-2.08-.39-3.01-.72-.93-.32-1.73-.76-2.41-1.32-.68-.56-1.22-1.23-1.62-2.04-.4-.8-.6-1.77-.6-2.91,0-2.5.96-4.46,2.87-5.87,1.91-1.42,4.59-2.13,8.05-2.13,2.34,0,4.34.32,5.99.95,1.65.63,2.97,1.53,3.95,2.71l-3.42,3.88c-.71-.77-1.62-1.42-2.73-1.94-1.11-.52-2.45-.79-4.02-.79-2.65,0-3.98.8-3.98,2.41,0,.71.26,1.2.79,1.46.52.26,1.25.47,2.17.62l3.79.6c1.08.15,2.08.39,3.01.72.92.32,1.73.76,2.43,1.32.69.55,1.24,1.23,1.64,2.04.4.8.6,1.77.6,2.91,0,2.5-.96,4.47-2.89,5.92-1.93,1.45-4.66,2.17-8.21,2.17Z"/><path class="cls-1" d="m637.19,398.31c-1.85,0-3.52-.29-5-.86s-2.74-1.39-3.77-2.47c-1.03-1.08-1.83-2.39-2.38-3.93-.56-1.54-.83-3.28-.83-5.23s.28-3.68.83-5.23,1.35-2.85,2.38-3.93c1.03-1.08,2.29-1.9,3.77-2.47,1.48-.57,3.15-.86,5-.86s3.52.29,5,.86c1.48.57,2.74,1.4,3.77,2.47,1.03,1.08,1.83,2.39,2.38,3.93.56,1.54.83,3.28.83,5.23s-.28,3.69-.83,5.23c-.55,1.54-1.35,2.85-2.38,3.93-1.03,1.08-2.29,1.9-3.77,2.47-1.48.57-3.15.86-5,.86Zm0-5.09c1.54,0,2.74-.48,3.61-1.43.86-.96,1.29-2.31,1.29-4.07v-3.79c0-1.76-.43-3.11-1.29-4.07-.86-.96-2.07-1.43-3.61-1.43s-2.75.48-3.61,1.43c-.86.96-1.3,2.31-1.3,4.07v3.79c0,1.76.43,3.12,1.3,4.07.86.96,2.07,1.43,3.61,1.43Z"/><path class="cls-1" d="m669.75,393.4h-.28c-.52,1.36-1.35,2.51-2.47,3.47-1.13.96-2.64,1.43-4.56,1.43-1.14,0-2.19-.19-3.15-.58-.96-.38-1.77-.96-2.45-1.73-.68-.77-1.21-1.71-1.6-2.82-.39-1.11-.58-2.39-.58-3.84v-15.45h6.85v14.52c0,3.08,1.34,4.63,4.02,4.63.52,0,1.04-.07,1.55-.21s.96-.35,1.34-.65c.39-.29.7-.66.95-1.09.25-.43.37-.94.37-1.53v-15.68h6.85v23.87h-6.85v-4.35Z"/><path class="cls-1" d="m683.81,392.39h5.5v-13.14h-5.5v-5.37h12.35v6.75h.32c.22-.86.52-1.7.9-2.52.39-.82.88-1.54,1.48-2.17.6-.63,1.33-1.13,2.2-1.5.86-.37,1.88-.56,3.05-.56h2.27v6.29h-5.09c-1.7,0-2.98.5-3.84,1.5-.86,1-1.29,2.22-1.29,3.66v7.05h7.86v5.37h-20.21v-5.37Z"/><path class="cls-1" d="m723.77,398.31c-1.88,0-3.57-.29-5.06-.86-1.5-.57-2.76-1.39-3.79-2.47-1.03-1.08-1.83-2.39-2.38-3.93-.56-1.54-.83-3.28-.83-5.23s.28-3.68.83-5.23,1.35-2.85,2.38-3.93c1.03-1.08,2.3-1.9,3.79-2.47,1.5-.57,3.17-.86,5.02-.86,2.62,0,4.73.53,6.31,1.6,1.59,1.06,2.8,2.47,3.63,4.23l-5.27,2.87c-.43-.92-.99-1.7-1.69-2.31-.69-.62-1.69-.92-2.98-.92-1.57,0-2.78.46-3.63,1.36-.85.91-1.27,2.15-1.27,3.72v3.88c0,1.57.42,2.81,1.27,3.72.85.91,2.09,1.36,3.72,1.36,1.33,0,2.37-.31,3.12-.92.76-.62,1.4-1.42,1.92-2.41l5.18,2.96c-.86,1.76-2.12,3.17-3.77,4.23-1.65,1.06-3.82,1.6-6.5,1.6Z"/><path class="cls-1" d="m751.99,398.31c-4.01,0-7.05-1.11-9.11-3.33-2.07-2.22-3.1-5.24-3.1-9.07,0-1.94.27-3.69.81-5.25.54-1.56,1.31-2.88,2.31-3.98,1-1.09,2.22-1.93,3.65-2.5,1.43-.57,3.04-.86,4.83-.86s3.39.29,4.81.86c1.42.57,2.62,1.38,3.61,2.43.99,1.05,1.75,2.32,2.29,3.82.54,1.5.81,3.17.81,5.02v2.04h-16.33v.42c0,1.54.48,2.78,1.43,3.72.96.94,2.36,1.41,4.21,1.41,1.42,0,2.64-.27,3.65-.81,1.02-.54,1.9-1.26,2.64-2.15l3.7,4.02c-.92,1.14-2.22,2.13-3.89,2.96-1.67.83-3.78,1.25-6.34,1.25Zm-.56-20.07c-1.48,0-2.66.46-3.54,1.37-.88.91-1.32,2.14-1.32,3.68v.37h9.62v-.37c0-1.57-.42-2.81-1.27-3.7-.85-.89-2.01-1.34-3.49-1.34Z"/><path class="cls-1" d="m808.14,398.31c-2.65,0-4.96-.4-6.92-1.2-1.96-.8-3.43-1.9-4.42-3.28l3.84-3.56c.93,1.02,2.01,1.81,3.26,2.38,1.25.57,2.67.86,4.28.86,1.36,0,2.42-.21,3.19-.62.77-.42,1.16-1.06,1.16-1.92,0-.68-.26-1.15-.79-1.41-.52-.26-1.25-.47-2.17-.62l-3.84-.6c-1.08-.15-2.08-.39-3.01-.72-.93-.32-1.73-.76-2.41-1.32-.68-.56-1.22-1.23-1.62-2.04-.4-.8-.6-1.77-.6-2.91,0-2.5.96-4.46,2.87-5.87,1.91-1.42,4.59-2.13,8.05-2.13,2.34,0,4.34.32,5.99.95,1.65.63,2.97,1.53,3.95,2.71l-3.42,3.88c-.71-.77-1.62-1.42-2.73-1.94-1.11-.52-2.45-.79-4.02-.79-2.65,0-3.98.8-3.98,2.41,0,.71.26,1.2.79,1.46.52.26,1.25.47,2.17.62l3.79.6c1.08.15,2.08.39,3.01.72.92.32,1.73.76,2.43,1.32.69.55,1.24,1.23,1.64,2.04.4.8.6,1.77.6,2.91,0,2.5-.96,4.47-2.89,5.92-1.93,1.45-4.66,2.17-8.21,2.17Z"/><path class="cls-1" d="m836.96,398.31c-1.85,0-3.52-.29-5-.86s-2.74-1.39-3.77-2.47c-1.03-1.08-1.83-2.39-2.38-3.93-.56-1.54-.83-3.28-.83-5.23s.28-3.68.83-5.23,1.35-2.85,2.38-3.93c1.03-1.08,2.29-1.9,3.77-2.47,1.48-.57,3.15-.86,5-.86s3.52.29,5,.86c1.48.57,2.74,1.4,3.77,2.47,1.03,1.08,1.83,2.39,2.38,3.93.56,1.54.83,3.28.83,5.23s-.28,3.69-.83,5.23c-.55,1.54-1.35,2.85-2.38,3.93-1.03,1.08-2.29,1.9-3.77,2.47-1.48.57-3.15.86-5,.86Zm0-5.09c1.54,0,2.74-.48,3.61-1.43.86-.96,1.29-2.31,1.29-4.07v-3.79c0-1.76-.43-3.11-1.29-4.07-.86-.96-2.07-1.43-3.61-1.43s-2.75.48-3.61,1.43c-.86.96-1.3,2.31-1.3,4.07v3.79c0,1.76.43,3.12,1.3,4.07.86.96,2.07,1.43,3.61,1.43Z"/><path class="cls-1" d="m854.9,392.39h7.03v-13.14h-7.49v-5.37h7.49v-3.47c0-2.04.59-3.69,1.78-4.97,1.19-1.28,3.03-1.92,5.53-1.92h8.09v5.37h-8.56v5h8.56v5.37h-8.56v13.14h7.49v5.37h-21.37v-5.37Z"/><path class="cls-1" d="m895.88,397.75c-2.47,0-4.3-.65-5.5-1.94s-1.8-2.94-1.8-4.94v-11.63h-6.48v-5.37h4.21c1.02,0,1.74-.2,2.17-.6.43-.4.65-1.14.65-2.22v-5.6h6.29v8.42h9.3v5.37h-9.3v13.14h9.3v5.37h-8.83Z"/><path class="cls-1" d="m909.02,373.88h5.69l1.71,19.33h.46l2.82-19.33h6.01l2.78,19.33h.46l1.76-19.33h5.41l-2.82,23.87h-8.14l-2.36-16.47h-.46l-2.36,16.47h-8.14l-2.82-23.87Z"/><path class="cls-1" d="m959.76,397.75c-1.42,0-2.56-.36-3.42-1.09-.86-.72-1.37-1.76-1.53-3.12h-.23c-.43,1.57-1.29,2.76-2.57,3.56-1.28.8-2.84,1.2-4.69,1.2-2.31,0-4.17-.62-5.57-1.87-1.4-1.25-2.1-3-2.1-5.25,0-2.5.91-4.35,2.73-5.55,1.82-1.2,4.49-1.8,8-1.8h3.84v-1.2c0-1.42-.33-2.49-.99-3.21-.66-.72-1.78-1.09-3.35-1.09-1.45,0-2.62.28-3.52.83-.9.55-1.67,1.28-2.31,2.17l-3.75-3.33c.8-1.36,2.06-2.47,3.77-3.35s3.91-1.32,6.59-1.32c3.27,0,5.82.75,7.66,2.24,1.83,1.5,2.75,3.75,2.75,6.78v10.45h2.64v4.95h-3.93Zm-9.85-3.93c1.2,0,2.22-.29,3.05-.88.83-.58,1.25-1.43,1.25-2.54v-2.87h-3.65c-2.81,0-4.21.94-4.21,2.82v.92c0,.83.32,1.46.97,1.9s1.51.65,2.59.65Z"/><path class="cls-1" d="m969.19,392.39h5.5v-13.14h-5.5v-5.37h12.35v6.75h.32c.22-.86.52-1.7.9-2.52.39-.82.88-1.54,1.48-2.17.6-.63,1.33-1.13,2.2-1.5.86-.37,1.88-.56,3.05-.56h2.27v6.29h-5.09c-1.7,0-2.98.5-3.84,1.5-.86,1-1.29,2.22-1.29,3.66v7.05h7.86v5.37h-20.21v-5.37Z"/><path class="cls-1" d="m1008.83,398.31c-4.01,0-7.05-1.11-9.11-3.33-2.07-2.22-3.1-5.24-3.1-9.07,0-1.94.27-3.69.81-5.25.54-1.56,1.31-2.88,2.31-3.98,1-1.09,2.22-1.93,3.65-2.5,1.43-.57,3.04-.86,4.83-.86s3.39.29,4.81.86c1.42.57,2.62,1.38,3.61,2.43.99,1.05,1.75,2.32,2.29,3.82.54,1.5.81,3.17.81,5.02v2.04h-16.33v.42c0,1.54.48,2.78,1.43,3.72.96.94,2.36,1.41,4.21,1.41,1.42,0,2.64-.27,3.65-.81,1.02-.54,1.9-1.26,2.64-2.15l3.7,4.02c-.92,1.14-2.22,2.13-3.89,2.96-1.67.83-3.78,1.25-6.34,1.25Zm-.56-20.07c-1.48,0-2.66.46-3.54,1.37-.88.91-1.32,2.14-1.32,3.68v.37h9.62v-.37c0-1.57-.42-2.81-1.27-3.7-.85-.89-2.01-1.34-3.49-1.34Z"/><path class="cls-1" d="m1055.32,386.84v-6.38l19.89-10.64v6.38l-13.74,7.26v.37l13.74,7.26v6.38l-19.89-10.64Z"/><path class="cls-1" d="m1083.86,386.84v-6.38l19.89-10.64v6.38l-13.74,7.26v.37l13.74,7.26v6.38l-19.89-10.64Z"/><path class="cls-1" d="m864.93,118.87v39.73c0,1.98.07,3.79.22,5.44.15,1.65.51,3.04,1.08,4.18.57,1.14,1.42,2.02,2.56,2.65,1.14.63,2.7.94,4.67.94s3.54-.31,4.67-.94c1.14-.63,1.99-1.51,2.56-2.65.57-1.14.93-2.53,1.08-4.18.15-1.65.22-3.46.22-5.44v-39.73h13.48v37.93c0,4.31-.29,8.09-.85,11.33-.57,3.24-1.66,5.93-3.28,8.09-1.62,2.16-3.86,3.77-6.74,4.85-2.88,1.08-6.59,1.62-11.15,1.62s-8.27-.54-11.15-1.62c-2.88-1.08-5.12-2.7-6.74-4.85-1.62-2.16-2.71-4.85-3.28-8.09-.57-3.24-.85-7.01-.85-11.33v-37.93h13.48Z"/><path class="cls-1" d="m928.39,182.69c-5.15,0-9.63-.78-13.44-2.34-3.81-1.56-6.67-3.69-8.58-6.38l7.46-6.92c1.8,1.98,3.91,3.52,6.34,4.63,2.43,1.11,5.2,1.66,8.31,1.66,2.64,0,4.7-.4,6.2-1.21,1.5-.81,2.25-2.05,2.25-3.73,0-1.32-.51-2.23-1.53-2.74-1.02-.51-2.43-.91-4.22-1.21l-7.46-1.17c-2.1-.3-4.04-.76-5.84-1.39-1.8-.63-3.36-1.48-4.67-2.56-1.32-1.08-2.37-2.4-3.15-3.95-.78-1.56-1.17-3.45-1.17-5.66,0-4.85,1.86-8.66,5.57-11.42,3.71-2.76,8.93-4.13,15.64-4.13,4.55,0,8.43.62,11.64,1.84,3.21,1.23,5.77,2.98,7.69,5.26l-6.65,7.55c-1.38-1.5-3.15-2.76-5.3-3.77-2.16-1.02-4.76-1.53-7.82-1.53-5.15,0-7.73,1.56-7.73,4.67,0,1.38.51,2.32,1.53,2.83,1.02.51,2.43.91,4.22,1.21l7.37,1.17c2.1.3,4.04.76,5.84,1.39,1.8.63,3.37,1.48,4.72,2.56,1.35,1.08,2.41,2.4,3.19,3.95.78,1.56,1.17,3.45,1.17,5.66,0,4.85-1.87,8.69-5.62,11.51-3.75,2.82-9.06,4.22-15.95,4.22Z"/><path class="cls-1" d="m1001.19,181.61c-2.76,0-4.97-.7-6.65-2.11-1.68-1.41-2.67-3.43-2.97-6.07h-.45c-.84,3.06-2.5,5.36-4.99,6.92-2.49,1.56-5.53,2.34-9.12,2.34-4.49,0-8.11-1.21-10.83-3.64-2.73-2.43-4.09-5.83-4.09-10.2,0-4.85,1.77-8.45,5.3-10.79,3.53-2.34,8.72-3.51,15.55-3.51h7.46v-2.34c0-2.76-.64-4.84-1.93-6.25-1.29-1.41-3.46-2.11-6.52-2.11-2.82,0-5.09.54-6.83,1.62-1.74,1.08-3.24,2.49-4.49,4.22l-7.28-6.47c1.56-2.64,4-4.81,7.33-6.52,3.33-1.71,7.6-2.56,12.81-2.56,6.35,0,11.31,1.45,14.88,4.36,3.56,2.91,5.35,7.3,5.35,13.17v20.31h5.12v9.62h-7.64Zm-19.15-7.64c2.34,0,4.31-.57,5.93-1.71,1.62-1.14,2.43-2.79,2.43-4.94v-5.57h-7.1c-5.45,0-8.18,1.83-8.18,5.48v1.8c0,1.62.63,2.85,1.89,3.69,1.26.84,2.94,1.26,5.03,1.26Z"/><path class="cls-1" d="m1018.18,115.09h13.3v28.67h.63c1.14-2.78,2.79-5.08,4.94-6.89,2.16-1.81,5.09-2.72,8.81-2.72,2.58,0,4.93.48,7.06,1.44,2.13.96,3.96,2.43,5.48,4.4,1.53,1.98,2.73,4.49,3.6,7.55.87,3.06,1.3,6.68,1.3,10.88s-.44,7.82-1.3,10.88c-.87,3.06-2.07,5.57-3.6,7.55-1.53,1.98-3.36,3.45-5.48,4.4-2.13.96-4.48,1.44-7.06,1.44-3.72,0-6.65-.89-8.81-2.67-2.16-1.78-3.81-4.1-4.94-6.94h-.63v8.53h-13.3v-66.52Zm21.93,57.17c3,0,5.3-.91,6.92-2.72s2.43-4.33,2.43-7.55v-7.14c0-3.21-.81-5.73-2.43-7.55s-3.93-2.72-6.92-2.72c-2.34,0-4.36.57-6.07,1.7-1.71,1.13-2.56,2.92-2.56,5.36v13.58c0,2.44.85,4.23,2.56,5.36,1.71,1.13,3.73,1.7,6.07,1.7Z"/><path class="cls-1" d="m1076.78,171.18h14.74v-25.53h-14.74v-10.43h28.04v35.95h13.66v10.43h-41.71v-10.43Zm21.39-41.89c-3,0-5.08-.61-6.25-1.84-1.17-1.23-1.75-2.71-1.75-4.45v-2.61c0-1.8.58-3.29,1.75-4.49,1.17-1.2,3.25-1.8,6.25-1.8s5.08.6,6.25,1.8c1.17,1.2,1.75,2.7,1.75,4.49v2.61c0,1.74-.58,3.22-1.75,4.45-1.17,1.23-3.25,1.84-6.25,1.84Z"/><path class="cls-1" d="m1129.91,171.18h14.2v-45.66h-14.2v-10.43h27.5v56.09h14.2v10.43h-41.71v-10.43Z"/><path class="cls-1" d="m1187.7,171.18h14.74v-25.53h-14.74v-10.43h28.04v35.95h13.66v10.43h-41.71v-10.43Zm21.39-41.89c-3,0-5.08-.61-6.25-1.84-1.17-1.23-1.75-2.71-1.75-4.45v-2.61c0-1.8.58-3.29,1.75-4.49,1.17-1.2,3.25-1.8,6.25-1.8s5.08.6,6.25,1.8c1.17,1.2,1.75,2.7,1.75,4.49v2.61c0,1.74-.58,3.22-1.75,4.45-1.17,1.23-3.25,1.84-6.25,1.84Z"/><path class="cls-1" d="m1265.27,181.61c-4.79,0-8.36-1.25-10.7-3.77-2.34-2.51-3.51-5.71-3.51-9.59v-22.6h-12.58v-10.43h8.18c1.98,0,3.38-.39,4.22-1.17.84-.78,1.26-2.22,1.26-4.31v-10.88h12.22v16.36h18.07v10.43h-18.07v25.53h18.07v10.43h-17.17Z"/><path class="cls-1" d="m1328.82,135.23h13.57l-21.84,53.84c-1.38,3.42-3.21,6.02-5.48,7.82-2.28,1.8-5.39,2.7-9.35,2.7h-9.17v-10.43h11.15l2.88-7.82-18.7-46.11h14.29l6.74,19.51,4.22,13.48h.72l4.04-13.48,6.92-19.51Z"/><path class="cls-2" d="m642.25,228.73c-7.91,1.58-15.16,1.58-21.77.01-6.61-1.57-12.43-4.25-17.48-8.06-5.04-3.8-9.23-8.56-12.55-14.29-3.33-5.72-5.68-12.03-7.05-18.92-2.11-10.6-1.43-20.35,2.04-29.26,3.47-8.91,9.51-17.2,18.13-24.86-6.89-6.5-12.31-12.41-16.26-17.75-3.95-5.33-6.56-11.19-7.83-17.59-1.24-6.22-1.19-12.31.16-18.26,1.35-5.95,3.86-11.35,7.53-16.19,3.67-4.84,8.26-8.99,13.78-12.45,5.52-3.46,11.81-5.89,18.87-7.3,6.22-1.24,12.2-1.51,17.94-.82,5.73.69,10.94,2.06,15.64,4.1,4.69,2.04,8.8,4.67,12.33,7.9s6.37,6.73,8.52,10.5l-22.97,19c-2.93-5.01-6.63-8.69-11.12-11.03-4.49-2.34-9.26-3.01-14.3-2-5.05,1.01-8.82,3.33-11.33,6.98-2.51,3.65-3.28,7.91-2.3,12.79l.25,1.26c.47,2.36,1.25,4.52,2.34,6.49,1.09,1.97,2.74,4.09,4.94,6.36,2.2,2.28,4.95,4.88,8.24,7.8,3.29,2.93,7.46,6.51,12.51,10.76l18,15.3,15.83,16.26,1.51-.3c-.07-2.96-.28-6.2-.62-9.71-.35-3.51-.76-7.1-1.23-10.77-.47-3.67-1.01-7.23-1.61-10.7-.6-3.46-1.19-6.62-1.76-9.49l44.91-8.95,5.53,27.75-17.66,3.52c.23,5.55.07,11.31-.49,17.28-.56,5.97-1.6,12.17-3.12,18.59l40.74,33.33-39.86,7.95-25.06-20.45-1.77.35c.53,8.81-2,16.31-7.58,22.5-5.59,6.18-13.6,10.32-24.02,12.39Zm3.65-30.37c3.87-.77,7.34-2.2,10.42-4.31,3.08-2.1,5.41-5.32,6.99-9.66l-40.79-34.89c-3.54,5.08-5.55,9.89-6.04,14.45-.49,4.56-.25,9.28.72,14.15l.1.5c1.61,8.07,4.97,13.74,10.08,17.01,5.11,3.27,11.28,4.18,18.51,2.74Z"/></svg>