<?xml version="1.0" encoding="UTF-8"?><svg id="Layer_1" xmlns="http://www.w3.org/2000/svg" viewBox="0 0 595.28 841.89"><defs><style>.cls-1{fill:#3c4e9b;}</style></defs><path class="cls-1" d="m567.3,774.66c-3.78-.85-7.52-1.95-11.35-2.49-6.37-.89-12.68-2.06-19-3.2-4.69-.84-9.41-1.44-14.07-2.52-3.21-.74-6.51-1.46-9.74-1.77-2.26-.22-4.54-.7-6.85-.8-1.29-.06-2.8.06-4.11-.58-1.11-.54-2.29-.02-3.5-.24-4.69-.84-9.35-1.87-14.03-2.62-3.9-.63-7.8-1.32-11.73-1.85-3.56-.48-7.15-1.16-10.68-2.09-1.59-.42-3.42-.29-5.11-.57-4.03-.69-8.11-1.11-12.14-1.81-2.99-.52-6.01-1.04-9.04-1.4-3.29-.38-6.58-.92-9.87-.96-2.67-.04-5.33-.6-7.82-1.09-2.67-.53-5.32.37-7.96-.71-2.5-1.02-5.33-1.18-7.98-1.88-3.36-.88-6.78-1.24-10.22-1.55-2.41-.21-4.77-.89-7.17-1.31-2.7-.47-5.4-.92-8.11-1.28-5.53-.74-11.07-1.26-16.66-1.1-3.75.11-7.41-.66-11.11-1.11-3.2-.39-6.42-.81-9.63-1.16-3.09-.34-6.24-.16-9.33-1.02-1.16-.32-2.71-.33-4.09-.4-2.17-.11-4.39-.07-6.52-.83-1.1-.39-2.34.04-3.51.02-1.67-.04-3.1-.99-4.9-.71-1.07.16-2.65-.34-3.89-.39-4.01-.15-7.8-1.37-11.71-1.95-4.61-.68-9.24-1.17-13.84-1.93-11.72-1.94-23.57-2.87-35.39-4.06-8.98-.9-17.89-2.31-26.82-3.63-3.79-.56-7.59-1.02-11.37-1.61-1.45-.23-1.4.63-1.38,1.55.12,5.6-.3,11.22.32,16.81.01.13.02.25.03.38.06,4.6.22,9.19.18,13.79-.19,18.62-.5,37.24-.66,55.86-.07,8.54.1,17.09.17,25.64-.03.12-.07.25-.1.37h-2.48c.05-.7.13-1.4.14-2.1.12-12.19-.41-24.38-.13-36.57.14-6.36.2-12.72.29-19.08.01-.12.02-.25.03-.37.61-18.77.08-37.54-.09-56.31.07-.24-.03-.32-.26-.31-2.99-.32-5.97-.84-8.97-.91-3.43-.08-6.48-1.67-9.81-2.06-3.27-.39-6.56-.71-9.82-1.11-4.97-.61-10-.48-14.92-1.37-3.64-.65-7.24-1.58-10.9-2.19-1.53-.25-1.8-1.56-1.83-2.86-.07-3.9-.1-7.79-.13-11.69-.05-5.9.04-11.79.27-17.69.03-.73.35-1.09.96-1.28,10.55-3.35,21.13-6.65,31.59-10.29,2.4-.83,4.94-1.1,7.52-1.55-.9-.67-1.93-.53-2.87-.72-5.34-1.07-9.98-3.88-14.85-6.09-2.2-1-4.34-2.13-6.42-3.37-3.24-1.94-5.53-4.74-6.91-8.27-3.04-7.79-6.64-15.36-9.76-23.11-1.21-2.99-3.21-4.7-5.63-6.32-1.72-1.15-3.67-1.93-5.07-3.58-.58-.68-1.22-1.03-1.55.5-.56,2.66-1.51,5.24-2.25,7.87-.62,2.21-2.56,3.18-4.59,2.2-2.11-1.02-4.24-2.04-6.29-3.17-1.1-.6-1.58-.33-2.13.72-1.33,2.52-2.13,5.09-2.06,8.01.15,6.02-.37,12.03-.86,18.02-.24,2.92-.3,5.85-.62,8.75-.29,2.66-.9,5.28-1.27,7.94-.33,2.32-.5,4.67-.78,7-.31,2.59-.66,5.18-.97,7.78-.29,2.4-.56,4.81-.82,7.21-.28,2.49-.39,5.01-.87,7.46-.24,1.25-.05,2.43-.1,3.64-.51,11.18-.93,22.37-1.49,33.55-.13,2.64-.73,5.25-1.01,7.89-.29,2.72-.39,5.47-.69,8.19-.27,2.43-.72,4.83-1.05,7.25-.19,1.36-.21,2.74-.39,4.11-.49,3.91-.84,7.84-1.43,11.75-.55,3.64-.68,7.36-1.43,10.95-.55,2.65-1.05,5.33-1.27,7.98-.21,2.52-.81,4.97-.89,7.51-.1,2.93-.59,5.87-1.16,8.76-.39,2-.62,4.02-.95,6.02-.43,2.62-.85,5.3-.91,7.92-.1,3.93-.86,7.86-.29,11.81-.4.14-.65.38-.61.84-1.33.39-1.89-.21-1.89-1.49.02-5.2.35-10.37,1.07-15.54.44-3.2.83-6.43,1.21-9.65.31-2.72.89-5.41,1.1-8.15.19-2.47.65-4.92.98-7.39.48-3.64.92-7.29,1.44-10.92.58-4.06,1.42-8.09,1.78-12.19.39-4.44,1.02-8.86,1.53-13.29.44-3.79.75-7.6,1.33-11.37.23-1.46-.01-3.03.81-4.41.53-.88-.26-1.78-.19-2.72.35-4.98.64-9.96.88-14.94.14-2.94.17-5.88.21-8.83.05-3.52.95-6.98.62-10.52.21-.56-.06-.77-.58-.79,1.31-2.42.97-5.14,1.35-7.72.56-3.78.79-7.6,1.38-11.38.54-3.44.72-6.93,1.13-10.39.39-3.21.92-6.41,1.31-9.62.23-1.91.45-3.83.41-5.75-.07-3.86,1.01-7.62.78-11.51-.28-4.61.99-9.13,1.03-13.73.58-.46.53-.93.04-1.42-.25-2.8,1.08-5.19,2.19-7.58.49-1.05.37-1.35-.51-2.02-3.05-2.32-6.76-3.22-10.13-4.83-3.45-1.65-6.95-3.19-10.4-4.84-1.42-.68-2.5-1.88-3.14-3.26-2.76-5.92-7.7-10.31-10.95-15.85-2.06-3.51-4.34-6.89-6.9-10-5.51-6.72-9.8-14.47-16.61-20.1-2.32-1.92-3.4-4.31-3.16-7.3.34-4.3-1.26-8.1-3.1-11.84-.48-.99-1.22-1.49-2.32-1.67-8.7-1.42-15.07-6.66-20.74-12.91-2.28-2.52-2.33-7.17-.68-10.2,1.11-2.02,2.39-3.92,3.55-5.9,2.38-4.05,4.24-8.37,5.7-12.81.88-2.7,1.35-5.58,1.66-8.42.44-3.9,1.51-7.74,1.43-11.69-.06-2.76.11-5.51.44-8.21.43-3.5.35-7.04,1.02-10.52.31-1.59.22-3.28.21-4.86-.03-3.89.8-7.68.91-11.54.08-2.81.64-5.61.88-8.41.19-2.22.81-4.34.95-6.56.14-2.21.63-4.4.83-6.59.16-1.78.7-3.5.58-5.37-.09-1.52.52-3.14.67-4.76.33-3.63.91-7.24,1.31-10.86.4-3.64.81-7.28,1.21-10.91.33-3.02.29-6.06.88-9.07.6-3.06.59-6.21.99-9.32.54-4.19.99-8.38,1.89-12.5.93-4.26,1.86-8.54,3.04-12.74,1.82-6.47,4.36-12.7,6.77-18.96,1.89-4.91,3.58-9.91,6.09-14.54,1.71-3.15,3.49-6.27,5.3-9.36,1.65-2.82,3.13-5.79,4.59-8.74,1.06-2.14,2.33-4.16,4.24-5.72.63-.51.91-1.43,1.46-2.12,3.34-4.14,8.21-5.58,12.91-7.22,2.98-1.04,6-2.02,8.85-3.35,5.32-2.48,10.58-5.08,15.78-7.81,3.97-2.08,7.74-4.5,11.46-7.04,4.86-3.32,9.58-6.86,14.76-9.75,2.02-1.13,3.73-2.87,5.87-3.89.27-.13.51-.32.79-.38,1.34-.3,1.97-1.13,2.81-2.27,1.51-2.03,3.8-3.57,6.45-4.07,4.13-.78,7.09-3.08,9-6.71,1.14-2.16,2.78-3.56,5.17-3.61,1.74-.04,2.09-1.24,2.8-2.28-1.97.94-3.83,1.91-6.08,2.12-2.17.2-3.99-.19-6.01-1.02-2.78-1.14-4.76-2.96-6.49-5.24-.04-.05-.09-.09-.1-.14-.65-4.42-4.69-6-7.32-8.77-2-2.12-3.59-4.5-3.62-7.58,0-.47-.31-.62-.57-.92-1.42-1.67-2.37-3.34-2.17-5.88.13-1.71.47-3.74-.93-5.67-3.14-4.34-1.98-9.18,1.83-13.63,1.15-1.34,2.38-2.62,3.98-3.44.63-.32.8-.63.5-1.37-.94-2.28-.43-4.42,1.02-6.3.59-.77.7-1.24-.04-1.92-2.38-2.17-3.31-4.89-2.93-8.08.03-.29-.06-.65.08-.87,1.51-2.45.88-4.59-.68-6.78-.97-1.36-.5-3.1-.41-4.65.13-2.23.31-4.51,1.39-6.54.99-1.87,2.41-3.17,4.5-3.94,2.56-.94,5.15-1.28,7.81-1.34.54-.01,1.03-.09,1.49-.36.04.08.08.16.12.25.08-.08.16-.16.24-.25.29-.02.59-.05.88-.05,1.36-.02,1.97-.44,1.94-2.06-.11-5.68,5.62-16.1,12.01-17.88.28-.08.54-.22.82-.26,1.8-.28,1.77-.41,1.1-2.12-1.08-2.74-.43-5.48.45-8.15.84-2.58,1.54-5.23,3.78-7.08.58-.48.32-1.33.49-1.99.37-1.39.52-2.88.48-4.32-.15-6.48,3-10.84,8.47-13.91,2.35-1.32,4.69-2.72,6.47-4.83,3.23-3.84,7.31-6.37,12.08-7.9,5.29-1.7,10.59-3.49,16.19-3.45,6.66.04,13.12,1.25,18.78,5.1.55.37.89.39,1.38.13,4.02-2.06,8.24-1.79,12.6-1.49,3.74.26,6.55,2.13,9.61,3.82,3.87,2.13,7.84,4.12,12.41,4.33,4.05.18,7.35,1.91,10.08,4.85,1.44,1.56,1.96,3.67,3.28,5.31,1.25,1.55,2.48,2.88,4.46,3.71,4.89,2.05,8.16,5.5,9.02,11.07.24,1.54,1.82,2.89,2.85,4.28,2.32,3.13,3.45,6.64,3.87,10.52.3,2.8.48,5.51-.35,8.23-.6,1.96-1.63,3.71-3.34,4.75-1.14.7-1.07,1.5-.78,2.3,1.09,3.04,1.76,6.18,2.39,9.32.81,4.02,0,7.71-2.52,10.99-.22.28-.39.62-.66.83-2.17,1.68-1.69,3.39-.4,5.43.74,1.17.65,2.96.11,4.12-1.39,3-2.53,6.26-5.75,8.03-.92.51-1.82.72-2.83.71-.51,0-1.12-.17-1.41.42-.13.27-.48.56-.23.93.26.39.51,0,.75-.05.28-.06.56-.17.83-.25.65-.2,1,.32,1.3.69.42.52-.13.84-.47,1.14-.26.23-.53.48-.84.63-.73.36-1.67.14-2.15,1.16-.68,1.45-1.08,2.91-1.09,4.51-.03,3.87.07,7.73-.25,11.62-.33,3.99-1.98,7.41-3.39,10.96-3.23,8.14-8.54,15.04-13.52,22.13-3.64,5.17-7.2,10.39-10.64,15.69-2.22,3.42-4.92,6.2-8.68,7.84-2.34,1.02-4.71,1.89-7.28.62-.64-.32-1.43-.45-2.22.06,1.09,1.03,1.56,2.57,2.83,3.57.79.62,1.45,1.12,2.55.94,1.32-.21,2.13,1.11,3.42,1.32,3.77.63,7.31,2.08,10.94,3.22,2.71.85,5.41,1.67,8.04,2.74,1.89.77,3.53,1.75,4.96,3.39,1.06,1.21,2.3,2.38,3.42,3.61.25.28.53.43.92.38,2.67-.37,4.71,1.04,6.36,2.76,1.92,1.99,3.96,3.37,6.71,3.97,3.85.83,7.48,2.4,11.16,3.85,2.88,1.13,6.03,1.64,9.11,2.21,2.83.52,5.24,1.8,7.33,3.65,4.03,3.56,6.98,7.98,9.24,12.79,1.45,3.09,3.71,5.25,6.25,7.33,2.3,1.89,4.15,4.2,5.12,7.12.49,1.46,2.29,1.77,3.01,3.09.1.18.4-.09.61-.15,1.99-.62,3.93-1.45,6.1-1.19.47.06.93.07.96-.66.13-3.28.91-6.52.62-9.82-.13-1.47-.24-2.93-.29-4.41-.08-2.4.51-4.72.72-7.08.22-2.46.28-4.94.42-7.41.44-.38.46-.74-.06-1.07,0-.95,0-1.89,0-2.84.48-.21.51-.44.05-.71-.1-1.21-.08-2.38.89-3.32.13-.13.1-.44.13-.67.43-3.97.37-7.96.36-11.95,0-1.13-.58-2.1-.88-3.14-1.49-5.28-2.21-10.68.27-15.72,1.2-2.44.57-3.85-.77-5.54.24-.33.74-.58.31-1.1-.4-2.6,0-5.2,0-7.8.47-.21.47-.45.04-.72-.3-1.29.57-2.36.66-3.6.09-1.28-.22-2.03-1.47-2.34-.11-.03-.24-.03-.34-.08-2.33-.97-2.29-.95-3.55,1.33-2.97,5.36-6.14,10.59-9.33,15.82-1.68,2.75-3.21,5.6-4.74,8.44-1.84,3.41-3.81,6.74-6.39,9.66-1.88,2.12-4.12,3.62-7.1,3.37-3.8-.33-7.85-4.59-6.32-8.79,1.06-2.9,2.8-5.42,4.38-8.05,1.14-1.89,2.3-3.79,3.43-5.69,1.57-2.66,3.37-5.23,4.82-7.92,1.96-3.65,4.54-6.85,6.64-10.39,1.96-3.3,3.82-6.67,5.86-9.94,1.89-3.02,3.37-6.35,5.37-9.31,1.53-2.26,2.71-4.75,4.52-6.83.58-.67.67-1.73,1.14-2.52,2.79-4.69,5.42-9.48,8.35-14.1,1.46-2.29,2.63-4.76,2.68-7.86.06-3.92,1.07-7.94,3.01-11.45,1.71-3.09,2.79-3.18,5.35-2.29,1.41.49,1.68-.89,2.06-1.82,1.11-2.7,2.18-5.44,3.79-7.88,1.63-2.47,3.05-2.73,5.66-1.4,4.01,2.04,7.7,4.62,11.53,6.96,4.95,3.03,9.55,6.55,14.15,10.08,2.29,1.75,4.4,3.78,5.99,6.18,1.75,2.64,1.19,5.71.96,8.66-.32,4.05-1.3,8-2,11.99-1.12,6.38.16,12.72.08,19.08,0,.53-.03,1.06-.04,1.59-.56.23-.33.68-.32,1.08-.28,4.06-1.28,7.79-3.58,11.32-3.41,5.24-6.59,10.65-8.63,16.64-.71,2.11-1.8,4.11-2.9,6.06-2.12,3.76-2.86,7.96-3.95,12.04-.71,2.62-1.11,5.32-1.87,7.93-.64,2.2-.04,4.4-.39,6.58-.27,1.65-.14,2.93,1.6,4.02,1.47.92,2.02,2.69,2.02,4.64,0,2.82-.06,5.56-1.43,8.13-.25.47-.46.94-.9,1.26-.55.4-.73.98-.53,1.56,1.13,3.28,1.37,6.77,2.37,10.1.34,1.11.97,1.22,1.6,1.03,4.84-1.47,9.82-2.35,14.74-3.39,4.56-.96,9.1-2.14,13.77-2.6,2.5-.24,4.97-.79,7.45-1.2,1.01.41,1.73.1,2.18-.87,1.38-.95,1.89-2.45,2-3.93.19-2.36.4-4.72.53-7.08.14-2.54.59-5.07.58-7.63-.06-11.26,0-22.53.48-33.78.39-9.02-.12-18.04.36-27.05.23-4.38.26-8.77.58-13.15.24-3.26.36-6.53.76-9.78.57-.46.55-.94.02-1.42.35-5.32.7-10.63,1.05-15.95l.25-.11c-.08-.08-.16-.15-.25-.23.12-4.14.24-8.28.35-12.41.08-.04.16-.08.25-.11-.08-.08-.16-.15-.25-.23-.02-.29-.05-.59-.05-.88-.19-17.51-.21-35.03-.35-52.54-.11-14.34-.55-28.69-.34-43.03.15-10.25.48-20.5.74-30.75.6-1.53.6-3.07,0-4.6-.33-6.72.28-13.42.35-20.13.01-1.34.84-2.24,2.34-2.62,3.08-.78,6.13-1.71,9.16-2.7,2.04-.67,3.07-.11,3.09,2.08.05,3.63-.19,7.27.07,10.87.3,4.32.64,8.65,1.44,12.92.31,1.64.31,3.27.24,4.92-.08.04-.16.07-.24.11.08.07.16.15.24.22.02,9.15.04,18.3.05,27.45,0,9.92.19,19.84-.07,29.76-.15,5.82-.24,11.7-1.37,17.46-.03.17-.08.38-.02.53.99,2.6-.62,5.05-.39,7.66.24,2.74.03,5.53-.11,8.3-.37,7.72-.84,15.45-.35,23.17.64,10.09,1.44,20.15,1.33,30.29-.1,8.67.32,17.35.3,26.02,0,2.68-.39,5.33-.37,8,.02,3.18-.25,6.32-.61,9.49-.26,2.23-.19,4.6-.26,6.9-.15,5.66-.58,11.31-.57,16.98.04,11.74.85,23.47.68,35.22-.05,3.24-.54,6.46-.34,9.71.1,1.62.24,2.85,1.85,3.99,1.31.93,2.01,2.82,3.13,4.18,2.58,3.12,3.19,6.89,3.9,10.74,1.52,8.32,1.67,16.71,1.32,25.08-.24,5.78-.14,11.57-.61,17.33-.08,1.05-.33,2.15.14,3.13.53,1.11-.58,1.73-.67,2.71-.2,2.11-.36,4.2-.23,6.31.04.61-.28.96-.64,1.37-2.2,2.45-4.83,4.23-7.81,5.65-1.79.86-3.61,1.64-5.45,2.36-.26.1-.54.06-.63.45-.37,1.64,1.09,4.38,2.51,5.64,1.54,1.36,2.32,3.34,3.2,5.19,2.34,4.87,2.78,10.02,2.46,15.32-.07,1.11-.89,1.55-1.19,2.28-.69,1.69-1.58,3.28-2.19,4.98-.2.56-.42,1.39-.65,1.8-1.1,1.92.48,1.76,1.37,1.86,1.34.15,2.72.12,4.07.02,1.52-.11,2.07.73,2.05,2.01-.02,1.52-.07,3.07-.42,4.54-.34,1.42.03,2.88-.54,4.3-.39.97.17,1.57,1.39,1.63,1.57.08,3.16.31,4.68.68,1.96.48,2.85,1.82,3.05,4.05.17,1.82-.94,2.75-2.4,3.28-1.4.51-1.86,1.38-1.84,2.8.02,1.22-.21,2.44-.35,3.67-.68,6.21-1.24,12.43-.98,18.69.1,2.49-.26,4.93-.85,7.31-.32,1.28.14,1.64,1.22,1.92,5.1,1.35,10.16,2.8,15.29,4.06,7.01,1.72,13.56,4.74,19.32,9.23,1.77,1.38,3.59,2.66,5.29,4.14,3.96,3.44,5.95,7.73,6.46,12.91.23,2.33.88,4.69,1.15,6.97.35,3.02.72,6.08.93,9.14.6,8.35.89,16.71.72,25.09-.09,4.37.1,8.74-.04,13.1-.5,16.39-.38,32.79-.77,49.19-.14,5.72.02,11.45-.19,17.15-.12,3.17-.44,6.38-.63,9.56-.13,2.04-.44,4.08-.46,6.11-.09,7.03-.03,14.06-.04,21.08,0,1.48-.07,2.81,1.76,3.53,1.26.5,1.68,1.82,1.56,3.27-.23,2.8-1.33,4.59-4.11,5.95-4.37,2.14-8.95,3.26-13.6,4.3-1.51.34-3.24-.31-4.52,1.03-3.07-1.2-6.09.32-9.18.22-3-.1-6.13.19-9.18.89-.79.18-2.09-.06-3.14.02-3.61.29-7.28-.35-10.82.2-4.14.64-8.28.52-12.41.86-.39.03-.76.23-1.14.35-.07-.2-.19-.33-.42-.23-5.42.03-10.86.29-16.27,0-3.8-.21-7.65-.18-11.42-.9-2.53-.48-5.08-.05-7.63-.27-4.22-.36-8.33-.85-12.33-2.42-2.67-1.05-5.58-1.45-8.27-2.52-1.45-.58-2.58-1.44-3.09-3.11-.35-1.13-.23-2.03.54-2.71,1.41-1.26,1.67-2.84,1.41-4.51-.72-4.65-1.12-9.35-1.95-14-.65-3.64-.63-7.43-.98-11.13-.62-6.44-.63-12.9-1.17-19.33-.6-7.11-1.21-14.23-1.21-21.36,0-9.21-.65-18.38-1.32-27.56-.43-5.89.14-11.81-.48-17.69-.36-3.46-.71-6.92-1.07-10.38v-4.81c-.06,0-.12,0-.17,0-.13,1.61-.25,3.22-.38,4.83-.99,9.67-3.65,18.92-6.83,28.07-4.14,11.91-9.05,23.51-14.27,34.98-1.44,3.17-3.51,5.99-5.31,8.96-.45.74-.48,1.33-.16,2.11,1.78,4.29,3.7,8.55,5.22,12.93,1.99,5.74,4.47,11.36,5.15,17.47.31,2.8.13,5.65.17,8.48-.66.49-.28,1.18-.33,1.78-.48,3.78-.21,7.69-2.05,11.21-.57,1.08-1.23,2.12-1.85,3.19,2.02,1.3,4.35.9,6.49,1.07,3.31.26,6.57.85,9.86,1.09,2.94.21,5.86.58,8.79.74.89.05.98.34,1.08,1.12.25,1.98-.8,3.73-.8,5.66,0,.8-1.12,1.34-1.62,1.35-2.36.05-3.91,1.8-5.9,2.59-3.59,1.41-6.99,3.29-10.57,4.76-3.91,1.61-7.78,3.3-11.81,4.64-5.88,1.95-11.88,3.48-17.75,5.45-4.66,1.56-9.26,3.3-13.93,4.82-1.2.39-2.33.67-3.4,1.44-.76.54-1.9-.21-2.86-.29-5.32-.41-10.6-1.22-15.95-1.48-4.25-.21-8.51-.26-12.75-.59-3.82-.3-7.59-1.04-11.39-1.47-2.18-.25-4.34-.77-6.45-1.19-3.02-.59-6.07-1.08-9.1-1.48-2.02-.26-4.1-.22-6.14-.46-2.41-.28-4.86-.23-7.25-.76-.23-.05-.47-.06-.7-.04-3.66.21-7.18-.74-10.74-1.35-2.42-.41-4.86-.77-7.28-1.01-3-.3-5.86-1.24-8.83-1.51-3.17-.3-6.3-.94-9.51-1.05-2.82-.1-5.62-.71-8.47-.69-.95,0-1.36-.93-1.39-1.68-.07-1.45-.19-2.88-.36-4.33-.21-1.77.96-3.23,2.42-3.66,2.72-.8,5.27-2,7.91-2.97,3.58-1.33,7.44-1.64,11-3.09,1.39-.56,2.26-.66,1.78-2.68-.53-2.24-.18-4.68-.21-7.04-.13-.68-.42-.4-.71-.12-.39.11-.78.28-1.18.33-1.51.16-2.8.18-3.74,1.97-.81,1.52-2.93,1.88-4.71,2.03-3.36.29-6.68-.06-9.83-1.35-1.43-.59-2.97-.69-4.45-1.09-.42-.12-.72-.09-.83.53-.56,3.04-2.58,4.76-5.68,4.81-4.34.07-8.66-.11-12.95-.87-1.28-.23-2.53-.63-3.62.76-.53.68-1.7.73-2.64.84-4.41.54-8.68,1.65-12.81,3.25-3.47,1.35-7.12,2.16-10.58,3.47-4.18,1.59-8.68,2.17-13.04,4.26,1.75.23,3.22.55,4.69.59,4.22.13,8.42.55,12.61,1.04,5.04.6,10.09,1.09,15.15,1.44,9.19.63,18.03,3.04,26.95,5.08,2.65.61,5.21,1.52,7.88,1.99,5.72,1,11.41,2.22,17.24,2.58,3.37.21,6.71.95,10.08,1.22,3.84.3,7.54,1.42,11.35,1.71,2.49.19,4.91.69,7.35,1.06,2.6.39,5.22.65,7.81,1.17,2.64.54,5.28,1.17,7.95,1.46,4.62.52,9.21,1.3,13.83,1.76,3.94.39,7.75,1.63,11.7,1.8,4.76.21,9.5.78,14.28.7,6.53-.11,12.95,1.1,19.42,1.69,3.13.29,6.21,1.34,9.43.85,2.47-.38,4.85.72,7.31.68,5.88-.09,11.71.81,17.57,1.05,3.06.13,6.11.11,9.17.31,5.47.35,10.89.94,16.33,1.62,4.53.57,8.98,1.74,13.6,1.69,2.03-.02,4.02.86,6.13.5.68-.12,1.07.79,1.83.9,1.98.28,3.94.88,5.93.98,3.87.2,7.8.58,11.5,1.33,3.97.8,8,1.5,11.98,2.35,2.58.56,5.17,1.29,7.93,1.06,1.28-.11,2.51.93,3.96,1.03,2.43.18,4.8.74,7.28.86,1.74.09,3.62.69,5.48.96,2.22.32,4.4.71,6.69.71,1.46,0,2.88.94,4.5,1.03,2.13.13,4.23.63,6.38.82,1.81.16,3.67,1.13,5.59,1.41,6.03.89,12.07,1.78,18.1,2.67.04.22.14.35.39.3.47,0,.94.02,1.41.03.22.57.68.34,1.07.33,2.33.03,4.57.88,6.85.93,3.4.08,6.56,1.24,9.88,1.66,3.14.4,6.25,1.09,9.4,1.47,1.62.2,3.36.17,4.85.49,1.93.42,3.91.83,5.85,1.32,1.29.32,2.58.65,3.94.56,1.68-.12,2.95,1.27,4.62,1.26.46,0,.92.1,1.37.15v2.48c-4.81-.93-9.61-1.9-14.43-2.77-4.37-.79-8.76-1.47-13.14-2.18-4.04-.66-8.08-1.3-12.12-1.95-3.3-.53-6.61-1.09-9.92-1.58-3.6-.54-7.24-.88-10.81-1.55-4.3-.81-8.64-1.43-12.94-2.27-4.69-.91-9.45-1.59-14.19-2.3-4-.6-8.03-.98-12.02-1.67-2.39-.41-4.83-.56-7.18-1.12-1.86-.44-3.73-.68-5.6-1.02-4.42-.81-8.85-1.53-13.25-2.44-3.51-.73-7.03-1.41-10.58-1.75-3.64-.35-7.2-1.15-10.83-1.43-2.08-.16-4.07-.77-6.11-1.07-3.39-.5-6.85-.53-10.2-1.17-5.54-1.06-11.13-1.64-16.73-2-5.15-.33-10.29-.67-15.48-.61-4,.05-8.09-.35-12.12-.9-4.21-.57-8.49-.69-12.74-1.01-.32-.54-.67-.52-1.07-.09-.35.02-.71.09-1.06.05-4.73-.57-9.44-1.29-14.18-1.7-3.97-.35-7.99-.62-11.96-.41-3.72.19-7.32-.51-10.96-.81-4.3-.35-8.53-1.42-12.82-2-5.11-.7-10.3-.94-15.36-1.87-6.82-1.26-13.67-2.23-20.51-3.31-5.88-.92-11.75-1.99-17.68-2.53-10.01-.92-19.89-2.43-29.62-5-8.9-2.35-17.85-4.56-27.05-5.27-11.05-.85-22.04-2.28-33.08-3.25-.76-.07-1.23-.07-1.22.91.02,8.21,0,16.41-.02,24.62,0,.73.26,1.09.95,1.21,2.55.45,5.03,1.25,7.62,1.51,5.98.6,11.98,1.06,17.93,1.89,12.78,1.8,25.42,4.48,38.23,6.18,7.65,1.01,15.26,2.3,22.91,3.35,7.07.97,14.18,1.45,21.26,2.33,5.88.74,11.8,1.06,17.67,2.09,2.85.5,5.76,1,8.69,1.28,5.24.5,10.43,1.53,15.64,2.33.19.61.67.36,1.07.36.35,0,.71,0,1.06-.01.18.62.67.37,1.07.37,4.62.49,9.24.91,13.84,1.48,2.75.34,5.5.51,8.25.76,4.95.45,9.88,1.13,14.82,1.69,1.86.21,3.75.24,5.59.57,2.82.5,5.65,1.11,8.5,1.17,7.75.15,15.52.11,23.15,1.52,5.56,1.03,11.17,1.79,16.75,2.63,4.8.72,9.48,1.96,14.27,2.71,3.58.56,7.19.97,10.77,1.55,3.71.6,7.47,1.2,11.3,1.32,4.71.15,9.37,1.22,14.04,1.98,6.04.97,12.1,1.78,18.15,2.69,4.22.63,8.47,1.14,12.64,2.02,2.54.53,5.12.77,7.66,1.32,3.6.79,7.2,1.56,10.84,2.11,3.26.49,6.6.73,9.82,1.27,4.9.81,9.86,1.18,14.75,2.19,5.12,1.05,10.31,1.89,15.48,2.74,6.11,1,12.23,1.97,18.32,3.15,4.65.9,9.34,1.62,13.94,2.75v2.48Zm-230.83-207.97c-.63,5.1-1.26,10.21-1.9,15.31l.55.06c.21-2.13.4-4.26.65-6.38.36-3.02.76-6.03,1.15-9.04.38-2.55,1-5.07,1.08-7.66.02-.54-.04-1.13-.75-1.18-.99-.07-.53.73-.54,1.13-.11,2.58-.16,5.17-.23,7.75Zm-168.51,20.55c.01.09.03.18.04.27.08-.03.15-.07.23-.1-.08-.07-.16-.13-.24-.2-.13-.44-.16-.94-.39-1.32-1.81-3.05-6.56-4.9-10.23-3.76,3.53,1.97,6.8,4.06,10.59,5.1Zm87.2,48.87c-.19,10.08.99,20.11.68,30.32.99-.62.74-1.47.74-2.17,0-7.73.02-15.46-.04-23.19-.07-9.17.05-18.33-.64-27.49-.26-3.45,0-6.95,0-10.42,0-.46.25-1.05-.73-1.62,0,10.53.64,20.79,0,31.04-.57.59-.57,1.18,0,1.77,0,.48,0,.95,0,1.43-.08.04-.16.07-.24.11.08.07.16.15.24.22Zm56.34-497.1c-.08.04-.16.07-.25.11.08.07.16.15.24.22.08,5.17-.4,10.3-.68,15.45-.28,5.15-.77,10.09-2.88,14.81-.09.2-.28.37-.07.61.3.35.53,0,.77-.07,1.39-.42,2.06-1.65,2.87-2.68,2.78-3.54,2.87-5.41.56-9.26-.24-.39-.28-.72-.11-1.14.51-1.23.99-2.46,2-3.41,2.53-2.41,3.6-5.47,3.44-8.87-.15-3.16-1.12-6.19-1.85-9.27-.4-1.69-.95-2.36-2.79-1.68-1.01.38-1.44.7-1.31,1.81.13,1.11.04,2.24.04,3.36Zm80.06,153.79c-.1-.42-.4-.39-.72-.33-1.28.49-2.51-.01-3.74-.24-1.95-.35-3.91-.92-5.83-1.06-2.85-.22-5.59-.53-8.21-1.72-.63-.29-1.84-.7-2.13-.07-.48,1.05-.93,2.29-.47,3.55.1.27.13.61.54.36.71-.43,1.51,0,2.24-.25,2.83-.94,5.08.19,7.12,2.02.52.47,1.04,1.14.98,1.77-.22,2.25-.93,4.52.99,6.45.16.16.17.59.11.86-.23,1.07.35,2.02.44,3.05.08.91.35,2.04.78,2.73.57.92,1.74-.18,2.65-.29,2.62-.31,5.2-.96,7.77-1.51,2.5-.53,4.97-1.2,7.52-1.59,1.79-.27,3.62-.49,5.34-1.17.45-.18.98-.22.64-1.06-1.2-2.94-1.47-6.11-2.07-9.18-.3-1.55-1-2.12-2.45-2.03-3.84.25-7.66-.12-11.49-.31Zm-56.35,403.67c-2.42-.02-4.84.07-7.25-.08-3.69-.23-7.4.36-11.07-.41-1.25-.26-2.55-.66-3.78-.52-1.85.2-3.61-.28-5.37-.48-1.65-.18-3.45-.51-5.02-.54-3.3-.07-6.42-.97-9.65-1.25-2.73-.24-5.44-.7-8.15-1.09-3.12-.45-6.24-.88-9.35-1.42-3.38-.58-6.71-1.48-10.11-1.86-3.17-.35-6.34-.75-9.52-1.08-3.72-.38-7.41-.98-11.17-.97-.59,0-1.2.06-1.76-.07-3.09-.71-6.27-.5-9.38-.63-2.91-.13-5.83-.43-8.74-.51-1.31-.04-2.85.13-4.23-.61-.84-.45-1.21.58-1.25,1.22-.04.75-.55,1.91.94,2.01,5.43.34,10.84.8,16.21,1.75,4.42.79,8.87,1.4,13.31,2.07,6.3.95,12.6,1.87,18.97,2.23,1.98.11,3.95.43,5.93.62,2.8.27,5.57.79,8.37,1.09,1.9.21,3.84.4,5.74.88,3.08.78,6.2,1.81,9.32,1.87,5.88.13,11.73.92,17.62.79,1.11-.02,2.29,0,3.33.34,1.86.6,3.78.38,5.66.7,2.89.5,5.83.66,8.75.97.75.08,1.74.09,1.87-.69.23-1.33.07-2.72.07-4.09.02-.23-.06-.33-.3-.26Zm-64.81-229.02c.35,1.04.77,2.06,1.03,3.12.79,3.11,1.19,6.31-.24,9.29-.8,1.67-1.33,3.17-1.21,5.1.25,4.05,1.06,5.38,4.89,5.84,3.64.44,7.17,1.2,10.57,2.55.67.27,1.16.29,1.71-.3,1.45-1.58,3.4-2.27,5.39-2.89,1.76-.55,3.64-.74,5.37-1.6-.86-1.48-2.09-2.39-3.35-3.26-2.54-1.75-2.49-2.47.05-4.12,2.04-1.32,3.99-2.79,4.62-5.35.49-1.97,0-2.58-2-2.72-2.54-.18-4.91.62-7.3,1.21-2.09.51-3.81.14-5.38-1.22-2.24-1.95-4.72-3.54-7.28-5-1.46-.84-2.97-1.61-4.71-1.71-.39-.47-.73-1.12-1.46-.41-.23.04-.45.08-.68.12-.24-.01-.37.06-.23.32,0,.22,0,.45,0,.67-.14.26,0,.33.22.36Zm-31.65,152.41c.04-.5.29-1.11-.37-1.35-.48-.18-.54.27-.58.63-2.36.16-3.48,1.86-4.71,3.58-4.5,6.27-10.29,10.8-17.78,13.08-2.8.86-5.63.7-8.85.74.83.51,1.32.81,1.8,1.1,2.67,1.63,5.42,3.13,7.98,4.91,4.55,3.17,8.81,6.63,9.83,12.59.11.64.67.78,1.07,1.08,2.34,1.77,5.14,3.12,6.6,5.77.97,1.76,2.15,1.5,3.53,1.1,1.43-.41,2.31-1.21,2.24-2.91-.14-3.42-.24-6.84-.16-10.26.22-10.03-.58-20.05-.58-30.08Zm90.91-64.86c-.15,5.65.2,11.31-.94,16.93-2.06,10.17-5.19,20.08-7.18,30.27-1.25,6.37-3.08,12.59-5.23,18.72-.55,1.57.02,1.85,1.39,1.69,1.23-.14,2.46-.32,3.69-.33,1.03,0,1.48-.38,1.58-1.4.26-2.75.59-5.5.85-8.26.12-1.24.48-2.42,1.53-3.06,2.17-1.32,2.75-3.38,3.11-5.66.88-5.47,1.83-10.92,2.71-16.39,1.64-10.15,3.41-20.29,2.98-30.64-.03-.6.23-1.01.83-1.18,3.4-1.01,5.35.45,5.26,3.96-.02.65-.1,1.29-.19,1.93-.67,5.02-1.47,10.03-1.99,15.06-.48,4.62-.75,9.26-.95,13.9-.22,5.01-1.33,9.96-1.33,14.96,0,3.6-1.06,6.31-3.72,8.7-1.71,1.53-2.61,3.85-1.94,6.14.77,2.66.3,4.72-1.66,6.56-.61.57-.38,1.34-.22,1.97.18.69.87.37,1.37.35,1.47-.05,2.95-.19,4.42-.16,3.12.07,6.25.25,9.37.33.43.01,1.36.33,1.21-.48-.35-1.97.28-4.17-.88-5.89-1.94-2.88-2.17-6.36-3.55-9.36-1.8-3.92-1.08-7.54.04-11.3.13-.45.29-.9.4-1.36,1.14-4.45,2.38-8.91,2.23-13.56-.28-8.43-.54-16.86-.63-25.3-.03-2.47-.35-4.94-.5-7.41-.06-.91-.36-1.23-1.33-.99-2.12.52-4.29.59-6.47.52-1.35-.05-2.71-.07-4.03.36-.24,0-.33.13-.26.37Zm-57.16,17.07c-11.94.27-23.77-.76-35.67-3.04.62,1.58,1.88,2.23,2.45,3.5,1.57,3.45,1.14,7.09,1.15,10.64,0,3.24-.06,6.48.02,9.73.02,1.05.43,1.14,1.29.95,2.99-.69,5.99-1.37,9.06-1.67.95-.09,1.36-.69,1.05-1.42-.49-1.18.28-2.47-.55-3.62-.32-.44-.26-1.35.51-1.67.77-.32,1.24.27,1.53.84.27.54.61,1.06.48,1.8-.12.64-.17,1.38.27,2.04.28.41-.09,1.39.82,1.23.73-.12,1.01-.76.98-1.59-.09-2.38.11-4.79-.2-7.14-.15-1.12-.65-2.97-1.86-3.03-1.5-.08-.9,1.67-1.09,2.67-.02.12-.02.24-.03.35-.06.54-.39.89-.89.95-.61.07-.98-.32-1.2-.85-.61-1.49.92-4.8,2.48-5.37,1.83-.66,3.24.24,3.85,2.72.74,3.02,1.68,6.02,1.46,9.19-.03.48-.2,1.14.67,1.13.94-.02,1.89.04,2.81-.08,3.38-.43,6.75-1.02,10.14-1.34,2.22-.21,4.48-.09,6.72-.05.89.02,1.23-.14,1.12-1.17-.21-2.03.14-4.06.5-6.04.17-.92,1.04-1.64,2.09-1.36,1.01.27.73,1.12.54,1.91-.28,1.2-.35,2.46-.69,3.64-.49,1.71.24,2.4,1.8,2.64,0-2.89.04-5.72-.03-8.55-.02-.72,0-1.74-.84-1.99-.89-.26-1.71.26-2.23,1.07-.52.82-1.22,1.02-1.9.36-.66-.65-.42-1.43.18-2.04.8-.81,1.78-1.36,2.87-1.68,1.65-.5,3.12.21,3.68,1.85.3.88.47,1.8.49,2.76.05,2.59.22,5.17.3,7.76.03.77.29,1.12,1.1,1.28,2.96.58,5.99.91,8.86,2.33-.03-3.57-.36-6.88-.96-10.23-.59-3.24-.45-6.63-.5-9.96-.02-1.34-.32-1.77-1.73-1.45-3.77.86-7.65.9-11.47,1.49-2.98.46-6.05.33-9.08.46-.13.01-.25.03-.38.04Zm97.11-225.43c-.55.47-.55.94,0,1.41.02.35.04.71.05,1.06.03,3.32.1,6.64,1.1,9.84.2.65.29,1.65,1.38,1.42,1.57-.33,3.2-.37,4.73-.73,4-.93,8.1-1,12.13-1.69,4.25-.73,8.44-1.75,12.58-2.88,2.95-.81,5.62-2.45,8.43-3.68,1.88-.82,2.02-1.98,1.53-3.64-.68-2.34-1.41-4.67-1.91-7.05-.92-4.4-1.68-8.83-2.54-13.24-.18-.94-.14-2.15-1.86-1.19-.71.4-1.62.75-2.51,1-3.69,1.04-7.38,1.98-11.2,2.57-4.41.68-8.69,2.12-13.06,3.09-1.95.43-4.07.74-5.88-.3-1.42-.81-.93-2.63-1.31-4-.45-1.6-.08-3.31-.77-4.86-.22-.48-.3-.99-1.05-.87-.74.13-.56.67-.54,1.08.21,4.01-.36,8.04.4,12.05.66,3.49.36,7.06.32,10.6Zm-100.96,339.55c-1.94-.35-3.88-.55-6.14-.3,2.22.31,4.17.59,6.12.86.83.55,1.82.41,2.72.56,3.4.58,6.71,1.6,10.17,1.92,2.56.24,5.13.65,7.64,1.14,3.72.72,7.49,1.01,11.2,1.68,2.38.43,4.82.49,7.22.76,3.62.4,7.23.94,10.88,1.05,5.72.16,11.46.05,17.16.44,2.13.15,3.93-.26,5.81-.96,3.15-1.17,6.42-2.08,9.46-3.48,5.56-2.57,11.4-4.33,17.16-6.35,5.36-1.89,10.95-3.09,16.22-5.26,2.02-.84,4.01-2.04,6.11-2.32,1.78-.24,2.8-1.54,4.4-1.95-.76.02-1.28-.79-1.95-.53-1.68.65-3.17-.49-4.83-.41-1.76.09-3.54-.4-5.32-.58-1.6-.17-3.22-.2-4.82-.4-2.92-.36-5.95-1.43-8.3,1.47-.23.28-.69.44-1.07.53-4.77,1.05-9.14,3.39-14.16,3.79-2.47.2-5.05.84-7.58,1.15-3.41.41-6.84-.02-10.21-.6-3.02-.51-6.01-1.43-9.05-1.63-4.51-.29-8.6-1.65-12.39-3.94-3.47-2.09-6.93-4.25-8.32-8.45-.22-.67-.84-1.08-1.68-.98-1.29.15-2.58.23-3.87.35-.3-.19-.58-.17-.66.21-.07.32-.15.72.33.87.57,5.47.75,10.91-1.35,16.16-.57,1.42-1.29,2.58-2.86,3.19-3.35,1.29-6.76,2.17-10.36,2.23-4.24.07-8.48.09-12.72.13-.13-.02-.25-.03-.38-.05-1.52-.1-3.04-.19-4.56-.29Zm43.35-49.3c-.15.04-.29.08-.44.13l.18.27c-.91,2.27-1.1,4.71-1.62,7.06-.68,3.07-1.14,6.19-1.68,9.28-.49,2.77-.99,5.6-.4,8.36.6,2.81,2.48,5.05,4.8,6.65,3.17,2.19,6.49,4.22,10.31,5.14,1.93.47,3.89.79,5.85,1.14,3.04.54,6.06,1.34,9.12,1.51,6.86.39,13.75.42,20.38-1.79,4.41-1.46,9.24-1.95,12.9-5.25,1.93-1.75,3.9-3.57,4.52-6.2,1.14-4.86,1.17-9.83,1.14-14.8-.02-2.72-.23-5.38-.97-8.01-.23-.83-.45-1.2-1.41-.75-3.42,1.61-7.19,1.97-10.84,2.07-9.38.27-18.77.21-28.15.11-3.46-.04-6.93-.48-10.34-1.17-2-.4-3.37.37-3.49,2.4-.09,1.51-.53,2.96-.82,4.39-1.02,4.96-1.31,9.92-.59,14.91.38,2.67-.53,3.56-2.35,4.51-1.64.86-3.22.25-4.52-1.51-.63-.85-.83-1.84-.72-2.84.36-3.23.64-6.47,1.21-9.67.73-4.1,1.18-8.27,2.54-12.23.2-.58.11-.88-.49-1.02-1.7-.41-2.91-1.56-4.12-2.69Zm-70.98-37.99c-.17-.11-.33-.22-.5-.34-.05.13-.1.26-.15.4-.01,1-.09,2.01-.03,3.01.67,10.95.86,21.91,1.24,32.87.34,9.56.18,19.12.12,28.67-.03,4.99.52,9.87,1.47,14.74.19.97.44,1.94,1.58,2.35,3.39,1.22,6.82,2.16,10.47,2.28,4.59.14,9.17.55,13.76.78,8.16.41,16.34.98,24.44-.77,1.3-.28,3.18-.63,3.52-1.56.51-1.39,1.21-2.8,1.46-4.35.57-3.52.23-7.05.25-10.57.01-2.67-.61-3.28-3.2-3.48-.27-.02-.55.17-.81.12-1.59-.26-3.55-.26-4.25-1.9-.68-1.59-1.19-3.36-1.2-5.18.45-.37.49-.73-.04-1.07.01-5.01-.21-10.02.25-15.04.42-4.53.57-9.08.83-13.62.14-2.41,1.8-4.02,4.19-3.99.59,0,1.18.08,1.77.11.81.04,1.34-.14,1.24-1.17-.37-4.07-.09-8.14-.19-12.22-.08-3.13-.21-6.25-.39-9.37-.03-.46.28-1.53-.96-1.06-3.09,1.17-6.34,1.25-9.59,1.43-4.26.24-8.5.8-12.76,1.03-4.65.26-9.31.33-13.96.42-.95.02-1.21.34-1.2,1.24.04,3.13-.07,6.26.06,9.39.06,1.38-.06,2.83.56,4.15-.19.08-.33.19-.25.43.03,8.25.04,16.49.21,24.74.12,5.41-.3,10.84.03,16.27.15,2.53.07,5.07.04,7.61-.02,1.74-1.26,2.63-2.55,3.53-1.47,1.03-1.98.43-2.62-.96-.43-.92-.51-1.77-.52-2.69-.05-5.52.31-11.07-.23-16.53-.55-5.5-.46-10.96-.28-16.42.32-9.98-.09-19.94-.12-29.91,0-.58-.11-1.18-.76-1.18-1.2,0-2.32-.65-3.4-.61-2.69.09-5.12-.66-7.55-1.59Zm236.63-161.83c-1.89.05-3.77.19-5.66.15-8.73-.19-17.46-.53-26.19-.54-1.64,0-1.96.34-1.62,1.97,1.69,8.07,2.99,16.22,4,24.41.63,5.18-.85,7.09-5.87,9.87-1.73.96-3.71,1.58-5.66,1.99-8.49,1.78-16.02,6-23.54,9.91-6.87,3.57-12.09,9.17-13.84,17.26-.26,1.22.11,2.5-.47,3.61-.91,1.74-.42,3.58-.44,5.37,0,.72.39,1.22,1.39.75,1.49-.7,3.07-1.21,4.7-1.51,9.25-1.72,18.64-1.86,27.99-2.38,6.95-.39,13.91-.53,20.87-.65,6.14-.11,12.29-.3,18.41.02,11.53.59,23.06,1.41,34.57,2.34,5.92.48,11.87.99,17.6,2.72.96.29,1.26.17,1.1-.92-.63-4.08-1.27-8.15-1.74-12.25-.45-3.9-2.24-7-5.09-9.62-6.53-6.02-14.02-10.46-22.53-12.85-5.77-1.62-11.63-2.97-17.4-4.66-2.64-.77-3.05-1.55-2.42-4.2.38-1.6.72-3.22.75-4.88.1-5.48,0-10.97.67-16.43.38-3.1.61-6.21.91-9.32-.1-.24-.28-.27-.5-.17Zm-239.51,144.14c.01-1.88-.51-3.71-.3-5.63.09-.81-.27-1.92-.84-2.49-1.48-1.49-2.56-3.19-3.49-5.05-1.17-2.34-.89-3.34,1.39-4.69,4.31-2.55,9.33-2.65,13.95-4.12,1.93-.61,4.13-.43,6.13-.83,4.26-.85,8.53-.9,12.82-.78,6.14.17,12.24.78,18.3,1.73.85.13,1.07-.05.97-.84-.25-2.02-.35-4.06-.77-6.04-.56-2.7-.71-5.41-.7-8.14,0-1.16.6-1.86,1.89-1.82,2.11.07,4.22-.17,6.72.45-3.18-3.62-5.58-7.33-8.32-10.78-3.08-3.87-5.43-8.1-7.54-12.55-1.06-2.25-1.59-4.51-1.64-6.95-.03-1.36.58-2.92-1.21-3.78-.3-.14-.51-.87-.45-1.28.22-1.63-.73-1.67-1.89-1.58-.59.04-1.18-.01-1.77,0-16.43.27-32.9-.88-49.26,1.52-5.42.79-10.8,1.82-16.29,2.3-3.24.28-6.53.97-9.78,1.46-6.74,1.01-13.38,2.63-20.22,3.1-2.8.19-5.67.69-8.46,1.39-1.95.49-4.04.49-5.92,1.14-3.76,1.3-7.6,2.24-11.41,3.34-2.18.63-5.37-.02-4.72,3.96.01.09-.14.19-.17.3-1.9,5.37-4.09,10.65-5.22,16.25-.25,1.27-1.33,2.47-.84,3.72.59,1.52,1.62,2.87,2.67,4.65.4-3.1,1.45-5.65,1.83-8.39.34-2.46.29-5.05,1.66-7.31.29-.48.5-.88,1.11-.96.7-.09,1,.36,1.09.87.12.71.58.79,1.14,1.07,2.69,1.32,5.52,2.24,8.37,3.11,2.16.66,4.38,1.13,6.52,1.85,3.29,1.1,6.73,1.5,10.07,2.35,3.51.9,7.07,1.83,10.66,2.1,5.65.43,11.3-.35,16.92-1,3.18-.37,6.33-.94,9.56-1.01,3.22-.07,6.44.24,9.66-.38,1.72-.34,3.55.89,4.06,2.37,1.86,5.45,2.74,11.11,3.45,16.79.76,6.11.3,12.3.98,18.45.37,3.32.52,6.7.84,10.04.3,3.11,1.66,6.08,1.18,9.29-.02.15.03.39.14.48,1.24,1.1,1.86,2.65,2.83,3.93.95,1.25,2.55.84,3.82,1.3.26.1.47.13.39-.26l.09-21.23c.54-.47.54-.94,0-1.41Zm217.6-219.34c-.15.64-.49,1.32.33,1.78.28,6.26.58,12.52.35,18.78-.57.24-.32.69-.29,1.09.29.89-.39,1.3-.93,1.69-1.85,1.36-3.39,2.88-4.06,5.22-.56,1.94-1.16,2.1-3,1.38-.31-.12-.69-.06-1.03-.07-2.22-.09-4.38.39-6.52.86-1.08.24-1.87-.13-1.82-.96.13-2.24-1.39-3.82-1.98-5.75-.22-.72-.77-1.33-1.49-1.22-.81.13-1.57.77-1.51,1.67.12,1.84-.13,3.76,1.51,5.26,1.22,1.11.92,2.33-.64,2.97-2.71,1.11-5.15,2.56-7.29,4.57-.55.51-1.53.78-.84,1.7.81,1.08,1.12,3.28,2.97,2.62,2.57-.92,5.16-2.01,7.33-3.8,2.49-2.07,5.24-3.63,8.55-3.75,2.58-.09,3.65,1.14,3.2,3.71-.96,5.48,1.11,9.85,4.64,13.77.33.36.7.47,1.2.56,2.56.46,5.15.12,7.7.4,1.94.21,3.04-.52,4.01-2.11,2.6-4.29,5.21-8.54,4.49-13.89-.11-.8-.27-1.6-.4-2.4-.71-4.72-2.14-9.08-6.15-12.12-.44-.33-.94-.68-.9-1.19.18-1.98-.54-3.81-.82-5.71-.12-.85,0-1.87,1.07-1.9,3.43-.12,6.37-1.61,9.16-3.31,1.93-1.17,4.24-2.45,4.4-5.02.23-3.77.82-7.51.93-11.27.18-5.93-.02-11.85.45-17.78.43-5.33-.19-10.68-.37-16.01-.06-1.72.08-3.56-.24-5.12-.51-2.47-.83-5.01-1.55-7.45-.9-3.04-2.47-5.63-5.01-7.6-1.31-1.02-2.56-2.26-2.8-3.94-.54-3.74-.28-7.53-.16-11.27.1-3.03.33-6.04-.09-9.05.5-.29.28-.71.2-1.11.12-3.83-.14-7.66-.21-11.49-.14-8.49-.14-16.99-.1-25.49.02-3.98.18-7.95.42-11.92.25-4.25.85-8.49.95-12.74.36-15.58-.13-31.15-.22-46.73-.01-2.32-.07-4.69-.29-6.95-.17-1.79.3-3.77-.7-5.51-.26-.45-.07-1.15-.08-1.74.46-.37.48-.73-.04-1.07-.18-10.64-.11-21.27.71-31.89,1.22-.57.51-1.17.04-1.78.1-1.7.22-3.4.31-5.1.51-9.42,1.43-18.82,1.38-28.27-.04-7.91.03-15.82-.02-23.74-.05-8.15.25-16.3-.2-24.44-.16-2.93-.15-5.87-.68-8.81-.28-1.57-.26-3.32-.46-4.94-.29-2.36-.42-4.72-.65-7.08-.2-2.11-.03-4.25-.07-6.37,0-.4.28-1.25-.73-.87-2.61.98-5.43,1.28-8.02,2.34-.78.32-1.1.66-1.09,1.51.03,1.95-.03,3.9-.06,5.84-.71.63-.54,1.38-.31,2.15.39.59.23,1.24.24,1.88.18,18.52-.82,37.03-.97,55.54-.05,6.49.27,12.97.32,19.46-.08.04-.16.07-.24.11.08.07.16.15.24.22.11,3.06.3,6.12.32,9.19.13,14.86-.09,29.72.29,44.58.37,14.53-.57,29.04-1.58,43.53-.46,6.64-.73,13.29-1.1,19.93-.47,8.52.11,17.07-.36,25.61-.21,3.87-.37,7.77-.41,11.66-.59.27-.44.86-.34,1.23.55,2.13.22,4.32.53,6.47-.16-2.25.64-4.42.46-6.66.21-2.17.34-4.35.37-6.53.01-1.41.48-2.85,2.16-2.96,1.53-.1,2.24,1.08,2.57,2.45.06.23.15.46.15.69,0,2.94.76,5.83.76,8.75.01,8.14.48,16.26.17,24.41-.22,5.79-.13,11.6-.45,17.39-.07,1.35.03,2.71.03,4.07,0,.8-.31,1.43-1.2,1.43-.88,0-1.44-.43-1.34-1.43.04-.41,0-.83.01-1.24.21-7.37.47-14.73.63-22.1.18-8.14-.09-16.28-.34-24.42-.02-.72-.11-1.42-.69-1.98-.44,2.87-.84,5.72-.93,8.57-.41,13.5.51,27-.08,40.5-.03.77,0,1.51-.99,1.52-.87,0-1.19-.65-1.24-1.44-.03-.47,0-.94,0-1.41.01-4.25.07-8.49.01-12.74-.05-3.59-.66-7.17-.1-10.77.49-4.02-.7-7.98-.45-12v11.98c.08,3.24-.4,6.42-.7,9.63-.29,3.06.05,6.2-1.14,9.13-.69,1.7-1.57,3.58-3.41,4.16-2.13.67-4.43,1-6.67,1.1-5.42.25-10.69,1.64-15.87,2.83-7.56,1.74-15.14,3.42-22.74,5-6.75,1.4-13.53,2.65-20.22,4.37-1.04.27-1.78.03-2.18-1.15-.77-2.28-1.4-4.6-1.91-6.95-.1-.48-.1-.96-.58-1.19-1.87-.88-1.87-1.97-.76-3.61,1.33-1.97.6-3.52-1.61-4.43-1.53-.63-3.11-.39-4.61-.26-.74.06-2.4.53-1.84,2.11.32.9,1.27,1.13,2.07.63,1.18-.74,2.02-.51,2.57.67.44.95-.37,4.64-.96,4.86-.05.02-.12,0-.18.01-1.56.35-3.17,1.26-3.06,2.74.1,1.3.17,2.87.89,4.43.38-1.05.15-1.84.28-2.56.18-1.05.33-2.32,1.69-2.6,1.11-.23,2.15.03,2.69,1.17.4.84.44,1.79-.73,1.89-1.44.13-1.28.96-1.23,1.93.05,1.21,1.19,2.02,1.11,3.29-.02.37.39.31.69.22,1.92-.56,2.3-.37,2.57,1.57.31,2.14.55,4.29.96,6.43.32,1.68.27,3.43-.74,4.96-.67,1.01-1.59,1.6-2.85,1.36-1.23-.23-1.49-1.25-1.6-2.27-.35-3.21-.98-6.39-.93-9.65.03-1.84-.89-3.46-1.76-5.07-.23,1.27-.24,2.49-.23,3.71.03,1.93-.51,2.61-2.46,2.6-2.85-.02-5.59.45-8.35,1.11-1.87.45-2.8,1.59-2.9,3.15-.43,6.1-.24,12.2.33,18.28.08.88.38,1.85,1.04,2.48.68-.28.69-.77.69-1.25.04-2.09-.08-4.22-.28-6.25-.36-3.62-.07-7.15.22-10.71.1-1.17.44-2.58,1.67-2.86,2.84-.64,5.73-1.08,8.65-1.15,1.29-.03,1.89.84,2.08,1.96.4,2.31.7,4.63,1.08,6.94.15.89.61,1.34,1.64,1.45,2.78.31,5.23-.94,7.84-1.42.79-.14.94-.6.71-1.06-1.02-2.02-.26-4.1-.25-6.13.02-4.08,2.01-6.08,5.85-6.32,3.8-.24,7.38-1.66,11.16-2.08,3.23-.36,6.36-1.44,9.63-1.48,2.95-.04,5.76-.89,8.66-1.19,3.03-.31,5.91-1.41,8.96-1.66,1.95-.16,3.94-.35,5.81-.88,2.42-.69,4.89-1.04,7.36-1.16,3.42-.17,6.69-1.3,10.12-1.34,1.09-.01,2.95.86,2.96,1.97.04,2.23.76,4.35.69,6.6-.06,2.04.03,4.11.37,6.12.83,5.02.66,10.07.81,15.11-.59.28-.56.77-.44,1.28-.15,2.46-1.84,4.21-4.27,4.26-1.28.03-2.3.24-3.28,1.28-1.02,1.09-2.41,1.76-4.09,1.53-1.04-.14-2.15-.19-3.17.02-1.96.4-3.98.27-6.29.39,2.77,2.46,5.53,3.51,8.82,3.14,1.53-.17,3.02.24,3.61,1.83.96,2.62,2.93,3.44,5.46,3.39,1.11-.02,1.87.59,2.11,1.5.65,2.43,1.2,4.89,1.43,7.41Zm-136.8,131.44c1.21.65,1.68,1.73,1.83,3.04.26,2.35.37,4.69.17,7.06-.09,1.06,0,2.38.82,3.09,2,1.76,3.59,3.92,5.65,5.59,1.41,1.14,2.43,2.5,3.24,4.13,1.49,3,2.67,6.31,5.11,8.63,3.65,3.49,5.74,7.58,6.2,12.53.14,1.54.71,2.09,2.28,2.06,3.06-.05,6.13-.46,9.19-.09,1,.12,2.39.32,2.23,1.49-.24,1.74.05,3.52-.5,5.24-1.16,3.7-.89,7.47-.18,11.2.79,4.17,1.91,8.28,2.58,12.46,1.38,8.55,2.54,17.14,4.27,25.64.64,3.13,1.62,6.16,3.11,9.15.97-1.14,1.32-2.34,1.82-3.45,3.25-7.2,5.93-14.63,8.73-22.01,3.72-9.81,7.44-19.62,10.82-29.54,2.53-7.42,3.68-15.21,4.5-23.02,1.03-9.86,1.22-19.76,2.04-29.63.63-7.52,1.42-15.01,2.39-22.49.44-3.4.82-6.8,1.28-10.67-2.16,1.78-4.17,2.93-6.49,3.26-7.34,1.04-14.56,2.72-22.08,2.7-7.6-.02-14.08-2.43-19.89-7.06-1.62-1.29-2.99-2.83-3.79-4.82-3.36-8.42-6.58-16.89-9.17-25.58-.61-2.03-.86-3.98.02-6.03.97-2.24.68-2.91-1.52-4.49-.39,3.1-1.1,6.18-1.09,9.26.03,5.95-1.43,11.54-3.17,17.13-1.31,4.22-3.15,8.25-4.24,12.56-1.36,5.37-2.8,10.72-4.33,16.04-1.54,5.34-3.11,10.66-2.26,16.32.01.26.18.32.4.31Zm-53.13-234.56c-.39-.62-1.04-1.17-1.57-.54-.65.77.41.92.84,1.27.11.12.21.25.32.37.05.21.15.35.4.3.44.6.81,1.25,1.32,1.78,2.25,2.33,3.71,5.19,5.28,7.96.53.94,1.27,1.94,1.41,2.9.28,1.87,1.36,3.43,1.7,5.19.41,2.18,1.52,4.13,1.7,6.38.1,1.22.51,2.48,1.07,3.57,4.19,8.12,8.47,16.18,13.68,23.72,3.77,5.46,7.36,11.05,10.95,16.64.92,1.44,1.82,3.05,1.93,4.75.33,5.23-1.07,10.02-4.18,14.28-3.64,4.98-7.27,9.96-10.91,14.94-.75,1.02-1.12,1.79.04,3,.88.92,1.65,2.09,2.4,3.19,2.73,3.96,5.1,8.12,7.45,12.31,2.3,4.12,4.3,8.37,6.25,12.63,2.77,6.06,5.19,12.28,7.34,18.6,1.67,4.9,3.64,9.69,4.8,14.76,1.09,4.79,2.25,9.54,2.78,14.47.39,3.67.49,7.33.1,10.92-.34,3.15-.12,5.98,1.48,8.81.14-.29.3-.48.34-.7,1.1-5.31,3.5-10.22,4.86-15.47,1-3.86,2.35-7.64,2.31-11.63-.04-3.68.58-7.25,1.08-10.85.18-1.28.43-2.63.2-3.87-.82-4.41-.59-8.91-1.18-13.34-.36-2.75-.46-5.56-1.14-8.24-1.27-4.95-2.11-9.94-2.61-15.03-.27-2.77-.63-5.6-2.39-7.99-.52-.71-.66-1.6-.74-2.49-.67-7.77-.17-15.56-.6-23.34-.21-3.91.72-7.95.05-11.74-.88-4.97-1.12-10.1-2.86-14.93-.22-.61-.39-1.56.42-1.9.81-.33,1.4.23,1.71,1.03.14.37.39.67.46,1.1.52,3.19,1.25,6.36,1.61,9.57.3,2.7,1.15,5.32,1.12,8.07-.12,10.57.07,21.13.36,31.7.02.74.24,1.45.57,1.92,2.57,3.58,2.47,7.82,2.89,11.86.22,2.13.45,4.22.96,6.3.59,2.42,1.38,4.78,1.64,7.31.22,2.23.5,4.45.72,6.69.23,2.36.49,4.71.6,7.09.15,3.27.59,6.38,3.38,8.7,1.89,1.57,2.58,3.62,1.27,6-.73,1.32-.81,2.83-.27,4.12,2.77,6.68,3.95,13.94,7.38,20.39.44.82.65,1.77.98,2.64.84,2.19,1.45,4.5,3.39,6.09,3.4,2.79,7.03,5.36,11.34,6.31,5.77,1.27,11.65,1.07,17.48.15,4.28-.67,8.57-1.33,12.8-2.24,3.34-.72,5.86-2.95,6.59-6.19.84-3.72,1.91-7.37,2.85-11.06.95-3.72,2.03-7.41,2.91-11.15,1.03-4.35,3.09-8.33,4.97-12.38,3.67-7.89,7.77-15.47,14.79-20.99.29-.23.44-.5.46-.9.41-6.3,1.06-12.59,1.05-18.9,0-3.54-.45-7.09-.7-10.63-.07-1.01.24-1.95-.03-3.04-.85-3.36-1.42-6.79-2.09-10.2-.53-2.68-1.41-5.28-2.13-7.91-.59-2.15-1.51-4.24-1.67-6.49-.05-.68-.26-.58-.61-.55-2.5.18-3.54,1.54-3.08,4.03.45,2.48,0,3.79-1.79,4.8-4.24,2.36-8.64,4.36-13.36,5.56-2.72.69-5.47,1.35-8.24,1.82-2.39.41-4.84.42-7.24.8-3.62.57-7.21,1.29-10.89,1.44-.93.04-1.96-.03-2.01,1.67-.04,1.3-.4,2.71-.72,4.03-.76,3.09-1.03,6.24-1.3,9.37-.27,3.1-.68,6.18-1.14,9.25-.43,2.88-1.09,5.74-1.37,8.64-.21,2.16-.9,4.22-1.1,6.37-.25,2.65-.57,5.29-1.74,7.74-1.66,3.49-4.02,6.55-4.52,10.71-.3,2.52-.83,5.18-1.12,7.71-.36,3.2-.29,6.52-.41,9.79-.03.81.06,1.57-1.1,1.58-1.21.01-1.02-.87-1.1-1.6-.38-3.42,1.02-6.76.44-10.19-.04-.26.16-.56.23-.84.36-1.43.45-2.93.52-4.35.2-3.96,1.16-7.59,3.34-10.92.93-1.43,1.79-2.87,2.27-4.56,1.09-3.87,1.32-7.87,2.08-11.79.56-2.87,1.08-5.77,1.5-8.65.58-3.98,1.29-7.95,1.46-12.01.13-3.09.89-6.15,1.47-9.21.44-2.28.82-4.44.31-6.85-.54-2.55-.76-5.21-.93-7.86-.23-3.54.44-7.08-.12-10.61-.11-.67-.29-1.11-.84-1.6-2.4-2.1-4-4.57-3.22-8.01.31-1.36.53-2.76.42-4.19-.06-.75-.14-1.66-.96-1.6-.85.05-.28.92-.31,1.44-.02.47-.05.93-.46,1.29-.42.36-.43.76-.13,1.25.49.78.42,1.68.39,2.55-.1,2.82-.16,5.62.34,8.42.17.98.14,2.01.07,3-.12,1.69-1.67,2.14-2.77,2.94-.61.44-1.31-.02-1.76-.41-.82-.71-1.06-1.77-1.3-2.79-.5-2.11-.39-4.34-.79-6.4-.77-4.01-.46-7.98-.49-11.97-.01-1.73.28-3.51,1.64-4.88.17-.17.74-.58.24-1.03-1.43-1.28-2.85-2.34-3.33-4.57-.25-1.16-1.58-2.64-2.88-3.69-1.34-1.08-2.74-2.08-4.03-3.2-1.93-1.67-3.08-3.94-4.21-6.19-2.15-4.28-4.66-8.29-8.21-11.61-2.52-2.36-5.57-3.25-8.81-3.9-2.32-.46-4.7-.83-6.86-1.72-2.01-.83-3.99-1.72-6.11-2.23-2.18-.53-3.99-2.07-6.36-2.11-2.27-.03-3.92-1.34-5.38-2.95-.59-.65-1.26-1.25-1.92-1.83-.87-.76-1.87-1.24-3.06-1.17-1.96.12-3.3-.79-4.42-2.37-1.83-2.59-4.15-4.62-7.27-5.62-2.92-.94-5.83-1.93-8.73-2.96-3.25-1.16-6.55-2.11-9.91-2.87Zm21.22-83.6c.53-.34.49-.7.04-1.07-.07-3.42.93-6.64,1.84-9.87.13-.48.37-1.01.99-1.15,1.06-.24,1.81-1.09,2.77-1.48,1.94-.8,3.62-2.12,5.98-2.1,2.97.03,5.74.5,8.35,1.86,1.05.55,1.71-.25,1.51-.88-.56-1.74.11-3.35.16-5.01.08-3.08.37-6.16.34-9.24-.04-3.59.45-7.16.11-10.78-.39-4.14-1.46-8.1-2.4-12.1-.15-.63-.05-1.42-.65-1.95-2.56-2.26-4.25-5.33-6.81-7.57-1.3-1.14-2.38-2.49-3.79-3.54-2.95-2.18-6.45-2.3-9.78-3.15-3.69-.94-7.51-1.64-10.48-4.39-.5-.46-1.27-.45-1.88.22-.68.75-1.52,1.33-2.62,1-1.04-.31-2.1-.27-3.16-.33-.35-.58-.7-.58-1.05,0-3.64.03-7.3.09-10.88.76-2.78.51-5.77.95-7.48,3.68-1.54,2.47-3.94,3.42-6.56,4.06-1.97.48-4.27.72-5.38,2.5-2.02,3.26-3.73,6.74-4.69,10.5-.12.45,0,.84.24,1.31,1.52,3.02-.27,5.72-3.67,5.55-1.68-.09-3.25.08-4.66,1.08-.84.59-1.64,1.35-2.58,1.67-1.05.35-1.16.96-.85,1.73.78,1.89-.36,3-1.57,4.06-.55.48-1.27.78-1.87,1.21-.61.44-.98.87-.37,1.72,1.31,1.82.9,2.87-1.21,3.56-1.63.53-1.97,1.32-1.25,2.93.82,1.86.47,3.94-1.27,4.62-2.32.91-3.23,2.76-4.16,4.74-.3.62-.71,1.34-1.53.92-.99-.51-1.01-1.36-.29-2.16.47-.52,1.01-.95,1.3-1.63.66-1.51,1.56-2.82,3.17-3.51,1.28-.54,1.29-1.49.74-2.57-1.24-2.43-.32-3.82,1.38-4.64,1.27-.61,1.37-1.06.44-2.16-1.13-1.34-.74-2.32.89-3.05,1.19-.53,2.14-1.42,3.19-2.17.62-.44.71-.78.36-1.56-.85-1.87-.43-2.79,1.48-3.82.56-.3,1.39-.33,1.74-.77,1.9-2.32,4.41-2.57,7.12-2.4,1.38.09,1.77-.65,1.32-1.89-.33-.9-.24-1.78-.17-2.73.23-3.54,2.72-6.14,3.72-9.38,1.02-3.33,3.87-4.94,7.14-5.82,2.41-.65,4.92-1.16,6.42-3.5,1.05-1.64,2.55-2.62,4.37-3.3,6.18-2.33,12.58-1.9,18.96-1.7.57.55.98.59,1.07-.35.43-.88-.14-1.56-.51-2.23-.86-1.59-1.71-3.21-2.72-4.71-2.82-4.18-5.74-8.11-11-9.73-5.52-1.7-11.23-2.12-16.85-3.12-2.16-.38-4.43-.26-6.64-.39-4.06-.23-8.14-.06-12.21-.05-1.18,0-2.36.07-3.54.05-.66-.01-1.12-.38-1.15-1.09-.04-.72.37-1.07,1.05-1.16.35-.05.7-.16,1.05-.17,6.19-.23,12.39-.26,18.58.02,2.24.1,4.5.41,6.67.94,3.04.73,6.16.87,9.19,1.68,2.43.65,4.91,1.18,7.2,2.17,4.71,2.04,7.24,6.32,9.91,10.39,1.36,2.07,2.22,4.34,4.28,6.08,3.91,3.3,8.53,4.42,13.27,5.49,1.95.44,3.97.42,5.84,1.35,4.5,2.22,7.83,5.75,10.84,9.59,1.42,1.81,3.51,3.09,4.25,5.47.41,1.32,1.31,2.32.93,4.02-.27,1.18.86,2.64.91,4.09-.07.31-.1.61.31.72.11.79.15,1.44,1.37,1.08,3.24-.94,5.55-2.87,6.77-6,1.01-2.6.84-5.3.36-7.98-1.04-5.86-3.42-10.89-8.82-14.01-.62-.35-1.36-.71-1.04-1.58.28-.76,1.02-.78,1.65-.47.62.3.91-.07.7-.45-.64-1.15-.87-2.48-1.78-3.51-1.51-1.7-3.61-2.43-5.52-3.46-1.23-.66-2.55-1.15-3.44-2.28-1.44-1.84-2.73-3.76-3.86-5.83-1.26-2.32-3.28-4-5.89-4.77-1.83-.54-3.71-.67-5.62-.77-3.38-.18-6.17-2.13-9.11-3.53-4.04-1.93-7.53-4.79-12.53-4.74-3.59.03-7.01-.22-10.24,1.61-.65.37-1.25.4-2.08,0-2.26-1.12-4.39-2.63-6.9-3.15-4.37-.91-8.66-3.01-13.28-1.13-1.93-.84-3.78.07-5.59.43-7.21,1.45-14.29,3.27-19.3,9.34-1.83,2.22-4.24,3.79-6.74,5.11-4.97,2.63-7.83,6.47-7.8,12.24,0,1.16.17,2.32-.29,3.47-.22.55-.21,1.61.59,1.59,1.84-.05,3.29.98,4.96,1.38,2.23.54,4.49.9,6.75,1.26,4.43.71,8.84,1.34,13.34,1.37.78,0,1.56-.07,2.34-.08,5.02-.07,10.1.7,15.05-.7,1.11-.31,1.73-.08,1.93.92.17.84-.68,1.01-1.28,1.27-2.58,1.08-5.31.73-8,.87-6.24.33-12.46-.04-18.68-.51-2.53-.19-5.03-.6-7.52-1.08-2.69-.52-5.36-1.16-7.92-2.15-.72-.27-1.3-.28-1.97.2-1.28.92-2.47,1.93-2.97,3.46-.92,2.84-2.29,5.64-1.58,8.74.25,1.09.26,2.48,1.73,2.9.6.17,1.11.41,1.25,1.09.17.87-.65.98-1.07,1.41-.56.58-1.24.15-1.83.32-1.79.52-3.77-.12-5.47,1.23-4.34,3.44-6.94,8.01-8.29,13.19-.64,2.45-.58,5.26,1.62,7.34,1.33,1.25,2.66,2.5,3.95,3.78.33.33.56.82,1.11.59.41-.17.5-.64.52-1.05.23-3.54,1.91-6.37,4.42-8.72,1.86-1.74,4.11-2.31,6.7-2.04,3.12.32,5.22,2.16,7.32,4.18,2.69,2.6,4.55,5.65,5.32,9.33.2.94-.12,1.73-1.01,1.96-.91.24-1.17-.64-1.37-1.3-.19-.61-.19-1.27-.31-1.9-.76-3.98-3.84-6.28-6.61-8.65-2.67-2.29-6.85-1.79-9.27.63-2.43,2.43-3.08,5.7-3.24,8.81-.26,5.18-.36,10.4,1.29,15.52,1.57,4.86,4.37,8.56,8.92,11.58-.47-2.58.56-3.87,2.57-4.61.99-.36,1.35-1.4,1.17-2.29-.47-2.34.4-4.48.8-6.67.16-.86.24-1.44-.36-2.17-1.38-1.67-2.41-3.48-1.47-5.78.35-.86.59-1.77.96-2.62,1.15-2.59,1.17-2.59-.87-4.63-.25-.25-.47-.55-.76-.74-3.66-2.42-5.45-3.28-8.4.33-.07.09-.13.2-.21.29-.31.31-.55.85-1.12.35-.39-.34-.62-.73-.49-1.24.55-2.09,2.8-3.78,5.07-3.81,4.49-.06,7.21,2.77,9.62,6.02.55.74.38,1.76-.1,2.5-.67,1.04-.86,2.24-1.4,3.32-.76,1.54-.51,3.05.69,4.34.95,1.02,1.34,2.29,1,3.57-.56,2.06-.5,4.19-.89,6.27-.35,1.89-.41,3.97.09,5.94.06.07.11.14.17.21.07-.1.14-.19.2-.29.23-.4.44-.82.69-1.2.38-.58.89-1.06,1.61-.78.62.24.98.75.95,1.52-.21,5.28.49,10.51,1.05,15.74.36,3.38,1.02,6.7,2.05,9.94,1.74,5.46,5.16,9.91,8.54,14.39.31.41.75.74.78,1.34.03.5-.03.94-.48,1.24-.54.35-.86-.02-1.19-.37-5.08-5.54-8.99-11.73-10.82-19.12-.42-1.7-.52-3.44-.79-5.28-1.82,1.68-1.92,2.45-5.72,3.17-.54.1-.8.36-.88.91-.34,2.51-.82,5-1.03,7.51-.34,4.07-.89,8.14-1.79,12.09-1.61,7-3.92,13.82-8.47,19.57-.77.98-.58,1.37.16,2.07,5.48,5.13,10.98,10.22,16.43,15.37,5.96,5.63,11.65,11.56,17.41,17.39,2.93,2.97,6.2,4.19,10.06,4.42,5.85.35,11.54-.89,17.06-2.61,1.55-.49,3.35-1.54,3.79-3.91.61-3.29,1.28-6.58,1.99-9.86.63-2.91,1.41-5.79,2.15-8.67.15-.58.27-.81-.51-1.23-1.31-.72-2.8-.66-4.08-1.42-2.47-1.47-4.94-3.03-7.47-4.3-3.54-1.78-6.44-4.31-9.44-6.71-3.29-2.63-6-5.91-8.8-9.07-.57-.64-1.04-1.39-1.46-2.14-.31-.55-.29-1.17.31-1.57.62-.4,1.07-.18,1.47.41.36.53.81.99,1.23,1.48,3.37,3.99,6.8,7.96,11,11.08,5.79,4.3,11.76,8.37,18.81,10.37,3.79,1.07,7.55,2.51,11.66,1.59,2.82-.63,5.28-1.87,6.94-4.17,3.22-4.47,6.27-9.06,9.27-13.68,2.29-3.52,5.02-6.71,7.27-10.27,2.06-3.26,4.49-6.3,6.32-9.71,3.33-6.2,6.41-12.51,6.7-19.73.18-4.43,0-8.88.7-13.29.09-.54.04-1.13-.55-1.37-1.27-.52-2.56-.97-3.86-1.45-.35,4.96-2.53,5.28-5.47,5.34-.78.02-1.57-.13-2.33-.29-.47-.1-.87-.2-.81.45.17,1.85-.26,3.7.25,5.58.74,2.77,1.22,5.6,1.82,8.41l-.29.16c.1.05.19.1.29.15.24,1.31.16,2.62,0,3.92-.53.33-.51.69-.06,1.07-.37,1.38-1.41,2.19-2.52,2.89-2.47,1.56-5.44,2.05-7.87,3.73-.57.39-1.49.29-1.81-.51-.29-.7.29-1.23.85-1.53,1.68-.91,3.3-1.9,5.15-2.53,1.45-.49,3.49-.81,3.69-2.74.21-2.08.17-4.21-.13-6.34-.4-2.76-1.81-5.32-1.54-8.19.07-.09.15-.17.22-.26-.08-.04-.16-.07-.24-.11-.32-2.96-.04-5.91,0-8.87Zm-40.4,109.46c-.37.28-.78.54-.64,1.11-.02.34-.04.68-.06,1.03-.44.52-.8,1.07-.66,1.8.1.97-.43,1.79-.67,2.68-.9,3.29-1.68,6.62-2.86,9.83-.32.88-.93,1.95-1.74,1.06-.72-.79-1.68-1.35-2.28-2.33-1.06-1.73-2.15-3.52-3.42-5.04-3.41-4.06-5.58-8.99-9.44-12.74-1.82-1.76-3.39-3.9-5.17-5.7-2.41-2.44-4.99-4.79-7.52-7.15-5.36-4.99-10.2-10.52-15.52-15.58-5.34-5.07-10.55-10.27-15.81-15.42-1.46-1.43-3.24-1.22-3.98.74-1.14,3.02-3.63,4.69-5.92,6.61-1.14.95-2.43,1.5-3.88,1.8-1.82.38-3.57.99-5.06,2.16-.71.56-1.61,1.06-.26,2.08.93.71,1.7,1.65,2.65,2.4,4.89,3.82,8.67,8.65,12.17,13.73,2.67,3.87,5.13,7.84,7.35,11.99,2.25,4.19,4.74,8.24,6.57,12.67,2.91,7.05,5.33,14.27,7.89,21.45.78,2.19,2.01,4.38,2.09,6.61.08,2.33.9,4.44,1.42,6.52,1.09,4.38,2.97,8.57,3.89,13.04.1.47.33,1.02-.07,1.29-.43.3-.99.1-1.47-.22-.55-.37-.99-.9-1.12-1.45-1.15-5.06-3.15-9.86-4.31-14.91-.55-2.38-.59-4.96-1.54-7.15-1.15-2.65-2.03-5.38-2.98-8.08-2.56-7.28-5-14.59-8.55-21.49-2.34-4.55-4.86-8.98-7.43-13.4-2.19-3.76-4.98-7.09-7.42-10.68-.59-.87-1.18-1.78-1.96-2.58-2.15-2.2-4.58-4.08-6.72-6.26-1.89-1.92-3.71-2.33-6-.86-4.96,3.19-9.86,6.49-14.76,9.76-2.91,1.94-5.73,4.03-8.7,5.89-7.85,4.91-16.11,9.06-24.53,12.94-3.25,1.5-6.69,2.38-9.98,3.73-2.83,1.16-5.89,1.83-8.32,3.83-5.75,4.74-8.55,11.53-12.22,17.7-1.12,1.88-2.1,3.85-3.11,5.8-1.57,3.05-3.24,6.06-4.63,9.2-1.33,3.02-2.37,6.17-3.59,9.23-3.17,7.96-6,16.03-8.17,24.32-.5,1.89-.63,3.85-1.06,5.72-.4,1.79-.77,3.58-1.14,5.38-.35,1.71-.28,3.47-.6,5.09-.28,1.44-.34,2.95-.65,4.4-.49,2.26-.11,4.71-.84,7-.45,1.4.1,2.95-.25,4.2-.53,1.94-.49,3.9-.69,5.82-.15,1.48-.05,2.99-.58,4.43-.1.27-.17.47-.15.79.24,3.39-.98,6.72-.47,10.13.06.41-.32.6-.48.9-.24.48-.34,1-.45,1.54-.74,3.56-.54,7.2-1.09,10.78-.95,6.28-1.78,12.58-2.58,18.88-1.28,10.11-1.42,20.32-2.46,30.46-.7,6.86-.89,13.75-1.72,20.61-1.16,9.54-4.34,18.31-9.55,26.35-1.23,1.9-2.28,3.86-2.74,6.09-.42,2.06-.15,3.94,1.31,5.62,1.37,1.57,2.95,2.89,4.53,4.21,4.33,3.63,8.94,6.71,14.77,7.39,1.54.18,2.76,1.03,3.48,2.45,1.97,3.9,3.87,7.79,3.47,12.4-.23,2.67.53,5.06,2.84,6.86,2.22,1.74,3.97,3.98,5.8,6.14,4.48,5.31,8.14,11.23,12.47,16.65,4.39,5.48,7.55,11.87,12.32,17.1.77.84,1.31,1.91,1.83,2.93,1.81,3.55,4.04,6.54,8.14,7.79,2.4.73,4.64,2.01,7.03,3.08.14-2.53.65-4.79,1.15-7.04.51-2.3,1-4.61,1.64-6.87.65-2.32.9-4.87,2.52-6.77.9-1.06.7-1.56-.17-2.37-1.83-1.69-3.04-3.74-2.96-6.33.09-2.64,2.17-4.23,3.53-6.16.75-1.07,1.73-2.02,2.55-3.08,1.7-2.22,3.4-4.46,5.26-6.55,3.7-4.15,8.55-6.65,13.58-8.69,2.15-.87,4.6-1.1,7.06-.84,1.72.18,3.41.71,5.46.75-1.27-1.75-2.48-3.21-3.46-4.81-2.4-3.9-4.81-7.79-7-11.81-2.66-4.89-6.71-8.29-11.15-11.43-2.18-1.54-4.01-3.17-4.33-6.48-.39-4.11-1.75-8.24-5.05-11.25-.84-.77-1.32-1.7-1.16-2.81.46-3.34-.67-6.25-1.98-9.25-1.85-4.26-1.06-5.32,2.86-5.89,1.85-.27,2.65-1.47,3-3,.74-3.24,1.21-6.52,1.2-9.88,0-3.37-.22-6.77.63-10.1.71-2.76.77-5.62,1.38-8.4.85-3.84,1.24-7.78,2.11-11.62.79-3.49,1.32-7.01,1.42-10.56.1-3.35.37-6.69.49-10.04.02-.69-.07-1.35.11-2.08.94-3.69,1.55-7.5,2.06-11.23.41-3.01,1.16-5.88,2.31-8.51,1.7-3.89,1.86-7.89,2.14-11.94.21-2.99-.42-5.94-.71-8.9-.19-1.95-.56-3.93-1.12-5.77-1.15-3.78-1.51-7.76-3.03-11.45-.17-.42-.82-1.69.67-1.88,1.22-.16,2.07.4,2.05,1.52-.06,3.08,2.13,5.63,1.88,8.76-.05.68,1.02,1.48.93,2.13-.5,3.52,1.37,6.68,1.37,10.2,0,2.32-.19,5.03,1.12,7.32.09.16-.15.54-.3.78-.43.72-.56,1.53-.68,2.33-.31,2.22-.29,4.54-1.53,6.5-.98,1.56-1.71,3.19-1.92,5.01-.4,3.46-1.83,6.72-2.08,10.15-.15,2.05-.78,4-.79,6.09,0,.99.81,1.85.41,2.66-1.08,2.17-.71,4.45-.77,6.7-.05,2.08-.36,4.15-.49,6.22-.22,3.53-2.11,6.87-1.38,10.56.04.18-.11.47-.26.61-.65.62-.59,1.38-.7,2.21-.33,2.55-.83,5.09-1.45,7.58-.53,2.12-.87,4.25-1.16,6.41-.59,4.45.33,8.94-.63,13.36-.42,1.91-.27,3.74.16,5.76.45,2.12,1,4.13,2.01,5.97,2.43,4.44,7.66,6.85,12.64,2.78,2.19-1.79,4.37-3.6,6.5-5.47,1.89-1.65,3.97-3.08,5.9-4.7,2.8-2.35,5.47-4.88,8.32-7.17,3.37-2.71,7.38-4.41,11.07-6.63.66-.4,1.34-1.01,2.26-.77.34.07.58-.04.71-.37h.35c.56.11.81-.28,1.07-.65,2.62-.66,5.24-1.34,7.87-1.98.83-.2,1.99-.59,2.3.45.3.98-.91,1.31-1.63,1.76-.14.09-.33.1-.5.14-2.34.55-4.66,1.14-6.96,1.86-4.46,1.39-8.42,3.71-12.38,6.1-.95.57-1.96,1.08-2.82,1.78-2.08,1.69-4.08,3.48-6.13,5.21-2.55,2.16-5.1,4.3-7.75,6.53.32.15.48.3.61.27,2.33-.41,4.47-1.47,6.83-1.83,1.77-.27,3.45-1.28,5.22-1.44,3.41-.31,6.68-1.31,10.07-1.72,2.68-.32,5.36-.71,8.02-1.24,3.32-.65,6.74-.85,10.05-1.5,3.33-.65,6.68-.78,10-1.23,2.75-.37,5.57-.47,8.3-.86,5.19-.76,10.38-1.17,15.6-1.33,5.25-.16,10.5-.12,15.75-.07,6.53.06,13,.94,19.51,1.22,2.6.11,5.26.31,7.74,1.01,1.84.52,2.37,0,3.01-1.51.57-1.36,1.3-2.44,1.11-4.17-.28-2.53-1.38-5.05.32-7.77,2.13-3.4,1.37-7.2-.01-10.82-.42-1.1-.71-2.26-.96-3.42-.28-1.28.46-2.01,1.61-2.34.92-.26,1.86-.14,2.8.04,4.7.92,8.85,3.06,12.36,6.18,2.41,2.14,4.7,2.45,7.6,1.48,2.23-.74,4.6-1.03,6.96-.52,1.34.29,2.5.96,2.68,2.46.36,2.89-.18,5.53-2.53,7.53-.94.8-1.86,1.61-2.86,2.48,1.46,1.23,2.93,2.41,3.96,4.02,1.14,1.79.89,2.84-1.11,3.53-2.34.8-4.74,1.43-7.1,2.14-1.01.31-1.98.7-2.79,1.84,2.2-.43,4.13-.84,6.09-1.18,6.38-1.1,12.85-1.41,19.29-2,1.41-.13,1.63-.67,1.56-1.86-.21-3.33.3-6.59,1.21-9.79.97-3.41,1.96-6.81,2.88-10.23.4-1.49,1.02-3.06.87-4.52-.22-2-1.17-3.9-2.17-5.69-2.27-4.06-4.42-8.19-6.83-12.17-8.12-13.41-18.12-25.35-28.85-36.72-4.87-5.15-9.56-10.47-14.3-15.74-6.59-7.34-13.83-14.03-21.42-20.26-5.6-4.6-11.12-9.34-17.16-13.42-6.16-4.15-11.51-9.43-17.92-13.28-.81-.49-.87-1.1-.4-1.88.59-.96,1.26-.38,1.75-.03,4.3,3.16,8.65,6.26,12.84,9.58,3.26,2.59,6.82,4.81,10.08,7.41,5.71,4.56,11.53,8.99,16.92,13.94,5.49,5.04,11.22,9.8,16.18,15.43,8.47,9.62,17.42,18.82,25.85,28.47,7.57,8.67,14.56,17.81,20.12,27.96.73,1.34,1.55,2.65,2.63,3.8.85-5.79-.03-11.4-.84-16.95-.84-5.76-2.82-11.29-4.43-16.89-.88-3.08-2.15-6.05-3.23-9.08-2.2-6.15-4.66-12.18-7.38-18.12-1.66-3.62-3.55-7.12-5.3-10.69-1.48-3.03-3.18-5.99-5.11-8.76-2.74-3.94-5.77-7.68-8.69-11.49-4.33-5.63-8.55-11.34-13.06-16.82-1-1.21-2.28-2.22-2.91-3.74-.31-.75-.13-1.3.48-1.65.62-.35,1.17,0,1.44.59.83,1.86,2.5,3.05,3.68,4.63,2.08,2.78,4.31,5.46,6.46,8.19,2.6,3.3,5.18,6.6,7.83,9.97,3.39-5.59,8.01-10.13,11.33-15.62,1.71-2.83,3.32-5.62,3.84-9.04.53-3.46-.27-6.28-2.24-9.02-2.24-3.11-4.55-6.21-6.4-9.56-1.32-2.38-2.83-4.62-4.38-6.81-2.97-4.19-5.44-8.66-7.99-13.1-1.26-2.19-2.23-4.52-3.49-6.67-1.1-1.88-1.98-3.78-2.6-5.83-.63-2.09-.77-4.39-1.57-6.33-1.2-2.89-1.93-5.96-3.45-8.72-.8-1.45-1.56-2.91-2.35-4.36-1.72-3.13-4.36-5.54-6.6-8.26-2.29-2.77-4.28-5.76-6.67-8.89-1.94,6.94-3.26,13.68-4.41,20.45-.47.04-.47.35-.41.7-.02.46-.04.92-.06,1.38-.21.05-.36.14-.23.39-.04.34-.09.68-.13,1.02-.44.52-.79,1.08-.65,1.81-.06.51-.04,1.06-.21,1.54-.88,2.49-1.42,5.06-1.97,7.64Zm152.06,232.53c.25,3.65.19,7.24.04,10.83-.12,2.88-.42,5.75-.29,8.66.37,7.95,1.84,15.83,1.34,23.83-.07,1.12-.02,2.24.05,3.36.44,6.87,1.09,13.73,1.31,20.61.35,10.53.49,21.06,1.38,31.57.81,9.48,1.01,19.02,1.94,28.5.33,3.34.87,6.65,1.32,9.98.34,2.52.73,5.03,1.02,7.56.22,1.83-.15,3.56-1.43,4.95-1.25,1.37-1.16,2.09.6,2.71,1.44.51,2.96.82,4.39,1.36,4.57,1.71,9.27,3.03,14.13,3.29,5.91.33,11.82.68,17.73,1.03,6.33.37,12.72.84,19.06.27,7.64-.69,15.28-1.12,22.95-1.26,1.3-.02,2.61.15,3.89-.02,4.71-.62,9.43-1.1,14.17-1.31,5.79-.26,11.52-.69,17.06-2.54,2.4-.8,4.72-1.76,6.82-3.14,1.63-1.07,1.97-3.91.51-4.46-2.43-.92-2.54-2.94-2.58-4.87-.13-5.84-.09-11.68-.09-17.53,0-2.41-.16-4.85.11-7.24.34-3.07.82-6.12.91-9.2.35-11.98.24-23.96.73-35.94.4-9.73-.04-19.47.29-29.21.39-11.56.11-23.14.07-34.71,0-1.94-.21-3.89-.38-5.83-.04-.43.09-1.22-.88-.67-2.41,1.35-5.08,1.97-7.77,2.24-7.9.81-15.78,1.9-23.73,2.03-8.73.15-17.46.19-26.2-.15-8.39-.33-16.68-1.41-25.02-2.15-6.46-.58-12.93-.85-19.44-.66-7.94.22-15.92.26-24.02-1.89Zm-194.13,81.12c-1.28-1.01-2.69-.92-4-1.24-5.12-1.26-10.24-2.55-15.32-3.94-2.98-.81-6.01-1.41-9-2.17-1.91-.48-4.05-.91-6.16-.46-.78.17-1.66.15-2.43-.27-3.57-1.92-7.25-3.6-10.74-5.69-.95-.57-2.32-1.5-3.47-.47-2.02,1.8-3.94,3.72-5.61,5.88-3.26,4.2-6.72,8.23-9.61,12.73-1.04,1.62-2.05,3.43-3.77,4.56-.52.34-.58.91-.4,1.42.83,2.38,2.54,4.49,2.11,7.25-.04.24.34.59.59.81.8.69,1.61,1.37,2.46,1.99,2.85,2.08,6.16,3.43,8.53,6.32,1.6,1.95,2.14,4.24,3.09,6.36,2.96,6.61,5.99,13.19,8.5,19.99,1.86,5.03,5.96,7.48,10.7,9.53-.14-2.65,1.11-4.73,1.96-6.95.59-1.53,2.81-2.67,2.11-4.2-.63-1.38-2.55-2.16-3.9-3.22-1.53-1.2-3.08-2.39-4.56-3.64-.58-.49-.81-1.25-.24-1.89.6-.68,1.27-.38,1.87.11.87.7,1.75,1.4,2.63,2.1,6.64,5.32,13.44,10.33,21.5,13.44,5.11,1.97,10.43,3.27,15.49,5.36,4.5,1.86,9.23,2.88,14.07,3.77-1.57-2.28-1.17-4.4.43-6.51-1.65.04-3.07-.3-4.49-.69-4.25-1.15-8.11-3.19-12.02-5.1-7.7-3.76-15.06-8.11-21.87-13.31-4.14-3.16-7.36-7.31-10.97-11.04-.61-.63-.89-1.33-.22-2,.68-.68,1.35-.07,1.84.33.94.79,1.81,1.68,2.65,2.59,3.15,3.44,6.19,7.06,10.07,9.67,8.08,5.42,16.41,10.45,25.39,14.31.37.16.76.57,1.25.23-.85-3.84,1.12-5.11,7.48-4.75-1.93-2.24-4.08-4.04-6.47-5.54-3.44-2.17-6.93-4.25-10.48-6.26-3.83-2.17-7.51-4.57-10.05-8.37-2.39-3.57-2.48-7.9-4.12-11.73-.97-2.27-1.28-4.83-1.94-7.24-.22-.82-.68-1.73.44-2.08,1.17-.37,1.57.7,1.74,1.53.37,1.82.8,3.6,1.58,5.51,2.19-7.47,6.47-13.27,13.4-17.04Zm190.33-393.26c-2.12.73-3.63.09-4.46-1.93-.27-.67-.63-1.2-1.3-1.53-1.96-.97-3.85-2.05-5.64-3.3-.46-.32-1.01-.1-1.28.26-.9,1.22-2.03,2.25-2.79,3.59-1.58,2.76-2.47,5.9-4.7,8.31-1.04,1.12-.71,1.76.82,2.06,1,.2,2.07.29,2.97.61,4.95,1.75,9.79,3.83,14.48,6.21.68.35,1.45.91.93,1.8-.56.96-1.55.64-2.13.08-.71-.68-1.56-1.44-2.33-1.58-3.33-.62-6.1-2.58-9.28-3.57-2.14-.66-4.38-1.01-6.46-2-1.17-.55-2.99-.73-3.9.02-1.36,1.11-2.86,2.27-3.71,3.93-.76,1.47-.39,3.25.95,4.15,1.24.83,2.51,1.82,3.91,2.18,3.53.92,6.28,3.12,9.14,5.12,2.42,1.7,4.88,3.17,7.87,3.49.66.07,1.61-.24,1.47.9-.1.84-.74,1.21-1.63,1.26-1.34.07-2.5-.54-3.74-.84-.37-.09-.74-.53-1.08-.02-.8,1.21-2.15,1.92-2.83,3.25-.99,1.92-2.76,3.08-4.36,4.42-2.2,1.84-4.47,3.92-4.95,6.76-.72,4.24-1.14,8.58.51,12.82.61,1.57,1.15,3.31,1.12,4.96-.05,3.58.22,7.17-.27,10.77-.37,2.7.92,4.09,3.63,4.54.28.05.62-.08.86.02,6.07,2.54,12.47,2.77,18.89,2.43,1.47-.08,3.23-.22,4.07-2.39.62-1.6,1.29-3.61,2.97-4.53,1.42-.77,1.63-1.9,1.6-3.17-.09-4.57.73-9,1.88-13.38,1.18-4.5,1.84-9.15,4.09-13.35,1.67-3.11,3.46-6.25,4.49-9.59,1.54-5.02,4.45-9.25,7.17-13.52,2.38-3.74,3.67-7.56,3.72-11.87.06-4.7-.24-9.38-.59-14.07-.32-4.3-.79-8.58-1.22-12.86-.43-4.34-2.16-8.02-6.19-10.04-4.58-2.3-8.51-5.66-13.24-7.74-2.09-.92-3.89-1.83-6.15-.7-.86.43-1.86.62-2.83.75-1.11.14-2.3-.03-1.98,1.75.05.28-.4.69-.68.98-1.87,1.92-4.21,3.01-6.77,3.65-.69.17-1.48-.19-2.16.26.1.2.12.33.2.39,1.29,1.13,2.94.61,4.4.93,2.64.57,5.24,1.47,8.02.56,1.09-.36,1.99.05,2.95.97,3.83,3.69,7.93,7.06,12.98,9.03,1.98.77,2.65,2.06,2.2,4.35-.37,1.92-.38,3.89-.13,5.79.22,1.66.07,3.23-.04,4.87-.25,3.84-.56,7.67.73,11.5,1.79,5.32,2.63,10.83,1.72,16.48-.11.66-.35,1.21-.71,1.74-.23.33-.6.41-.94.22-.23-.13-.58-.54-.54-.61.7-1.05-.21-2.13.13-3.2.79-2.51-.93-5.18.42-7.68-1.21-1.16-.83-2.87-1.43-4.24-.13-.29-.29-.67-.57-.47-1.02.71-2.39.56-3.32,1.52-2.53,2.6-4.37,2.82-7.18.75-1.2-.88-2.59-.65-3.73-.56-1.13.09-1.48-.21-1.69-1.02-.33-1.3-.35-2.7-.84-3.92-.86-2.13-.86-4.41-1.53-6.72Zm-186.84,391.45c1.17-.33,2.41-.72,3.67-1.05,2.3-.6,4.55-1.58,6.98-1.47,2.95.13,5.82.61,8.33,2.39.31.22,1.35,1.33,1.46-.2.05-.75.02-1.6-.1-2.33-.55-3.38-.97-6.77-1.46-10.15-.57-3.95-.78-7.92-1.05-11.85-.35-5.06-.52-10.17-.54-15.26,0-.68-.27-.99-.95-.91-.64.08-1.29.14-1.92.27-4.52.95-9.11,1.37-13.72,1.55-1.45.06-3.12-.21-4.3.25-3.29,1.28-6.69,1.16-10.05,1.5-3.98.4-7.93-.17-11.89-.67-2.45-.31-4.8-.84-6.93-1.92-1.55-.78-2.98-1.8-4.7-2.25-8.44-2.22-16.89-4.43-25.33-6.66-.41-.11-.77-.26-1.12.13-.63.72-1.08,4.21-.6,5,2.05,3.37,4.28,6.61,6.5,9.86,1.66,2.43,3.98,4.22,5.71,6.59,2.74,3.75,5.76,7.11,10.22,9.23,3.13,1.49,5.06,4.68,5.28,8.46.05.8.15,1.2,1.17,1.31,2.43.25,4.86.65,7.24,1.19,4.02.91,8.04,1.86,12,3.01,3.21.93,6.54,1.23,9.72,2.41,1.94.72,4.09,1.32,6.38,1.58Zm243.65-181.49c-2.03-2.1-3.42-4.2-4.43-6.65-.98-2.37-1.14-4.81-1.12-7.22.02-2.61-.4-3.1-2.96-2.41-2.52.67-4.26,2.51-6.37,3.8-2.82,1.72-5.83,3.17-8.53,5.11-2.92,2.1-5.43,4.74-7.56,7.58-3.72,4.97-6.11,10.69-7.9,16.6-4.78,15.81-8.99,31.77-11.9,48.04-.81,4.5-1.25,9.03-1.14,13.77,3.9-4.8,7.94-9.23,13.44-11.8,4.43-2.07,8.91-4.02,13.29-6.18,4.37-2.16,9.27-2.67,13.76-4.49,4.44-1.8,6.05-4.21,5.37-8.94-1.12-7.87-2.17-15.75-3.73-23.56-.25-1.26-.59-1.89-2.02-2.07-2.31-.29-3.84-1.86-4.05-3.63-.19-1.58.97-2.97,3.07-4.09,2.24-1.2,4.64-.45,7-.81-.07-.36-.11-.71-.2-1.05-.78-3.13-1.59-6.24-2.32-9.38-.45-1.95.17-2.63,2.12-2.61,1.95.02,3.9,0,6.17,0Zm-24.87-30.38c.38,3.71-1.31,7.26-.88,10.95.05.44-.25,1.06.21,1.3.59.31.94-.35,1.31-.67,1.46-1.27,2.97-2.46,4.85-3.03,1.05-.32.65-1.02.35-1.52-1.43-2.37-1.33-4.79-.33-7.24.81-2,3.11-3,4.45-1.85,2,1.72,3.52,3.88,4,6.47.28,1.5.86,1.26,1.84,1.03,1.79-.42,3.59-.89,5.44-.24.76.27,1.08-.2,1.27-.83.65-2.12,2.11-3.63,3.79-4.95.53-.41.92-.84.9-1.6-.23-8.58.53-17.22-1.53-25.7-.2-.81-.49-1.05-1.34-1.25-2.56-.58-5.02-1.47-6.08-4.23-.41-1.07-1.12-1.42-2.19-1.32-3.93.37-7.37-.62-10.14-3.6-.63-.68-1.01-1.34-.75-2.19.29-.95.94-1.64,1.99-1.78,3.43-.46,6.87-.88,10.34-.68.98.05,1.67-.24,2.27-1.02,1-1.3,2.38-1.9,4.01-1.75,1.7.15,2.41-.59,2.68-2.26.62-3.73-.24-7.41-.13-11.12.07-2.04-.23-4.07-.54-6.12-.42-2.73-.09-5.56-.19-8.35-.03-.84-.38-1.7-.7-2.5-.3-.77-.94.11-1.38-.17-1.16-.72-2.1.29-3.14.45-4.06.62-8.18.79-12.2,1.73-1.2.28-2.48.61-3.65.6-2.42-.02-4.73.69-7.03,1.09-3.29.57-6.59,1.13-9.89,1.67-.38.06-1.74.12-1.12,1.03.54.8.52,1.62.79,2.41,1,2.98,1.77,6.03,2.32,9.13.53,3,1.31,5.96,1.66,8.98.25,2.18.86,4.25,1.2,6.39.26,1.67.32,3.39.77,5.01,1.28,4.67,2.93,9.22,3.94,13.99.64,3.02,1.36,6.07,1.79,9.11.68,4.83.72,9.75,1.04,14.64Zm-233.25-191.58c3.36.64,4.96-.04,5.78-2.34.75-2.1-.16-4.49,1.09-6.51.01-.02-.08-.08-.1-.14-.68-1.58-.31-3.27-.47-4.9-.12-1.2-.45-1.32-1.36-.74-.88.56-1.72,1.34-2.85,1.07-1.87-.44-2.78.02-3.69,1.98-2.04,4.39-9.56,6.97-14.89,4.5-2.32-1.08-4.5-2.26-5.71-4.66-.32-.63-.46-1.31.15-1.75.63-.45,1.35-.11,1.62.5,1.29,2.84,3.9,3.81,6.55,4.47,4.15,1.02,8.38-.73,10.52-4.63.37-.67.47-1.17-.4-1.85-3.87-3.04-6.92-6.65-8.23-11.63-.49-1.88-.86-3.7-1.15-5.61-.36-2.38-.97-4.73-.79-7.14.12-1.58.08-2.75-1.68-3.43-.91-.35-1.67-1.21-2.35-1.96-.79-.87-1.29-.62-1.51.32-.36,1.53-1.2,2.83-1.84,4.21-1.08,2.34-2.7,4.36-4.98,5.48-3.12,1.52-6.5,2.42-10.04,1.97-1.23-.16-.9.22-.67.93.77,2.33,2.51,3.74,4.59,4.71,1.56.73,3.33,1.37,5.02.55,3.65-1.77,6.25-4.5,7.11-8.62.12-.56.39-1.1.57-1.65.22-.66.68-.98,1.35-.86.81.14.91.76.96,1.47.06.74-.62,1.13-.71,1.74-.47,3.32-2.42,5.72-4.83,7.8-2.46,2.12-5.25,3.06-8.53,2.19-2.44-.65-4.4-2.03-6.22-4.09-.32,1.6-.39,2.79.09,4.06,1.78,4.69,5.79,6.26,10.17,7.01,3.74.64,6.33-1.71,8.41-4.42.68-.88,1.28-1.12,1.96-.63.72.51.41,1.31-.11,1.98-3.24,4.13-6.28,6.11-11.6,5.06-2.05-.4-4.1-.86-5.74-2.29-.2-.18-.25-.27-.51-.06-1.12.94-1.73,4.34-1.05,5.7,1.52,3.03,3.74,5.06,7.27,5.3.51.03.98.17,1.04.73.05.55-.5.78-.86,1.03-.25.18-.68.14-1.03.15-2.47.07-4.41-.97-5.99-2.81-.79-.92-1.49-1.04-2.68-.32-2.44,1.51-3.73,3.78-4.94,6.21-1.42,2.84-.66,6.87,1.82,8.77.63.48,1.45.72,2.21,1.01.72.28,1.34.63,1.13,1.51-.22.91-1.01.87-1.73.8-.52-.06-1.02-.21-1.54-.33-.68,4.32.85,7.47,4.39,8.22,2.31.49,4.46.02,6.55-1.19,1.38-.79,2.11-2.3,3.6-2.89.48-.19,1.04-.73,1.46.1.3.59.22,1.13-.3,1.58-.88.76-1.74,1.57-2.66,2.29-2.78,2.2-5.72,3.77-9.35,2.04-.41-.19-.68.03-.91.15-.3.17-.02.47.09.74,1.65,3.92,4.33,6.7,8.46,8.04,1.53.5,2.76.02,4.11-.58,1.64-.73,2.89-1.89,4.11-3.13,1.37-1.38,2.82-2.71,4.07-4.19.57-.68,1.05-.97,1.72-.47.91.67.3,1.43-.19,1.95-1.38,1.47-2.58,3.1-4.05,4.51-2.26,2.17-4.77,3.72-7.82,4.35-.55.11-.34.36-.48.65-.78,1.62.53,2.39,1.26,3.29,3.29,4.1,7.1,5.34,12.4,3.53,2.32-.79,4.02-2.36,5.22-4.52,1.76-3.18,4.01-6.11,4.96-9.71,1.36-5.18,1.95-10.49,2.77-15.77.31-1.96.75-3.91.81-5.92.02-.6-.18-1.05-.53-1.42-.08-.09-.71.28-1.03.51-1.49,1.07-3.14,1.44-4.98,1.52-3.69.17-7.12-.83-10.53-2.01-.79-.27-1.72-.58-1.43-1.66.33-1.25,1.41-.88,2.21-.67,1.71.44,3.36,1.1,5.07,1.55,6.07,1.59,9.98-.31,13.18-6,.6-1.07.98-2.27,1.42-3.42.32-.83.73-1.64,1.76-1.26,1,.36.65,1.22.41,1.96-.95,2.92-2.28,5.64-4.45,7.97Zm105.94,415.13c-.01,4.71-.09,8.48.31,12.25.08.77.12,1.32,1.05,1.52,3.88.83,7.77.91,11.69.32.71-.11.94-.52,1.13-1.14.79-2.59,1.72-5.14,2.46-7.75,3.44-12.26,5.81-24.78,9.09-37.08,1.7-6.36,2.41-12.85,2.09-19.45-.11-2.28-.11-2.28-2.43-2.23-2.54.05-5.08.17-7.61.1-1.43-.03-1.71.43-1.38,1.75.61,2.42.69,4.9.62,7.38-.02.78-.27,1.42-1.03,1.69-.74.27-1.26-.16-1.62-.75-1.62-2.64-4.16-4.5-5.92-7.03-1.26-1.81-2.73-3.22-5.25-2.71-.59.12-1.26-.23-1.9-.31-3.45-.41-6.89-.88-10.39-.59-1.24.1-1.44.59-1.27,1.64.17,1.04.3,2.1.35,3.16.04.85.37,1.21,1.22,1.4,1.9.41,3.78.91,5.64,1.49,1.48.46,2.82,1.2,3.69,2.59,1.03,1.66.73,3.49-1.04,4.15-1.75.65-1.64,1.72-1.51,3.14.59,6.38,1.41,12.76,1.57,19.15.16,6.07.69,12.14.46,17.29Zm-45.29-104.57c7.78,0,13.74,0,19.7-.01.51,0,1.24.36,1.41-.58.15-.82.06-1.42-.84-1.85-1.77-.84-3.46-1.83-5.19-2.76-1.19-.64-1.71-1.94-3.56-2.08-3.63-.27-7.27-.8-10.9-1.24-7.28-.88-14.59-.85-21.88-1.25-6.59-.36-13.16.39-19.74.66-.93.04-1.92.23-2.8.18-1.76-.1-3.44.55-5.12.41-1.61-.14-3.13.25-4.65.42-1.67.19-3.39.47-5.04.62-3.03.27-6.11.49-9.04,1.08-5.84,1.17-11.78,1.67-17.6,2.93-2.08.45-4.32.43-6.33.91-3.68.87-7.44,1.53-11.05,2.68-2.36.75-4.87.97-7.13,2.11-1.38.7-2.26,1.5-2.31,3.24-.1,3.21,1.56,6.08,1.54,9.27,0,.86.58,1.24,1.7.92,5.03-1.46,10.14-2.67,15.16-4.15,3.82-1.12,7.71-1.88,11.64-2.25,3.33-.32,6.62-.89,9.92-1.34,4.12-.56,8.15-1.75,12.27-2.22,4.18-.48,8.32-1.23,12.53-1.5,5.32-.34,10.46-2.01,15.79-2.49,3.68-.33,7.34-1.08,11.04-1.32,7.42-.48,14.86-.43,20.48-.39Zm119.27,129.12c-2.52-7.55-5.49-14.57-8.6-21.53-2.84-6.36-5.32-12.83-6.38-19.78-1.29-8.44-2.6-16.88-4.21-25.26-.99-5.14-2.37-10.2-2.42-15.47-.02-2.2.82-4.26,1.08-6.41.24-1.93-.48-2.75-2.44-2.73-2.24.02-4.48.19-6.72.12-1.32-.04-1.64.25-1.31,1.58,1.39,5.69,1.71,11.53,1.97,17.35.36,8.01.48,16.03.71,24.05.12,4.13.12,8.24-1,12.29-1,3.63-1.82,7.32-2.69,10.98-.11.45-.3,1.01-.13,1.37,1.45,3.13,1.47,6.79,3.12,9.72,1.75,3.13,2.49,6.3,2.54,9.75,0,.67.23,1.04.88,1.02,3.17-.06,6.29.48,9.43.73,3.98.32,7.97.5,11.87,1.53,1.33.35,2.72.44,4.3.69Zm-69.56-125.89c-3.66,0-7.32-.04-10.98.02-1.93.03-3.99-.66-5.43,1.72-.53.88-.61,1.18-.01,1.69,1.21,1.03,2.46,2.02,3.74,2.97,4.68,3.49,9.71,6.74,13.1,11.52,3.66,5.17,6.85,10.74,8.42,17.01.24.95.63,1.22,1.54,1.19,3.65-.15,7.31-.27,10.97-.36.61-.02.98-.26,1.29-.75.81-1.29,2.05-1.66,3.5-1.66,2.89,0,5.77-.27,8.63-.72.6-.09,1.16-.04,1.03-.99-.6-4.3-1.81-8.3-5.26-11.27-1.18-1.02-2.03-2.28-2.76-3.65-1.47-2.75-2.59-5.81-4.57-8.14-2.49-2.94-5.44-5.54-8.1-8.36-.35-.37-.71-.31-1.13-.28-4.66.34-9.32.04-13.98.07Zm-138.79,74.05c-.55-.88-1.14-1.02-1.62-1.3-1.54-.91-3.18-1.63-4.4-3.04-2.74-3.17-5.53-6.29-8-9.68-.18-.25-.45-.49-.74-.38-1.32.51-2.31-.38-3.46-.66-2.89-.69-5.87-.76-8.86-.22-3.28.6-5.7,2.88-8.63,4.12-1.05.44-2.18.95-2.96,1.73-4.57,4.6-8.47,9.77-12.33,14.97-1.6,2.15-1.45,3.03.26,5.25,1.64,2.14,3.69,3.97,6.02,5.45,2.14,1.36,4.67,1.99,6.66,3.59,1.83,1.47,3.88,2.54,5.96,3.58.34.17.63.34.93,0,.95-1.08,2.15-2.05,2.76-3.3,1-2.05,2.47-3.74,3.85-5.45,1.7-2.11,3.46-4.21,5.11-6.33,2.09-2.7,4.35-5.17,6.98-7.22,2.05-1.6,4.45-2.61,7.35-2.28,1.66.19,3.13.92,5.14,1.18Zm234.76-66.2c2.69,1.19,5.31,1.47,7.91,1.65,6.83.47,13.68.46,20.52.32,5.67-.12,11.33.28,16.95.94,7.38.87,14.77,1.64,22.19,1.92,13.33.51,26.66.59,39.94-1.02,4.55-.55,9.21-.39,13.63-1.89.99-.34,2.7-.24,2.62-1.56-.06-.98-1.72-.9-2.7-1.09-9.46-1.82-19.06-2.38-28.66-2.78-3.77-.16-7.57-.19-11.3-.56-3.86-.38-7.7-.86-11.58-.87-8.5-.04-17-.08-25.49.28-5.54.23-11.08.49-16.62.66-4.7.15-9.37.77-14.05,1.05-3.14.19-6.22.52-9.26,1.25-1.34.32-2.69.71-4.1,1.69Zm-189.13,40.29c4.42.45,8.59-.88,12.83-1.7.99-.19.74-.72.59-1.26-.59-2.09-1.03-4.2-1.45-6.33-.27-1.39-1.34-2.03-2.88-1.89-2.64.24-5.25.75-7.93.63-2.91-.13-5.95-.29-8.71.24-3.04.59-6.16,1.02-9.18,1.32-2.89.3-5.88,1.01-8.82.51-2.06-.35-4.03-1.09-6.14-1.26-2.15-.17-4.18-1.19-6.26-1.43-6.06-.7-11.73-2.81-17.49-4.54-2.38-.72-4.98-1.24-7.1-2.86-.73-.56-1.92-.39-2.14.9-.32,1.87-.36,3.79-.79,5.62-.5,2.16.26,2.98,2.37,3.2.73.07,1.54.34,2.3.56,3.11.91,6.19,1.93,9.34,2.63,4.2.94,8.41,1.79,12.55,3.05,1.98.6,3.54,1.87,5.42,2.6,4.99,1.95,10.18,1.95,15.38,1.85,2.85-.06,5.71.22,8.55-.47,3.14-.76,6.27-1.68,9.57-1.37Zm103.27,5.72c-.12-1.02-.15-1.76-.3-2.48-.96-4.61-2.08-9.2-2.9-13.84-1.21-6.81-5.05-12.37-8.38-18.18-.6-1.04-1.61-1.88-2.52-2.71-3.71-3.37-7.62-6.5-11.72-9.4-1.73-1.23-3.46-2.52-4.01-4.77-.16-.64-.6-.66-1.09-.6-.7.09-1.39.3-2.09.33-1.58.07-2.04.98-2.09,2.41-.13,3.43,1.2,6.42,2.57,9.45,2.29,5.06,5.94,9.2,9.15,13.62,5.18,7.13,11.12,13.59,17.46,19.71,2.02,1.95,3.4,4.49,5.92,6.45Zm53.35,49.62c1.68-2.68,3.44-5.19,4.74-7.98,4.96-10.7,9.58-21.54,13.47-32.67,2.58-7.4,5.31-14.77,6.45-22.58.96-6.58,1.66-13.2,2.68-19.78,1.04-6.71,1.29-13.44,1.52-20.22.2-5.97.58-11.96,1.12-17.93.21-2.35.29-4.71.68-7.03,2.85-17.12,7.29-33.87,12.24-50.49,1.87-6.27,4.59-12.16,8.49-17.51,2.13-2.92,4.84-5.2,7.41-7.65.46-.44,1.33-.88.33-1.63-.66-.5-.99-1.69-2.27-.7-3.81,2.99-6.83,6.65-9.3,10.75-7.7,12.8-11.33,27.07-14.84,41.37-1.18,4.83-1.36,9.79-1.93,14.7-.75,6.56-1.86,13.06-2.37,19.65-.69,9.04-1.34,18.08-1.83,27.14-.38,7.06-1.12,14.1-2.41,21.06-1.27,6.85-3.45,13.45-5.86,19.98-3.88,10.5-7.7,21.03-11.67,31.49-1.99,5.23-4.08,10.44-6.77,15.36-.94,1.73-1.3,3.03.13,4.65Zm-230.11-68.99c.94-3.2,1.86-6.25,2.72-9.32.27-.97,1.12-1.72,1.23-2.63.26-2.06,1.13-3.85,1.93-5.69.11-.24.51-.41.25-.73-1.61-2-1.68-4.51-2.19-6.85-.45-2.06-1.41-4.05-.96-6.28.09-.43-.18-1.11-.52-1.41-.43-.39-.81.22-1.2.44-5.19,3-10.3,2.07-13.86-2.61-1.38-1.81-2.12-3.99-3.06-6.22-1.32,1.37-2.73,2.29-4.51,2.61-1.86.34-1.83.39-.86,2.18,1.63,3,2.85,6.1,2.25,9.64-.15.91.16,1.74.88,2.39,3.56,3.2,4.62,7.59,5.28,12,.28,1.86.84,3.15,2.23,4.28,2.25,1.83,4.73,3.34,6.84,5.38,1.03.99,1.98,2.3,3.53,2.83Zm96.3,76.44c-2.55-.09-4.97-.24-7.34-.71-1.67-.33-3.04-1.43-4.59-2.03-2.43-.94-5.05-.89-7.62-1.09-2.7-.22-5.4-.5-8.09-.78-1.16-.12-2.59-1-3.58-.03-1.69,1.66-3.07,3.62-4.22,5.7-1.38,2.5-2.01,5.17-2.29,8.05-.13,1.32.09,2.07.91,2.81,3.95,3.59,8.86,4.65,13.93,4.58,2.9-.04,5.74-1.26,8.41-2.54,6.28-3.04,10.77-8,14.5-13.96Zm32.91-47.93c6.51-.3,13.36-.3,20.11-1.4,2.81-.46,5.75-.11,8.45-1.28.89-.39,2.51-.27,2.48-1.26-.03-1.04-1.59-1.37-2.61-1.69-3.84-1.22-7.74-2.06-11.77-2.48-3.43-.35-6.82-1.1-10.28-1.39-4.82-.4-9.64-.3-14.45-.24-3.07.04-6.15.63-9.15,1.4-4.25,1.09-8.74,1.34-12.7,3.5-.6.33-1.7.23-1.54,1.26.14.87,1,.69,1.72.78,1.52.18,3.02.52,4.55.74,3.92.55,7.8,1.34,11.8,1.4,4.36.07,8.71.41,13.38.65Zm144.84-359.49c.53-.41.5-.74.4-.98-1.45-3.79-2.53-7.73-4.43-11.35-.92-1.75-2.07-3.33-3.83-4.4-4.64-2.83-9.62-4.84-14.93-5.93-2.23-.46-4.34-1.56-6.89-.35-1.66.78-2.55,1.65-3.12,3.24-.64,1.77-1.06,3.7-3.11,4.58-.62.27-1.44.07-1.84.64.17.21.28.51.45.55,2.73.59,5.44.78,8.03-.55,1.13-.58,2.02-.84,2.71.64.42.9,1.38,1.3,2.26,1.77,2.87,1.54,5.85,2.83,8.84,4.1.78.33,1.52.73,1.42,1.76-.23,2.34.89,4.45,1.12,6.71.08.74.68,1.13,1.42.79.41-.18,1.24-.39.8-1.06-1.1-1.66.14-2.87.72-4.15,1.69-3.69,5.79-2.82,7.55-.55,1.03,1.32,1.96,2.71,2.41,4.54Zm-59.93,429.02c4.6,0,9.2.08,13.8-.03,2.83-.07,5.59-.8,8.33-1.51.64-.16,1.32-.67,1.34-1.47.02-.83-.8-.95-1.36-1.16-1.46-.56-3.05-1.14-4.48-1.24-4.19-.31-8.26-1.46-12.53-1.38-5.05.09-10.12-.35-15.17-.68-4.77-.31-9.53-.42-14.31-.02-1.15.1-1.68.68-2.03,1.58-.51,1.31-.95,2.66-1.4,3.99-.23.67-.26,1.21.73,1.21,3.8,0,7.5.94,11.34.93,5.25-.01,10.5.13,15.75-.2Zm-219.6-32.38c.09-.47-.26-.73-.6-.95-2.04-1.31-4.05-2.8-6.16-3.86-2.54-1.28-5.04-2.61-7.43-4.13-1.12-.71-1.95-.16-2.22.71-1.34,4.21-2.4,8.49-3.32,12.81-.45,2.12-.01,4.47-1.61,6.33-.42.49.17.73.62.9,1.21.48,2.54.8,3.59,1.52,4.23,2.87,9.02,4.62,13.52,6.95.97.5,1.62.55,2.18-.62.85-1.76,1.23-3.65,1.8-5.49.53-1.7.84-3.51,1.28-5.2.35-1.36.37-2.15-.08-3.49-.6-1.76-2.56-3.23-1.57-5.48Zm169.09,51.37c0,1-.35,2.21.08,2.96.68,1.17,1.86-.4,2.85,0,.05.02.12,0,.18,0,1.05.09,1.52-.37,1.47-1.44-.08-1.66.42-3.27.62-4.9.5-4.05,1.55-8.03,2.02-12.07.66-5.6,3.08-10.73,3.94-16.27.28-1.79.27-1.94-1.6-1.94-3.08,0-6.18.59-9.23-.44-1.21-.41-1.31.48-1.37,1.4-.24,3.38-.43,6.75,0,10.13.13,1.04-.08,2.13.06,3.17.32,2.58.95,5.11,1.04,7.74.13,3.89.44,7.77-.05,11.65Zm159.01-241.09s0-.04,0-.06c-4.35,0-8.7.05-13.05-.03-1.28-.03-1.3.74-1.01,1.4,1.12,2.6,1.4,5.42,2.18,8.11.37,1.28.97,1.62,2.25,1.55,6.22-.33,12.44-.8,18.67-.08.99.11,2-.02,3-.03.72,0,1.17-.35,1.12-1.06-.17-2.85,1.08-5.51,1.04-8.35-.02-1.16-.29-1.5-1.46-1.49-4.24.07-8.49.03-12.73.03Zm-156.61,87.32c4.66.19,9.43,0,14.2-.26.9-.05,1.1-.47,1.09-1.21-.01-2.06,0-4.12-.04-6.18,0-.59-.02-1.29-.7-1.49-1.84-.54-3.5-1.88-5.66-1.13-.86.3-1.87.12-2.81.19-6.52.46-13.02,1.07-19.4,2.54-.45.11-1.11.03-1.2.79-.2,1.69-.79,3.31-.74,5.05.03,1.11.41,1.44,1.55,1.53,4.54.37,9.07-.32,13.71.16Zm123.15-317.83c.92-3.21,1.38-6.21,1.58-9.28.22-3.24-.95-5.72-3.28-7.98-3.11-3.02-6.65-5.44-10.07-8.06-2.66-2.04-5.5-3.78-8.32-5.55-.77-.49-1.4-.75-1.94.39-1.32,2.79-3.33,3.53-6.2,2.38-.35-.14-.66-.18-.97.08-.21.18-.26.34-.06.57,2.09,2.45,4.84,4.11,7.46,5.84,1.16.77,2.68,1.17,3.91,1.94,4.42,2.76,8.79,5.6,13.18,8.42.99.64,1.68,1.41,2.21,2.57,1.24,2.72,1.79,5.58,2.49,8.66Zm-202.87,90.33c6.6,6.45,10.77,14.59,16.55,21.98,2.32-8.56,4.51-16.7,6.76-25.01-7.8,2.4-15.32,3.89-23.32,3.03Zm114.28,423.55c2.09-.74,4.17-1.42,6.21-2.22,4.73-1.86,9.6-3.2,14.47-4.63,4.95-1.45,9.88-3.05,14.75-4.8,3.31-1.19,6.53-2.6,9.86-3.75,2.43-.84,4.55-2.55,7.24-2.84.24-.03.49-.33.66-.56.63-.87,1.6-1.2,2.55-1.41,1.81-.39,3.11-1.72,4.76-2.41.89-.37.86-1.47.58-2.2-.27-.68-1.02-.19-1.56-.08-.45.09-.94.12-1.34.32-3.83,1.96-7.96,3.16-11.94,4.75-3.63,1.45-7.44,2.45-11.17,3.64-3.83,1.21-7.74,2.2-11.47,3.66-7.08,2.76-14.12,5.6-21.24,8.25-2.62.97-2.73,1.17-2.34,4.29Zm-134.37-37.18c-.59-.25-.95-.43-1.33-.55-7.57-2.28-14.98-4.94-21.83-8.97-.5-.29-.85-.29-1.18.21-1.81,2.74-3.25,5.61-3.07,9.03.03.55.19.84.68,1.08,2.99,1.4,5.94,2.89,9.24,3.4,2.91.46,5.81.95,8.72,1.34,2.46.33,4.94.53,7.55.81-1.73-3.03-1.45-4.48,1.22-6.35Zm152.73-442.78c1.46,1.12,1.53,2.43,1.01,3.88-.32.89-.62,1.78-1.03,2.63-2.59,5.31-5.77,10.28-9.06,15.17-3.32,4.94-6.2,10.19-10.21,14.64-1.58,1.76-2.34,1.81-4.2.21-.11,1.9.63,3.31,2.32,3.89,1.78.61,3.82,1.23,5.43-.23,2.21-2.02,4.07-4.37,5.51-7.05,1.14-2.13,2.74-4.03,3.7-6.22,1.06-2.4,2.38-4.64,3.77-6.8.84-1.31,1.58-2.72,2.54-4,1.27-1.71,2.04-3.84,3.14-5.73,1.59-2.7,3.09-5.46,4.65-8.17.54-.95.16-1.39-.76-1.56-2.23-.42-4.55.14-6.82-.65Zm-119.48,393.87c-.27-.34-.42-.57-.62-.77-1.36-1.35-2.33-2.77-2.33-4.89,0-1.24-.52-3.01-1.43-3.59-1.78-1.14-3.94-1.95-6.03-2.29-2.15-.34-4.38-.28-6.65.16-5.23,1.01-9.55,3.72-13.88,6.52-.31.2-.8.43-.63.91.12.37.56.32.91.38,3.5.6,7.06.5,10.58.88,2.91.32,5.55,1.08,8.05,2.25,3.98,1.86,7.86,1.61,12.03.43Zm132.53-419.57c-.27.32-.45.47-.56.67-3.27,5.7-7.11,11.05-10.12,16.9-.9,1.74-1.94,3.4-2.9,5.1-.26.47-.57.97.37,1.11,1.91.3,3.83.45,5.76.33.67-.04,1.3-.18,1.59-1.03.95-2.73,2.98-4.47,5.44-5.87.89-.5,1.96-.21,2.73-.94,1.58-1.49,2.77-3.39,3.56-5.26,1.02-2.43,2.26-4.68,3.66-7.02-3.76.18-7.3-.13-9.52-3.99Zm-105.74,404s0,0,0,0c1.35,0,2.72.13,4.06-.02,7.77-.9,15.6-.95,23.36-1.81,1.27-.14,2.57-.28,3.75-.85.53-.26,1.15-.59,1.22-1.14.08-.63-.56-.96-1.11-1.21-.78-.35-1.52-.87-2.34-1.02-5.47-1.03-10.96-1.92-16.56-1.66-1.4.07-2.8.33-4.21.21-1.83-.15-3.67-.05-5.47.26-1.58.28-3.16.63-4.77.64-2.08.01-3.04.71-3.04,2.41q0,4.21,4.4,4.18c.24,0,.47,0,.71,0Zm33.86,31.49c0-1.41.07-2.83-.02-4.24-.14-2.36-2.17-.99-3.24-1.56-.81-.44-.99.24-1.11.83-.23,1.2-.57,2.39-.63,3.6-.36,7.88-1.03,15.76-.9,23.66.02,1.34-.16,2.69.23,4.06,1.12,3.93,1.07,3.89,5.12,4.18,1.22.09,1.59-.17,1.6-1.45.05-4.41.29-8.79.04-13.22-.16-2.9-.53-5.8-.67-8.71-.12-2.36-.52-4.75-.44-7.15ZM154.94,152.64c-.02.47-.07.94-.07,1.41-.03,2.87.2,2.86,2.77,3.58,1.33.38,2.8.39,4.33.04,5.27-1.2,8.57-4.24,10.05-9.42.46-1.61,1.65-2.99-.25-4.6-.75-.63-.63-1.57-2.29-1.27-2.51.46-5.16.39-7.68.96-2.57.58-5.18,1.31-6.25,4.2-.61,1.65-.63,3.37-.62,5.1Zm231.07,171.31c0,1.24,0,2.47,0,3.71,0,.49-.05,1.04.7.82,1.09-.32,2.24-.13,3.31-.35,5.23-1.07,10.47-2.19,15.41-4.29,1.55-.66,2.58-1.9,2.34-3.7-.18-1.41-.3-2.8-.26-4.21.02-.69-.24-1.28-.99-1.08-2.41.65-4.96.62-7.32,1.23-2.63.67-5.22,1.3-7.93,1.61-4.7.55-5.28,1.36-5.26,6.25Zm61.1,106.75c-1.35-.07-2.71-.11-4.06-.22-1.42-.12-2.69.27-3.86,1.01-1.09.69-1.09,1.51,0,2.18.44.27.98.37,1.49.51,2.11.6,4.22,0,6.33.04,9.37.18,18.75.4,28.12.6,2.16.04,4.21-.42,6.14-1.41.51-.26,1.12-.42,1.05-1.22-.07-.74-.22-1.45-1.01-1.71-1.92-.65-4.1-1.35-5.87-.68-1.97.74-3.79.56-5.68.53-7.55-.11-15.1-.1-22.64.39Zm-155.68-264.1c.3,0,.57.02.84,0,2.82-.22,5.49.4,8.05,1.51.62.27,1.63.55,1.2,1.59-.41.99-1.18.83-2.03.45-1.06-.47-2.15-.94-3.28-1.14-1.97-.36-3.92-.58-5.87.47-1.21.65-.74,1.52-.65,2.25.13,1.09.9.24,1.33.17,2.01-.35,4.02-.64,5.99.04,1.54.54,3.02,1.25,4.53,1.88.6.25,1.25.48,1.71-.18,2-2.86,3.19-6.1,4.23-9.39.15-.46.07-1.03-.59-1.03-1.7,0-3.11-.97-4.71-1.3-4.64-.96-9.07.38-10.75,4.69Zm41.73,87.98c1.62,1.09,2.47.17,3.34-.95,2.39-3.08,4.31-6.47,6.53-9.66,4-5.75,7.78-11.65,11.06-17.85.44-.84,1.21-1.72-.25-2.6-.67-.4-.31-1.44.4-1.96.41-.3.91-.47,1.47-.75-.82-.55-1.57-1.11-2.16.02-2.26,4.31-5.12,8.24-7.71,12.33-1.98,3.12-3.91,6.27-5.72,9.51-2.22,3.97-4.89,7.7-6.96,11.9Zm75.83,70.78c0,.74-.07,1.16.01,1.55.92,4.66,1.81,9.33,2.84,13.97.16.71.37,2.1,1.19,1.99,1.15-.15,2.46-.77,3.21-1.63.53-.6.54-2,.28-2.89-1.13-3.9-1.47-7.93-2.28-11.88-.75-3.65-1.62-7.25-2.83-10.77-.23-.66-.52-.99-1.23-.95-.5.03-.52.33-.55.7-.21,3.41.6,6.89-.63,9.9Zm-8.74-34.29c-.5-1.62-1.69-2.76-1.49-4.17.16-1.11-.12-.93-.9-.81-2.14.34-4.26.76-6.47.65-5.02-.25-9.86-1.27-14.67-2.66-2.1-.6-4.13-1.25-6.05-2.92,0,1.68.01,2.92,0,4.15,0,.72.19,1.2.98,1.42.94.27,1.8.8,2.75,1.02,3.44.8,6.99,1.13,10.41,1.87,5.08,1.11,10.19.7,15.46,1.43Zm-28.03-101.65c1.24-.47,2.43-.86,3.52-1.62,3.16-2.18,6.49-3.95,10.56-2.82.3.08.45-.08.65-.37,1.04-1.51,2.1-3.02,3.26-4.43.45-.55.63-1.21.14-1.45-.94-.45-2.02-.77-3.06-.82-2.2-.12-4.35-.38-5.96-2.03-.95-.98-1.12-.54-1.63.38-2.44,4.41-4.98,8.77-7.49,13.15Zm-41.62,362.7c3.19-.57,6.46-.27,9.67-.74.82-.12,1.17-.35,1.07-1.35-.2-2-.57-3.96-.93-5.93-.15-.86-.47-1.26-1.5-1.17-2.87.24-5.76.32-8.65.44-1.9.08-3.34,2.52-2.13,3.96.95,1.14,1.15,2.25,1.05,3.57-.08,1.05.43,1.39,1.41,1.23Zm-111.44,48.68c-2.98-.64-5.4-1.36-7.87-1.62-1.33-.14-2.73-.23-4.21.46-3.23,1.5-5.75,3.75-8.19,6.23-.76.77-1.89,1.59-1.71,2.46.19.93,1.52,1.25,2.64,1.17.35-.02.6.25.97.3,2.41.32,3.46-1.75,5.01-2.85,2.39-1.69,4.78-3.24,7.59-4.25,1.75-.63,3.6-1.01,5.76-1.91Zm115.94-18.52c-.16-.01-.32-.02-.48-.03-.14.6-.3,1.2-.4,1.81-1.21,7.2-2.4,14.41-3.62,21.61-.28,1.64-.63,3.44-2.06,4.37-2.22,1.44-2.6,3.43-2.57,5.77.02,1.23-.12,2.48-.36,3.69-.31,1.54-.62,2.92,1.67,2.95.23,0,.45.33.85.65-.26-1.8-.9-3.29-.59-4.93.53-2.7,1.68-5,3.78-6.82,1.24-1.08,2.12-2.37,2.06-4.12-.18-5.33,1.05-10.54,1.28-15.84.13-3.04.65-6.07.44-9.12Zm37.45-339.22c2.11-2.34,4.28-4.64,6.3-7.05.77-.92,1.36-1.99,2.24-2.84.08-.07.07-.39,0-.43-1.23-.75-2.08-2.28-3.11-2.75-1.69-.76-3.36-1.6-5.03-2.42-.77-.38-1.47-.29-1.46.46,0,.97-.47,1.78-.46,2.71.03,3.06.1,6.13.02,9.19-.03,1.14.25,2.01,1.49,3.13Zm-102.02,249.22c-.71-.13-1.18.32-1.43.83-.35.72-.28,1.54.27,2.16,2.13,2.4,5.04,3.75,7.95,4.6,2,.58,4.27.68,6.42.99.81.11,1.84.75,2.08-.69.25-1.5,1.04-3.42-.74-4.25-4.59-2.12-9.65-2.6-14.55-3.64Zm-23.67,192c.02-.13.05-.27.07-.4-.14-.09-.27-.22-.42-.27-3.04-.92-6.09-1.78-5.73-6.02.11-1.26-.93-.9-1.61-.65-3.82,1.38-7.78,2.28-11.66,3.47-1.72.53-3.36,1.34-5.03,2.02.04.13.07.26.11.39,8.09.48,16.18.97,24.27,1.45Zm72.73-131.82c1.58.13,3.52-.08,5.45-.29.65-.07,1.6.41,1.88-.39.29-.8.13-1.78-.51-2.48-.92-1-1.14-2.19-.93-3.44.16-.97-.24-1.18-1.03-1.03-2.46.44-4.93.21-7.4.24-3.57.04-3.57.01-2.73,3.55q.92,3.87,5.28,3.85Zm76.58-367.36c0,2.61.1,2.73,2.07,3.44,1.22.44,2.43.91,3.6,1.48,2.36,1.15,2.34,1.17,3.98-.91.2-.26.57-.38.83-.6,1.2-1.01,1.16-1.89-.15-2.76-3.05-2.03-6.23-3.9-8.77-6.59-.62-.66-1.33-.59-1.93-.32-.67.3-.38,1.09-.23,1.58.51,1.68.29,3.44.61,4.68Zm.39-35c-1.93-1.02-3.15-.5-3.84,1.71-.51,1.62-1.13,3.18-1.92,4.67-1.85,3.48-3.72,6.95-5.63,10.5,3.68.12,6.89-1.31,10.26-1.92,1.56-.28,2.04-2.37,1.04-3.55-1.1-1.31-2.18-2.63-3.25-3.95-1.37-1.68-1.3-3.54.1-5.27.86-1.07,2.07-1.58,3.25-2.19Zm-94.37,401.88c-1.87-2.08-3.6-4.02-5.34-5.94-.31-.34-.55-.91-1.05-.87-2.14.16-4.22-.6-6.34-.4-.79.08-1.73.48-1.58,1.66.2,1.58.42,3.15.61,4.73.06.52.15.93.83.83,4.22-.64,8.44.51,12.87,0Zm105.61-267.98c0-.47.02-.95,0-1.42-.11-1.75-1.22-3.04-2.93-3.51-1.79-.49-2.04,1.18-2.58,2.05-2.09,3.42-1.9,6.53.28,8.93,1.56,1.72,2.99,1.58,4.03-.47.89-1.75,1.28-3.62,1.2-5.59Zm-5.6-73.16c-.2,1.94.9,3.28,2.13,4.54,1.7,1.73,3.38,1.26,4.25-1.02,1.12-2.96-.35-5.33-1.69-7.68-.61-1.07-2.41-.8-3.25.19-.99,1.16-1.55,2.44-1.43,3.98Zm-177.1,449.82c-1.27-.04-2.4.25-2.76,1.64-.38,1.48.54,2.36,1.74,2.88,1.56.67,3.15,1.32,4.79,1.69,1.29.3,2.72-.15,3.39-1.31.55-.96.01-2.31-.9-2.78-1.96-1-3.91-2.19-6.25-2.12Zm89.91,1.29c-.11,1.15.28,2.12,1.22,2.73.43.28,1.02.12,1.46-.28.87-.78.48-1.71.32-2.62-.32-1.8-.66-3.59-.53-5.44.07-.95.54-1.86.55-2.69.05-3.84.89-7.53,1.61-11.25.13-.68.89-1.71.01-1.95-.94-.26-.77,1.02-1,1.67-1.37,3.89-1.77,7.99-2.5,12.01-.47,2.59-.77,5.21-1.15,7.82Zm3.77-37.08c-.88,0-1.76,0-2.64,0-.47,0-.93,0-1.1.61-.57,2.01-1.17,4-1.75,6.01-.1.35,0,.68.32.94.4.31.62.02.9-.19.85-.62,1.83-.87,2.86-1.08,1.65-.34,2.98-.99,3.72-2.8,1.47-3.61,1.55-3.62-2.31-3.48Zm92.56-423.29c.16-.05.26-.07.26-.09.17-3.8.31-7.59.53-11.39.06-1.14-.6-1.52-1.44-1.92-.91-.43-1.26.32-1.76.75-.27.23-.48.51-.73.76-1.85,1.8-1.88,3.17-.12,4.96,1.23,1.25,1.94,2.84,2.35,4.48.23.9.64,1.64.92,2.46Zm-217.5,422.34c1.52-4.61,3.34-8.49,6.51-11.67-1.31-.61-2.8-.69-4.01-1.49-.83-.55-1.03.15-1.24.66-.6,1.47-1.27,2.93-1.37,4.55-.15,2.51-.5,5.03.1,7.95Zm47.69-27.7c.18.56.66.61.99.81,1.68,1.01,3.59,1.01,5.45,1.32,1.35.22,2.87.52,3.96.12,1.62-.6.33-2.24.35-3.43,0-.36.35-.79-.1-1.17-3.48,1.02-7.19,1.15-10.66,2.35Zm-21.11,60.49c.82.05,1.64-.18,2.4-.69.69-.46.91-1.03.53-1.8-.9-1.79-5.64-3.3-7.38-2.34-.6.33-1.04.67-.66,1.52,1.02,2.32,2.46,3.32,5.11,3.32Zm65.19-151.77c.3-1.15-.34-1.54-1.48-1.63-1.22-.1-2.44-.32-3.64-.55-2.59-.51-2.58-.53-2.65,2.14,0,.29,0,.61-.12.86-.53,1.17.23,1.03.96,1.04,1.7.03,3.36-.7,5.06-.26,1.34.35,2.02-.04,1.87-1.6Zm113.75-347.81c1.47-.09,2.49-.57,3.23-1.58.38-.52.56-1.24-.04-1.56-1.86-1.02-3.78-2.03-6.02-1.4-1.15.32-2.06,1.75-1.52,2.28,1.27,1.24,2.86,1.89,4.36,2.26Zm-170.58,442.8c-4.45-3.42-9.2-4.33-14.47-2.59,4.86.37,9.19,3.41,14.47,2.59Zm-23.07,65.62c-.82.06-1.92-.05-2.18.98-.3,1.21.85,1.49,1.7,1.88.43.2.91.32,1.26.61,1.71,1.44,3.75,1.2,4.91-.61.33-.52.49-.95-.24-1.25-1.74-.72-3.45-1.52-5.44-1.62Zm187.85-486.53c-1.66,2.23-2.99,4-4.3,5.8-.27.37.05.51.34.6,1.13.33,2.17.98,3.39,1.02.62.02,1.15-.04,1.07-.93-.18-1.97-.3-3.95-.49-6.48Zm-219.92,483.6c.17-3.55,1.49-6.6,3.38-9.44.25-.37.91-.73.2-1.31-.67-.54-1.09-.13-1.45.37-1.87,2.56-3.18,5.35-3.52,8.56-.1.97.14,1.62,1.39,1.83Zm207.05-493.52c.46-.04.69-.33.85-.64,1.03-2.1,2.68-3.84,3.47-6.07.14-.4.82-.78.28-1.18-.43-.31-1.15-.53-1.62-.39-.48.15-.97.72-1.16,1.22-.79,2.04-1.48,4.12-2.17,6.2-.11.33-.31.86.36.86Zm10.35-.57c-1.72.26-3.34.46-4.95.76-1.16.21-2.27.63-3.04,1.6-.47.59-.53,1.09.48,1.06,2.18-.07,4.24-.65,6.15-1.67.6-.32,1.1-.87,1.36-1.75Zm-97.15,5.19c-1.17,0-2.16.14-2.21,1.49-.04,1.11,1.36,2.92,2.19,2.93.67.01,2.1-1.75,1.93-2.58-.21-1.02-.53-2.12-1.9-1.83Zm73.13,161.87c-.12-2.63-.24-4.8-.3-6.97-.04-1.53-.02-3.06,0-4.59,0-.62-.23-.87-.84-.74-.73.15-.27.55-.24.91.12,1.61.16,3.21-.08,4.84-.32,2.15-.53,4.37,1.48,6.54Zm-128.73,276.84c.32-1.44-.03-2.69-.13-3.94-.18-2.14-.59-2.5-2.98-2.31.52,2.27.67,4.72,3.11,6.25Zm80.56,20.93c-1.28-.08-2.16.53-3.08,1-.66.33-1.17.92-1,1.68.19.83.94,1.04,1.73,1.11.85.08,1.18-.25,1.42-1.09.25-.86.71-1.67.92-2.7Zm57.43-318.1c-.43,3.35-.03,6.61,1.05,9.8.7-3.37-.88-6.51-1.05-9.8Zm-50.31,310.57c-.16-.57.18-1.29-.63-1.36-.67-.06-.62.57-.72,1.01-.29,1.2-.64,2.38-1.22,3.48-.15.28-.32.56.03.73.25.12.64.14.8-.15.67-1.22,1.52-2.37,1.74-3.71Zm-3.59,6.12c-.36.17-.5.46-.64.81-.57,1.42-1.17,2.83-1.78,4.24-.17.38-.44.82.12,1,.44.15.86-.04,1.05-.59.53-1.53,1.14-3.03,1.66-4.56.1-.31.25-.85-.4-.9Zm51.12-438.38c.96-.29,1.72-1.11,2.35-2.05.14-.21.6-.43.23-.85-.42-.48-.72-.11-1.03.12-.68.51-1.37.96-2.2,1.21-.44.13-1.01.39-.76,1.13.24.7.78.24,1.42.44Zm-117.58,402.6h-.01c0-.58.04-1.17-.01-1.75-.04-.39.27-1.04-.55-1.01-.63.02-.97.32-.86,1,.2,1.3.57,2.58.36,3.92-.06.38.22.74.56.71.33-.03.54-.37.52-.79-.03-.7,0-1.4,0-2.1Zm114.16-296.21v3.5c.7-1.46,2.68-1.23,2.31-2.78-.23-.96-1.5-.22-2.31-.72Zm88.36-51.9c-.15,1.34-.47,2.77-.04,4.13.16-.01.31-.03.47-.04-.14-1.36-.29-2.72-.43-4.09Z"/><path class="cls-1" d="m255.95,168.5c-1.46-1.68-2.45-3.14-2.27-5.06.11-1.14-.67-1.06-1.37-1.05-2.43.02-4.79.6-7.18.93-2.45.35-4.9.85-7.34-.11-.87-.34-1.81-.67-1.47-1.81.38-1.26,1.38-.76,2.22-.52,3.19.95,6.3.05,9.4-.51,2.86-.51,5.89-.76,8.55-.25,4.01.76,8.06,2.28,10.63,5.96.66.95,1.82,1.91-.04,3.01-.56.33-.61,1.29-1.42,1.9-1.59,1.17-3.14.52-4.65.49-1.58-.03-3.13.17-4.81-.38-3.07-1.01-6.05-2.08-8.72-3.91-.68-.47-1.47-1.07-.86-2.01.62-.96,1.45-.47,2.15,0,2.11,1.42,4.31,2.6,7.18,3.32Zm5.43-.16c1.32.13,1.73-.95,2.17-1.88.47-.98-.53-1.16-1.03-1.52-1.55-1.11-3.34-1.68-5.17-2.11-1.41-.34-1.81.16-1.39,1.6.6,2.05,3.18,3.94,5.41,3.92Z"/><path class="cls-1" d="m248.39,90.91c-12.91.02-25.83-.34-38.72.29-2.4.12-4.94-.07-7.34.66-1.78.54-3.41,1.29-4.61,2.78-.54.66-1.19,1.37-2.07.68-.89-.71-.26-1.53.2-2.18,1.85-2.6,4.62-3.74,7.58-4.01,7.86-.7,15.74-.83,23.64-.58,7.19.23,14.39.07,21.58.08.53,0,1.06,0,1.59.04.44.02.82.22,1,.63.32.73.04,1.37-.64,1.58-.59.18-1.03,1.86-1.88.3.02-.24-.07-.34-.32-.27Z"/><path class="cls-1" d="m248.56,149.2c2.97.27,5.96.42,8.91.82,6.45.87,12.58,2.73,17.97,6.53.42.3.8.71,1.07,1.14.33.52.15,1.06-.34,1.39-.63.42-1.23.21-1.78-.23-3.19-2.55-6.94-3.97-10.79-5.09-2.99-.87-6.08-1.67-9.17-1.62-2.52.04-4.96-.68-7.46-.39-.93.11-1.86-.09-2.8.17-.64.18-1.52.34-1.69-.69-.16-.96.53-1.45,1.33-1.56,1.57-.22,3.14-.52,4.75-.47Z"/><path class="cls-1" d="m255.17,214.82c.09.01.28,0,.44.06,6.43,2.38,13.34,2.27,19.94,3.75,1.47.33,2.95.67,4.29,1.45.55.32,1.35.55,1.08,1.31-.25.71-1.32.97-1.8.79-7.63-2.87-16-2.18-23.64-4.95-.33-.12-.68-.21-.99-.39-.52-.3-.73-.77-.53-1.35.18-.51.59-.7,1.2-.68Z"/><path class="cls-1" d="m248.6,154.55c2.81-.53,5.49.67,8.25.48.78-.05,1.59.62,2.42.9,3.23,1.07,6.15,2.67,8.69,4.95.53.48,1.07.95,1.3,1.64.18.53.14,1.07-.37,1.43-.5.35-1.01.3-1.45-.11-.52-.48-.97-1.04-1.52-1.48-4.74-3.8-10.1-5.7-16.23-5.33-.95.06-1.56.76-2.42.92-.77.14-1.62.35-1.97-.53-.33-.83.2-1.48.97-1.85.76-.37,1.55-.68,2.33-1.02Z"/><path class="cls-1" d="m272.89,212.22c.95-.29,2.19.28,3.3,1.27.86.77,1.93.98,3.01.94,1.12-.04,1.81.36,2.44,1.3.53.78,1.02,1.63,1.95,2.14.44.24.87.94.35,1.66-.52.71-1.12.44-1.73.22-.05-.02-.11-.06-.14-.1-1.75-3.3-5.7-2.93-8.25-4.92-.85-.66-1.83-.2-2.74-.11-2.93.3-5.84.67-8.76,1.02-.78.09-1.67.23-1.83-.81-.16-1.02.73-1.25,1.49-1.37,1.74-.28,3.49-.51,5.24-.71,1.69-.19,3.39-.32,5.67-.53Z"/><path class="cls-1" d="m186.78,165.26c-.03-2.77,1.6-4.58,4.37-4.73,1.46-.08,2.97-.19,4.28.67.61.4,1.2.95.79,1.74-.42.82-1.14.62-1.84.29-.42-.2-.88-.39-1.33-.43-1.22-.12-2.54-.42-3.43.76-1.04,1.39-.56,2.76.26,4.08.58.93,1.34,1.61,2.41,1.96.72.24,1.36.65.96,1.55-.35.79-1.05.8-1.81.6-2.38-.64-4.64-3.76-4.67-6.49Z"/><path class="cls-1" d="m277.42,201.74c-1.77.22-3.7.46-5.62.69-.58.07-1.18.15-1.73-.17-.51-.3-.68-.77-.66-1.35.02-.5.38-.55.72-.58,2.51-.27,5.01-.55,7.52-.79.45-.04.91-.1,1.33.28.42.38.85.79.61,1.34-.39.91-1.27.64-2.17.58Z"/><path class="cls-1" d="m189.69,155.29c-1.27-.15-2.64-.26-3.74-1.15-.58-.48-.87-1.16-.38-1.87.54-.78,1.09-.53,1.78-.06,1.85,1.26,3.39,1.11,4.86-.42.47-.49.91-1.06,1.6-.52.73.58.61,1.4.1,2.04-1.05,1.31-2.48,1.91-4.23,1.98Z"/><path class="cls-1" d="m262.66,198c.17-2.1,1-3.74,2.46-5.05.57-.51,1.29-.76,1.87-.08.51.59.22,1.19-.29,1.71-1.08,1.07-1.97,2.24-1.57,3.88.19.79.19,1.5-.67,1.71-.93.23-1.37-.46-1.61-1.25-.1-.33-.14-.69-.18-.91Z"/><path class="cls-1" d="m437.61,559.23c-.14-6.96-.25-13.92-.43-20.88-.1-4.05-.49-8.09-1.01-12.11-.15-1.15-.66-1.47-1.74-1-.84.37-1.71.67-2.58.97-.57.2-1.09.05-1.34-.52-.22-.5.05-.91.49-1.19,1.54-.97,3.22-1.64,5.02-1.9,1-.14,1.69.7,1.87,1.53.41,2,.81,4,.86,6.08.08,3.24.58,6.47.85,9.71.13,1.64.17,3.29.2,4.94.08,3.78.24,7.55.15,11.33-.07,3.08-.35,6.18-.4,9.25-.04,2.32-.4,4.63-.48,6.94-.07,2.08-.09,4.26-.62,6.36-.36,1.45-.18,2.99-.4,4.5-.57,3.95-.85,7.95-1.08,11.94-.24,4.15-.32,8.31-.43,12.46-.39,14.16-.71,28.32-.61,42.48.01,2.07-.59,3.73-2.54,4.66-2.06.97-3.69-.11-3.48-2.33.62-6.91-.23-13.8-.52-20.67-.56-13.11-.13-26.2.18-39.28.13-5.45.67-10.9.94-16.35.21-4.25.6-8.5.59-12.77-.03-10.43.95-20.86-.12-31.28-.12-1.17-.07-2.36-.05-3.54.01-.73.17-1.61,1.07-1.52.69.07,1.39.54,1.38,1.54-.02,2.53.02,5.07.04,7.6.09.72-.4,1.52.33,2.14.37,10.74-.08,21.48-.54,32.18-.3,6.88-.85,13.78-1.15,20.67-.54,12.28-.7,24.57-.37,36.85.21,7.88.6,15.76.73,23.65-.03.25-.22.6.19.63.34.03.37-.33.39-.61.74-.97.64-2.12.64-3.22.05-8.91,0-17.83.14-26.74.11-7.37.23-14.74.72-22.09.35-5.31.6-10.64,1.36-15.92.59-4.1.91-8.26,1.16-12.38.23-3.67.73-7.35.59-11.05.55-.35.56-.71,0-1.06Z"/><path class="cls-1" d="m462.76,334.04c.68-7.45.75-14.91.77-22.38,0-.99.04-1.96-.3-2.96-.39-1.15.39-2.04,1.26-2.69.96-.71,2.01-.63,2.98.02,2.4,1.62,3.75,4,4.09,6.76.55,4.37,1.19,8.72,1.56,13.12.43,5.13.34,10.24.41,15.37.01.89.4,2.15-.74,2.49-1.03.31-2.37.15-3.1-.77-1.31-1.63-2.81-2.29-4.9-2.02-1.4.18-1.96-.92-2.02-2.16-.07-1.59-.02-3.18-.02-4.78Zm8.14,6.58c.07.08.14.16.2.25.02-.1.04-.2.07-.3.3-8.33-.41-16.6-1.51-24.85-.32-2.42-.6-4.81-2.28-6.74-.33-.38-.65-1.05-1.2-.88-.65.2-.3.91-.31,1.39-.11,6.49-.08,12.98-.32,19.46-.1,2.77-.18,5.54-.3,8.31-.03.59-.26,1.38.88,1.23,2.01-.26,3.49.73,4.77,2.14Z"/><path class="cls-1" d="m473.52,354.94c-.16,3.05-.29,6.4-.78,9.73-.7,4.71-4.58,6.19-8.48,5.69-1.21-.16-1.83-1.07-1.87-2.25-.13-3.3-.28-6.6-.26-9.9.01-2.83.41-3.02,3.18-3.54,2.44-.46,4.65-1.43,5.24-4.28.19-.92.87-1.01,1.62-.99.86.03,1.32.51,1.35,1.33.04,1.3.01,2.59.01,4.2Zm-2.21-.77c-1.94,1.48-3.6,2.64-5.65,2.75-.98.05-1.17.46-1.15,1.29.05,2.88.09,5.76.1,8.64,0,.96.43,1.17,1.32,1.13,2.55-.11,4.01-1.2,4.41-3.9.46-3.13.63-6.3.97-9.91Z"/><path class="cls-1" d="m451.73,402.52c.02-.49.01-.61.03-.73.54-2.61,1.28-5.05.49-7.93-.67-2.44,2.18-4,4.37-2.62,1.14.72,1.41,2.19,1.85,3.42.13.37,0,.91.23,1.17,1.68,1.94,1.02,3.85-.02,5.73-.69,1.24-.95,2.41-.61,3.86.38,1.6.28,3.29-.24,4.89-.26.8-.57,1.6-1.53,1.76-1.06.17-1.66-.55-2.09-1.33-1.46-2.68-2-5.63-2.47-8.23Zm3.76,5.24c.15-.32.22-.41.23-.51.02-.17.06-.36,0-.53-.75-2.67-.14-5.08,1.28-7.38.66-1.08-.07-1.81-.81-2.54-.13,2.03-2.36,3.08-2.1,5.2.23,1.93.77,3.75,1.4,5.75Zm.41-11.52c.09-.79.04-1.52.27-2.14.26-.7-.08-.8-.57-.95-.6-.18-1.1-.12-1.19.59-.15,1.17.3,2.03,1.5,2.5Z"/><path class="cls-1" d="m449.53,348.24c-.44.7-.82,1.68-1.83,1.1-.98-.57-.64-1.53-.24-2.35,1.3-2.64,3.07-3.21,5.78-1.9.94.46,1.61-.05,2.2-.63,1.21-1.18,2.56-1.76,4.16-.99,1.93.92,3.04,2.58,3.52,4.61.21.91-.45,1.59-1.23,1.96-1.43.68-2.87,1.4-4.53.52-.84-.44-1.58.25-2.33.5-2.56.86-5.22.1-5.51-2.81Zm.6-1.05c.45.13.95.13,1.09.35,1.46,2.31,3.2,1.18,4.88.42,1-.45,1.84-.67,2.69.28.42.47,1.03.18,1.44-.14.56-.44,0-.82-.21-1.15-1.06-1.65-1.74-1.73-3.35-.45-1.75,1.38-2.96,1.53-4.81.39-.7-.43-1.17-.41-1.72.31Z"/><path class="cls-1" d="m494.25,499.43c-3.11,0-5.88,0-8.65,0-.71,0-1.47.05-1.78-.8-.3-.8.16-1.35.69-1.85.63-.6,1.77-1.2,1.55-1.98-.23-.81-1.55-.38-2.35-.68-.55-.21-1.15-.27-1.69-.49-1.04-.44-1.81-1.18-1.8-2.39.01-1.26.73-2.22,1.92-2.46,2.58-.52,4.48-2.77,7.38-2.57,2.69.19,5.4-.43,8.1-.02.7.11,1.4.17,2.09.32,2.74.63,3.68,2.25,2.87,4.95-.77,2.57-.77,2.58,1.83,2.87,1.5.17,2.23,1.09,2.28,2.46.05,1.4-.85,2.08-2.2,2.28-3.52.51-7.07.1-10.25.36Zm6.32-2.78c-.94-1.03-1-2.03-.98-3.12.01-.8.28-1.48.52-2.2.68-2.03.55-2.23-1.6-2.68-1.92-.41-3.9-.48-5.8-.21-1.51.22-3.51-.35-4.41.46-1.56,1.41-3.36,1.67-5.36,2.24.89.63,1.68.65,2.47.76,1.57.22,3.18.25,4.67.87.68.28,1.21.74,1.2,1.58,0,.91-.69,1.13-1.39,1.35-.68.21-1.59.09-1.71.96h12.39Z"/><path class="cls-1" d="m449.93,459.07c-.12-1.53.54-2.74,1.51-3.84.75-.85,1.11-1.7-.15-2.47-.91-.56-1.09-1.52-1.14-2.47-.13-2.37-.63-4.66-1.11-6.97-.65-3.19.82-4.5,3.94-3.63.68.19,1.36.38,2.03.62.45.16,1.14.63.95.89-1.01,1.46.73,2.65.2,4.17-.78,2.23-.12,4.36,1.5,6.18,1.64,1.84,1.54,3.56-.38,5.21-.74.64-.95,1.26-.81,2.13.54,3.44.15,6.95.75,10.4.32,1.81-2.81,4.29-4.57,3.78-.85-.25-1.07-.96-1.28-1.75-.52-1.98-.18-4-.45-5.99-.28-2.1-.66-4.18-.99-6.27Zm3.8-2.66c2.74-2.06,2.65-2,1.11-4.44-1.52-2.4-2.04-5.13-.89-7.76.77-1.77,0-1.93-1.32-2.32-1.46-.43-1.6-.04-1.28,1.28.46,1.94.73,3.93,1.09,5.9.12.67-.11,1.47.56,1.97,1.83,1.36,2.01,3.05.75,5.37Zm.1-.02c-1.06.88-1.74,1.78-1.4,2.91.95,3.22.72,6.55,1.14,9.82.05.36-.28,1.1.54.97.63-.1.69-.6.64-1.22-.33-4.09-.61-8.18-.92-12.47Z"/><path class="cls-1" d="m408.88,234.91c-.05,1.11-.41,2.1-.98,3-1.04,1.63-2.11,3.24-3.18,4.86-.46.69-1.09,1.2-1.92.72-.95-.55-.51-1.31-.07-1.96.91-1.37,1.8-2.75,2.77-4.07,1.08-1.47,1.42-2.91.28-4.52-.49-.69-.88-1.59.08-2.15,1-.58,1.43.34,1.88,1.03.61.95,1.01,1.98,1.14,3.09Z"/><path class="cls-1" d="m179.03,210.19c-1.64-.2-3.66-.34-5.54-1.09-.81-.33-1.81-.76-1.34-1.9.44-1.05,1.35-.62,2.14-.35,1.86.64,3.76.98,5.73.93,4.24-.11,6.92-3.23,6.38-7.44-.08-.62-.09-1.23.66-1.43.67-.17,1.14.18,1.43.76.53,1.05.51,2.18.29,3.29-.86,4.37-4.67,7.29-9.75,7.23Z"/><path class="cls-1" d="m157.84,201.92c-.84-.04-1.45-.09-1.59-.84-.15-.82.39-1.2,1.04-1.41,1.56-.5,3.14-.97,4.72-1.43,2.73-.8,4.57-2.56,5.69-5.13.31-.7.6-1.58,1.63-1.07.88.44.74,1.27.42,2.01-.62,1.47-1.47,2.82-2.66,3.91-2.68,2.45-6.12,3.11-9.25,3.95Z"/><path class="cls-1" d="m396.11,340.41c-.03-1.79.22-3.35,1.16-4.72,1.69-2.46,4.87-2.44,6.5.02,1.64,2.47,2.83,5.02,1.99,8.12-.48,1.77-1.58,2.92-3.24,3.44-1.69.53-3.12-.18-4.31-1.4-1.53-1.57-2.2-3.46-2.11-5.46Zm7.5,1.37c-.02-1.16-.64-2.67-1.93-4.65-.77-1.18-1.79-1.2-2.6-.05-1.36,1.94-.82,5.75,1.04,7.31,1.12.94,2.37.73,3.05-.56.34-.63.43-1.34.43-2.06Z"/><path class="cls-1" d="m123.97,620.26c-2.67-.37-5.47-1.85-7.39-4.69-1.37-2.03-.95-5.29.7-7.09.53-.58,1.15-1.1,1.96-1.08,3.59.09,7.09.41,9.11,4.07.46.83.86,1.67,1.11,2.59.98,3.6-1.02,6.22-5.49,6.2Zm3.29-4.55c-.02-.15-.03-.38-.07-.61-.4-2.26-4.77-5.66-7.08-5.56-.52.02-.88.26-1.19.64-1.13,1.35-1.16,3.37.05,4.69,1.42,1.55,3.2,2.57,5.26,3.02,1.54.34,3.01-.73,3.04-2.18Z"/></svg>